<svg id="account-pin-box-fill" xmlns="http://www.w3.org/2000/svg" width="68.489" height="76.099" viewBox="0 0 68.489 76.099">
  <path id="account-pin-box-fill-2" data-name="account-pin-box-fill" d="M46.354,72.989l-7.61,7.61-7.61-7.61H12.09A7.592,7.592,0,0,1,4.5,65.4V12.09A7.588,7.588,0,0,1,12.09,4.5H65.4a7.59,7.59,0,0,1,7.592,7.59V65.4a7.592,7.592,0,0,1-7.59,7.592ZM17.274,61.574H60.993a26.635,26.635,0,0,0-43.716,0Zm21.47-19.025A13.317,13.317,0,1,0,25.427,29.232,13.317,13.317,0,0,0,38.744,42.549Z" transform="translate(-4.5 -4.5)" fill="#f5f5f5"/>
</svg>
