<svg xmlns="http://www.w3.org/2000/svg" width="40.613" height="22.385" viewBox="0 0 40.613 22.385">
  <g id="Group_18027" data-name="Group 18027" transform="translate(-40.115 -527.808)">
    <path id="ios-plus-empty" d="M25.261,18.313H18.945v6.15H15.532v-6.15H9V14.8h6.531V9h3.413v5.8h6.317Z" transform="translate(55.467 522.046)" fill="#ff6ad5"/>
    <path id="Path_13933" data-name="Path 13933" d="M23.036,5.448h-.468l2.067-2.067L23.5,2.25,2.25,23.5l1.131,1.131,3.2-3.2H23.036a1.6,1.6,0,0,0,1.6-1.6v-4a.8.8,0,0,0-.8-.8,1.6,1.6,0,0,1,0-3.2.8.8,0,0,0,.8-.8v-4A1.6,1.6,0,0,0,23.036,5.448Zm0,4.9a3.2,3.2,0,0,0,0,6.193v3.3h-5.6v-2.4h-1.6v2.4H8.177l7.664-7.664v3.666h1.6V10.576l3.529-3.529h2.067Z" transform="translate(37.865 525.558)" fill="#fff"/>
    <path id="Path_13934" data-name="Path 13934" d="M3.849,11.648v-3.3H15.841V6.75H3.849a1.6,1.6,0,0,0-1.6,1.6v4a.8.8,0,0,0,.8.8,1.6,1.6,0,1,1,0,3.2.8.8,0,0,0-.8.8v4h1.6v-3.3a3.2,3.2,0,0,0,0-6.193Z" transform="translate(37.865 524.256)" fill="#ff87dd"/>
  </g>
</svg>
