<svg xmlns="http://www.w3.org/2000/svg" xmlns:xlink="http://www.w3.org/1999/xlink" width="41" height="41" viewBox="0 0 41 41">
  <defs>
    <filter id="Ellipse_104" x="0" y="0" width="41" height="41" filterUnits="userSpaceOnUse">
      <feOffset dy="3" input="SourceAlpha"/>
      <feGaussianBlur stdDeviation="1.5" result="blur"/>
      <feFlood flood-opacity="0.22"/>
      <feComposite operator="in" in2="blur"/>
      <feComposite in="SourceGraphic"/>
    </filter>
    <linearGradient id="linear-gradient" x1="0.5" x2="0.5" y2="1" gradientUnits="objectBoundingBox">
      <stop offset="0" stop-color="#48dbe1"/>
      <stop offset="1" stop-color="#4166cd"/>
      <stop offset="1" stop-color="#236b73"/>
    </linearGradient>
  </defs>
  <g id="Group_17312" data-name="Group 17312" transform="translate(-18.5 -598.5)">
    <g transform="matrix(1, 0, 0, 1, 18.5, 598.5)" filter="url(#Ellipse_104)">
      <circle id="Ellipse_104-2" data-name="Ellipse 104" cx="16" cy="16" r="16" transform="translate(4.5 1.5)" fill="#fff"/>
    </g>
    <circle id="Ellipse_104-3" data-name="Ellipse 104" cx="14" cy="14" r="14" transform="translate(25 602)" fill="url(#linear-gradient)"/>
    <path id="command" d="M12.37,5.623a2.249,2.249,0,1,0-2.249-2.249V4.723h-4.5V3.374A2.249,2.249,0,1,0,3.374,5.623H4.723v4.5H3.374A2.249,2.249,0,1,0,5.623,12.37V11.021h4.5V12.37a2.249,2.249,0,1,0,2.249-2.249H11.021v-4.5ZM11.021,3.374A1.349,1.349,0,1,1,12.37,4.723H11.021Zm-6.3,9a1.349,1.349,0,1,1-1.349-1.349H4.723Zm0-7.647H3.374A1.349,1.349,0,1,1,4.723,3.374Zm5.4,5.4h-4.5v-4.5h4.5Zm2.249.9a1.349,1.349,0,1,1-1.349,1.349V11.021Z" transform="translate(31.128 608.128)" fill="#fff"/>
  </g>
</svg>
