<svg xmlns="http://www.w3.org/2000/svg" width="17.971" height="22.599" viewBox="0 0 17.971 22.599">
  <g id="Group_17214" data-name="Group 17214" transform="translate(-338.516 -161.7)">
    <g id="report-data" transform="translate(333.891 159.45)">
      <path id="Path_13423" data-name="Path 13423" d="M16.875,22.5h1.543v3.086H16.875Z" transform="translate(-3.536 -6.365)" fill="#ef76eb"/>
      <path id="Path_13424" data-name="Path 13424" d="M22.5,20.25h1.543v4.628H22.5Z" transform="translate(-5.304 -5.658)" fill="#ef76eb"/>
      <path id="Path_13425" data-name="Path 13425" d="M11.25,15.75h1.543v7.714H11.25Z" transform="translate(-1.768 -4.243)" fill="#ef76eb"/>
      <path id="Path_13426" data-name="Path 13426" d="M21.053,4.564H18.739V3.793A1.543,1.543,0,0,0,17.2,2.25H11.025A1.543,1.543,0,0,0,9.482,3.793v.771H7.168A1.543,1.543,0,0,0,5.625,6.107v16.2a1.543,1.543,0,0,0,1.543,1.543H21.053A1.543,1.543,0,0,0,22.6,22.306V6.107A1.543,1.543,0,0,0,21.053,4.564ZM11.025,3.793H17.2V6.878H11.025ZM21.053,22.306H7.168V6.107H9.482V8.421h9.257V6.107h2.314Z" fill="#fff"/>
    </g>
    <g id="report-data-2" data-name="report-data" transform="translate(332.891 160.45)" opacity="0.2">
      <path id="Path_13423-2" data-name="Path 13423" d="M16.875,22.5h1.543v3.086H16.875Z" transform="translate(-3.536 -6.365)" fill="#a4a4a4"/>
      <path id="Path_13424-2" data-name="Path 13424" d="M22.5,20.25h1.543v4.628H22.5Z" transform="translate(-5.304 -5.658)" fill="#a4a4a4"/>
      <path id="Path_13425-2" data-name="Path 13425" d="M11.25,15.75h1.543v7.714H11.25Z" transform="translate(-1.768 -4.243)" fill="#a4a4a4"/>
      <path id="Path_13426-2" data-name="Path 13426" d="M21.053,4.564H18.739V3.793A1.543,1.543,0,0,0,17.2,2.25H11.025A1.543,1.543,0,0,0,9.482,3.793v.771H7.168A1.543,1.543,0,0,0,5.625,6.107v16.2a1.543,1.543,0,0,0,1.543,1.543H21.053A1.543,1.543,0,0,0,22.6,22.306V6.107A1.543,1.543,0,0,0,21.053,4.564ZM11.025,3.793H17.2V6.878H11.025ZM21.053,22.306H7.168V6.107H9.482V8.421h9.257V6.107h2.314Z" fill="#a4a4a4"/>
    </g>
  </g>
</svg>
