<svg id="annotation-visibility" xmlns="http://www.w3.org/2000/svg" width="31.528" height="27.024" viewBox="0 0 31.528 27.024">
  <path id="Path_14168" data-name="Path 14168" d="M31.526,4.5H4.5A2.252,2.252,0,0,0,2.25,6.752v22.52A2.252,2.252,0,0,0,4.5,31.524H31.526a2.252,2.252,0,0,0,2.252-2.252V6.752A2.252,2.252,0,0,0,31.526,4.5Zm0,24.772H4.5V6.752H31.526Z" transform="translate(-2.25 -4.5)" fill="#459fd4"/>
  <path id="Path_14169" data-name="Path 14169" d="M23.64,22.509H14.632a3.953,3.953,0,0,0-.991-2.095l4.279-7.477-1.96-1.126L11.7,19.266a3.772,3.772,0,0,0-1.013-.135,3.941,3.941,0,1,0,3.547,5.63h9.4ZM10.691,24.761a1.689,1.689,0,1,1,1.689-1.689A1.689,1.689,0,0,1,10.691,24.761Z" transform="translate(-2.246 -4.494)" fill="#459fd4"/>
  <path id="Path_14170" data-name="Path 14170" d="M21.375,9h7.882v2.252H21.375Z" transform="translate(-2.233 -4.496)" fill="#459fd4"/>
  <path id="Path_14171" data-name="Path 14171" d="M21.375,13.5h4.5v2.252h-4.5Z" transform="translate(-2.233 -4.492)" fill="#459fd4"/>
</svg>
