<svg xmlns="http://www.w3.org/2000/svg" xmlns:xlink="http://www.w3.org/1999/xlink" width="19.5" height="22.143" viewBox="0 0 19.5 22.143">
  <defs>
    <linearGradient id="linear-gradient" x1="0.5" x2="0.5" y2="1" gradientUnits="objectBoundingBox">
      <stop offset="0" stop-color="#48dbe1"/>
      <stop offset="1" stop-color="#4166cd"/>
      <stop offset="1" stop-color="#236b73"/>
    </linearGradient>
  </defs>
  <path id="Icon_awesome-bell" data-name="Icon awesome-bell" d="M9.25,21.143A2.642,2.642,0,0,0,11.892,18.5H6.608A2.642,2.642,0,0,0,9.25,21.143Zm8.894-6.182c-.8-.857-2.291-2.147-2.291-6.371a6.521,6.521,0,0,0-5.283-6.407V1.321a1.321,1.321,0,1,0-2.641,0v.861A6.521,6.521,0,0,0,2.646,8.589c0,4.224-1.493,5.514-2.291,6.371a1.29,1.29,0,0,0-.356.9,1.323,1.323,0,0,0,1.326,1.321H17.174A1.322,1.322,0,0,0,18.5,15.857a1.289,1.289,0,0,0-.356-.9Z" transform="translate(0.5 0.5)" stroke="rgba(0,0,0,0)" stroke-width="1" fill="url(#linear-gradient)"/>
</svg>
