<svg xmlns="http://www.w3.org/2000/svg" xmlns:xlink="http://www.w3.org/1999/xlink" width="34.496" height="24.546" viewBox="0 0 34.496 24.546">
  <defs>
    <linearGradient id="linear-gradient" x1="0.5" x2="0.5" y2="1" gradientUnits="objectBoundingBox">
      <stop offset="0" stop-color="#48dbe1"/>
      <stop offset="1" stop-color="#4166cd"/>
      <stop offset="1" stop-color="#236b73"/>
    </linearGradient>
  </defs>
  <g id="Group_17155" data-name="Group 17155" transform="translate(18024 -7356.823)">
    <g id="person" transform="translate(-18024 7356.823)">
      <path id="Path_42854" data-name="Path 42854" d="M27,29.046A2,2,0,0,0,29.046,27c0-2.045-2.045-8.182-12.273-8.182S4.5,24.955,4.5,27a2,2,0,0,0,2.045,2.045ZM6.555,27.115v0ZM6.59,27H26.955l.029,0,.016,0a5.461,5.461,0,0,0-1.7-3.4c-1.334-1.333-3.844-2.724-8.526-2.724s-7.192,1.391-8.526,2.725a5.477,5.477,0,0,0-1.7,3.4Zm20.4.115v0ZM16.773,14.727a4.091,4.091,0,1,0-4.091-4.091A4.091,4.091,0,0,0,16.773,14.727Zm6.136-4.091A6.136,6.136,0,1,1,16.773,4.5,6.136,6.136,0,0,1,22.909,10.636Z" transform="translate(-4.5 -4.5)" fill="url(#linear-gradient)"/>
    </g>
    <g id="plus" transform="translate(-18009.631 7365.119) rotate(-45)">
      <path id="Path_42855" data-name="Path 42855" d="M7.116,0a.791.791,0,0,1,.791.791V7.116a.791.791,0,0,1-.791.791H.791a.791.791,0,0,1,0-1.581H6.325V.791A.791.791,0,0,1,7.116,0Z" fill="url(#linear-gradient)"/>
      <path id="Path_42856" data-name="Path 42856" d="M0,.791A.791.791,0,0,1,.791,0H7.116a.791.791,0,0,1,0,1.581H1.581V7.116A.791.791,0,0,1,0,7.116Z" transform="translate(6.325 6.325)" fill="url(#linear-gradient)"/>
    </g>
  </g>
</svg>
