<svg id="Group_13970" data-name="Group 13970" xmlns="http://www.w3.org/2000/svg" xmlns:xlink="http://www.w3.org/1999/xlink" width="19" height="19" viewBox="0 0 19 19">
  <defs>
    <linearGradient id="linear-gradient" x1="0.5" x2="0.5" y2="1" gradientUnits="objectBoundingBox">
      <stop offset="0" stop-color="#48dbe1"/>
      <stop offset="1" stop-color="#4166cd"/>
      <stop offset="1" stop-color="#236b73"/>
    </linearGradient>
  </defs>
  <path id="Path_13905" data-name="Path 13905" d="M1.188,5.812V17.688a1.188,1.188,0,0,0,1.188,1.188h14.25a1.188,1.188,0,0,0,1.188-1.187V5.812ZM2.375,2.25A2.375,2.375,0,0,0,0,4.625V17.688a2.375,2.375,0,0,0,2.375,2.375h14.25A2.375,2.375,0,0,0,19,17.688V4.625A2.375,2.375,0,0,0,16.625,2.25Z" transform="translate(0 -1.063)" fill="url(#linear-gradient)"/>
  <path id="Path_13906" data-name="Path 13906" d="M7.344,0a.594.594,0,0,1,.594.594v.594a.594.594,0,0,1-1.187,0V.594A.594.594,0,0,1,7.344,0ZM18.031,0a.594.594,0,0,1,.594.594v.594a.594.594,0,0,1-1.188,0V.594A.594.594,0,0,1,18.031,0Z" transform="translate(-3.188)" fill="url(#linear-gradient)"/>
  <path id="Path_13907" data-name="Path 13907" d="M16.25,14.094a.594.594,0,0,1,.594-.594h1.188a.594.594,0,0,1,.594.594v1.188a.594.594,0,0,1-.594.594H16.844a.594.594,0,0,1-.594-.594Zm-3.562,0a.594.594,0,0,1,.594-.594h1.188a.594.594,0,0,1,.594.594v1.188a.594.594,0,0,1-.594.594H13.281a.594.594,0,0,1-.594-.594ZM6.75,17.656a.594.594,0,0,1,.594-.594H8.531a.594.594,0,0,1,.594.594v1.188a.594.594,0,0,1-.594.594H7.344a.594.594,0,0,1-.594-.594Zm3.562,0a.594.594,0,0,1,.594-.594h1.188a.594.594,0,0,1,.594.594v1.188a.594.594,0,0,1-.594.594H10.906a.594.594,0,0,1-.594-.594Z" transform="translate(-3.188 -6.375)" fill="url(#linear-gradient)"/>
</svg>
