<svg id="camera" xmlns="http://www.w3.org/2000/svg" width="15.509" height="11.632" viewBox="0 0 15.509 11.632">
  <path id="Path_13192" data-name="Path 13192" d="M14.54,14.193V8.377a.969.969,0,0,0-.969-.969H12.434a2.908,2.908,0,0,1-2.055-.852l-.8-.8a.969.969,0,0,0-.684-.284H6.619a.969.969,0,0,0-.685.284l-.8.8a2.908,2.908,0,0,1-2.056.852H1.939a.969.969,0,0,0-.969.969v5.816a.969.969,0,0,0,.969.969H13.571A.969.969,0,0,0,14.54,14.193ZM1.939,6.439A1.939,1.939,0,0,0,0,8.377v5.816a1.939,1.939,0,0,0,1.939,1.939H13.571a1.939,1.939,0,0,0,1.939-1.939V8.377a1.939,1.939,0,0,0-1.939-1.939H12.434a1.939,1.939,0,0,1-1.37-.568l-.8-.8A1.939,1.939,0,0,0,8.891,4.5H6.619a1.939,1.939,0,0,0-1.37.568l-.8.8a1.939,1.939,0,0,1-1.371.568Z" transform="translate(0 -4.5)" fill="#fff"/>
  <path id="Path_13193" data-name="Path 13193" d="M13.518,17.066a2.423,2.423,0,1,0-2.423-2.423A2.423,2.423,0,0,0,13.518,17.066Zm0,.969a3.393,3.393,0,1,0-3.393-3.393A3.393,3.393,0,0,0,13.518,18.035Z" transform="translate(-5.763 -8.342)" fill="#fff"/>
  <path id="Path_13194" data-name="Path 13194" d="M5.469,13.985a.485.485,0,1,1-.485-.485A.485.485,0,0,1,5.469,13.985Z" transform="translate(-2.561 -9.623)" fill="#fff"/>
</svg>
