<svg xmlns="http://www.w3.org/2000/svg" xmlns:xlink="http://www.w3.org/1999/xlink" width="47.801" height="43.987" viewBox="0 0 47.801 43.987">
  <defs>
    <filter id="camera-reverse-sharp" x="0" y="0" width="47.801" height="43.987" filterUnits="userSpaceOnUse">
      <feOffset dy="3" input="SourceAlpha"/>
      <feGaussianBlur stdDeviation="5" result="blur"/>
      <feFlood flood-opacity="0.09"/>
      <feComposite operator="in" in2="blur"/>
      <feComposite in="SourceGraphic"/>
    </filter>
  </defs>
  <g transform="matrix(1, 0, 0, 1, 0, 0)" filter="url(#camera-reverse-sharp)">
    <path id="camera-reverse-sharp-2" data-name="camera-reverse-sharp" d="M19.1,8.168H15.8a.578.578,0,0,1-.382-.2l-1.085-1.7c-.4-.644-.639-.644-1.355-.644H9.322c-.715,0-.914,0-1.354.644l-1.084,1.7a.52.52,0,0,1-.342.2V7.532a.318.318,0,0,0-.318-.318H4.634a.318.318,0,0,0-.318.318v.636H3.2a.954.954,0,0,0-.954.954v9.536a.954.954,0,0,0,.954.954H19.1a.954.954,0,0,0,.954-.954V9.122A.954.954,0,0,0,19.1,8.168Zm-7.947,8.9A3.8,3.8,0,0,1,7.375,13.89H5.642l2.33-2.329L10.3,13.89H8.687a2.546,2.546,0,0,0,4.078,1.331l.928.854-.146.148a3.84,3.84,0,0,1-2.4.845Zm3.179-2.139-2.34-2.311h1.625a2.553,2.553,0,0,0-4.092-1.326l-.914-.9.125-.1a3.822,3.822,0,0,1,2.408-.857,3.763,3.763,0,0,1,3.744,3.179H16.67Z" transform="translate(12.75 6.38)" fill="#4186cf"/>
  </g>
</svg>
