<svg xmlns="http://www.w3.org/2000/svg" xmlns:xlink="http://www.w3.org/1999/xlink" width="52.84" height="44.13" viewBox="0 0 52.84 44.13">
  <defs>
    <filter id="Path_15166" x="0" y="0" width="52.84" height="44.13" filterUnits="userSpaceOnUse">
      <feOffset dy="3" input="SourceAlpha"/>
      <feGaussianBlur stdDeviation="3" result="blur"/>
      <feFlood flood-color="#fff" flood-opacity="0.251"/>
      <feComposite operator="in" in2="blur"/>
      <feComposite in="SourceGraphic"/>
    </filter>
    <filter id="Path_15167" x="9.799" y="6.532" width="33.243" height="33.242" filterUnits="userSpaceOnUse">
      <feOffset dy="3" input="SourceAlpha"/>
      <feGaussianBlur stdDeviation="3" result="blur-2"/>
      <feFlood flood-color="#fff" flood-opacity="0.161"/>
      <feComposite operator="in" in2="blur-2"/>
      <feComposite in="SourceGraphic"/>
    </filter>
  </defs>
  <g id="camera" transform="translate(9 6)">
    <g transform="matrix(1, 0, 0, 1, -9, -6)" filter="url(#Path_15166)">
      <path id="Path_15166-2" data-name="Path 15166" d="M32.663,26.275V13.21a2.177,2.177,0,0,0-2.178-2.177H27.933a6.533,6.533,0,0,1-4.616-1.914l-1.807-1.8a2.178,2.178,0,0,0-1.536-.638H14.868a2.178,2.178,0,0,0-1.54.638l-1.8,1.8a6.533,6.533,0,0,1-4.618,1.914H4.355A2.177,2.177,0,0,0,2.178,13.21V26.275a2.177,2.177,0,0,0,2.178,2.177h26.13A2.177,2.177,0,0,0,32.663,26.275ZM4.355,8.855A4.355,4.355,0,0,0,0,13.21V26.275A4.355,4.355,0,0,0,4.355,30.63h26.13a4.355,4.355,0,0,0,4.355-4.355V13.21a4.355,4.355,0,0,0-4.355-4.355H27.933a4.355,4.355,0,0,1-3.079-1.276l-1.8-1.8A4.355,4.355,0,0,0,19.972,4.5h-5.1A4.355,4.355,0,0,0,11.79,5.776l-1.8,1.8A4.355,4.355,0,0,1,6.907,8.855Z" transform="translate(9 1.5)" fill="#4391d4"/>
    </g>
    <g transform="matrix(1, 0, 0, 1, -9, -6)" filter="url(#Path_15167)">
      <path id="Path_15167-2" data-name="Path 15167" d="M17.746,24.315A5.444,5.444,0,1,0,12.3,18.871,5.444,5.444,0,0,0,17.746,24.315Zm0,2.177a7.621,7.621,0,1,0-7.621-7.621A7.621,7.621,0,0,0,17.746,26.492Z" transform="translate(8.67 1.28)" fill="#4391d4"/>
    </g>
    <path id="Path_15168" data-name="Path 15168" d="M6.678,14.589A1.089,1.089,0,1,1,5.589,13.5,1.089,1.089,0,0,1,6.678,14.589Z" transform="translate(-0.145 -4.79)" fill="#4391d4"/>
  </g>
</svg>
