<svg xmlns="http://www.w3.org/2000/svg" xmlns:xlink="http://www.w3.org/1999/xlink" width="36" height="36" viewBox="0 0 36 36">
  <defs>
    <filter id="Oval" x="0" y="0" width="36" height="36" filterUnits="userSpaceOnUse">
      <feOffset input="SourceAlpha"/>
      <feGaussianBlur stdDeviation="3" result="blur"/>
      <feFlood flood-opacity="0.161"/>
      <feComposite operator="in" in2="blur"/>
      <feComposite in="SourceGraphic"/>
    </filter>
  </defs>
  <g id="Group_15342" data-name="Group 15342" transform="translate(-115 -42)">
    <g transform="matrix(1, 0, 0, 1, 115, 42)" filter="url(#Oval)">
      <circle id="Oval-2" data-name="Oval" cx="9" cy="9" r="9" transform="translate(9 9)" fill="#9f98df"/>
    </g>
    <g id="camera" transform="translate(128.098 56.324)">
      <path id="Path_13192" data-name="Path 13192" d="M9.191,10.627V6.951a.613.613,0,0,0-.613-.613H7.86a1.838,1.838,0,0,1-1.3-.539l-.508-.507a.613.613,0,0,0-.432-.179H4.184a.613.613,0,0,0-.433.179L3.243,5.8a1.838,1.838,0,0,1-1.3.539H1.225a.613.613,0,0,0-.613.613v3.676a.613.613,0,0,0,.613.613H8.578A.613.613,0,0,0,9.191,10.627Zm-7.965-4.9A1.225,1.225,0,0,0,0,6.951v3.676a1.225,1.225,0,0,0,1.225,1.225H8.578A1.225,1.225,0,0,0,9.8,10.627V6.951A1.225,1.225,0,0,0,8.578,5.725H7.86a1.225,1.225,0,0,1-.866-.359l-.507-.507A1.225,1.225,0,0,0,5.62,4.5H4.184a1.225,1.225,0,0,0-.866.359l-.507.507a1.225,1.225,0,0,1-.867.359Z" transform="translate(0 -4.5)" fill="#fff"/>
      <path id="Path_13193" data-name="Path 13193" d="M12.27,14.926a1.532,1.532,0,1,0-1.532-1.532A1.532,1.532,0,0,0,12.27,14.926Zm0,.613a2.145,2.145,0,1,0-2.145-2.145A2.145,2.145,0,0,0,12.27,15.539Z" transform="translate(-7.368 -9.412)" fill="#fff"/>
      <path id="Path_13194" data-name="Path 13194" d="M5.113,13.806a.306.306,0,1,1-.306-.306A.306.306,0,0,1,5.113,13.806Z" transform="translate(-3.275 -11.049)" fill="#fff"/>
    </g>
  </g>
</svg>
