<svg xmlns="http://www.w3.org/2000/svg" xmlns:xlink="http://www.w3.org/1999/xlink" width="41" height="41" viewBox="0 0 41 41">
  <defs>
    <filter id="Ellipse_104" x="0" y="0" width="41" height="41" filterUnits="userSpaceOnUse">
      <feOffset dy="3" input="SourceAlpha"/>
      <feGaussianBlur stdDeviation="1.5" result="blur"/>
      <feFlood flood-opacity="0.22"/>
      <feComposite operator="in" in2="blur"/>
      <feComposite in="SourceGraphic"/>
    </filter>
    <linearGradient id="linear-gradient" x1="0.5" x2="0.5" y2="1" gradientUnits="objectBoundingBox">
      <stop offset="0" stop-color="#48dbe1"/>
      <stop offset="1" stop-color="#4166cd"/>
      <stop offset="1" stop-color="#236b73"/>
    </linearGradient>
  </defs>
  <g id="Group_17308" data-name="Group 17308" transform="translate(-16.5 -468.5)">
    <g transform="matrix(1, 0, 0, 1, 16.5, 468.5)" filter="url(#Ellipse_104)">
      <circle id="Ellipse_104-2" data-name="Ellipse 104" cx="16" cy="16" r="16" transform="translate(4.5 1.5)" fill="#fff"/>
    </g>
    <circle id="Ellipse_104-3" data-name="Ellipse 104" cx="14" cy="14" r="14" transform="translate(23 472)" fill="url(#linear-gradient)"/>
    <path id="tv-alt-play" d="M13.163,2.849a1.244,1.244,0,0,1,.909.385,1.279,1.279,0,0,1,.385.94v7.891a1.316,1.316,0,0,1-1.295,1.295H1.326a1.279,1.279,0,0,1-.94-.385A1.245,1.245,0,0,1,0,12.066V4.175a1.279,1.279,0,0,1,.385-.94,1.281,1.281,0,0,1,.94-.386H6.319L4.131.691,4.593.229l2.651,2.62L9.864.229l.462.462L8.169,2.849h4.994Zm0,9.217V4.175H1.326v7.891H13.163Zm-7.892-6.6L9.864,8.12,5.271,10.74Z" transform="translate(29.771 478.131)" fill="#fff"/>
  </g>
</svg>
