<svg xmlns="http://www.w3.org/2000/svg" xmlns:xlink="http://www.w3.org/1999/xlink" width="49.786" height="49.786" viewBox="0 0 49.786 49.786">
  <defs>
    <filter id="Path_3901" x="0" y="0" width="49.786" height="49.786" filterUnits="userSpaceOnUse">
      <feOffset dy="3" input="SourceAlpha"/>
      <feGaussianBlur stdDeviation="5" result="blur"/>
      <feFlood flood-opacity="0.09"/>
      <feComposite operator="in" in2="blur"/>
      <feComposite in="SourceGraphic"/>
    </filter>
  </defs>
  <g id="Group_16721" data-name="Group 16721" transform="translate(1608.828 -4496.278)" opacity="0.26">
    <g transform="matrix(1, 0, 0, 1, -1608.83, 4496.28)" filter="url(#Path_3901)">
      <g id="Path_3901-2" data-name="Path 3901" transform="translate(-407.96 -1524.65)" fill="none">
        <path d="M428.9,1556.436a.99.99,0,0,1-.989-.989v-2.968h-.989a3.961,3.961,0,0,1-3.957-3.957v-7.914a3.961,3.961,0,0,1,3.957-3.957h11.871a3.961,3.961,0,0,1,3.957,3.957v7.914a3.961,3.961,0,0,1-3.957,3.957h-2.705l-6.7,3.827A.955.955,0,0,1,428.9,1556.436Zm-1.565-18.237a2.924,2.924,0,0,0-2.528,2.409v7.914a2.967,2.967,0,0,0,2.528,2.45l1.42.132c.547,0,.635.133.635.679v2.769l6.025-3.317a1.794,1.794,0,0,1,.672-.131l2.852-.132a2.577,2.577,0,0,0,2.139-2.449v-7.914a2.672,2.672,0,0,0-2.285-2.409Z" stroke="none"/>
        <path d="M 428.8992919921875 1556.436401367188 C 428.7276000976562 1556.436401367188 428.556396484375 1556.391967773438 428.4028625488281 1556.302612304688 C 428.0978698730469 1556.125610351562 427.9099731445312 1555.799438476562 427.9099731445312 1555.447143554688 L 427.9099731445312 1552.479125976562 L 426.9212036132812 1552.479125976562 C 424.7385864257812 1552.479125976562 422.9639892578125 1550.7041015625 422.9639892578125 1548.52197265625 L 422.9639892578125 1540.608032226562 C 422.9639892578125 1538.426025390625 424.7385864257812 1536.65087890625 426.9212036132812 1536.65087890625 L 438.7922973632812 1536.65087890625 C 440.9749145507812 1536.65087890625 442.7494812011719 1538.426025390625 442.7494812011719 1540.608032226562 L 442.7494812011719 1548.52197265625 C 442.7494812011719 1550.7041015625 440.9749145507812 1552.479125976562 438.7922973632812 1552.479125976562 L 436.0869750976562 1552.479125976562 L 429.3901672363281 1556.305786132812 C 429.2386779785156 1556.39599609375 429.0684814453125 1556.436401367188 428.8992919921875 1556.436401367188 Z M 427.3347473144531 1538.199462890625 C 426.243896484375 1538.199462890625 424.8065185546875 1539.51708984375 424.8065185546875 1540.608520507812 L 424.8065185546875 1548.522338867188 C 424.8065185546875 1549.61376953125 426.243896484375 1550.971923828125 427.3347473144531 1550.971923828125 L 428.7547912597656 1551.10400390625 C 429.3017272949219 1551.10400390625 429.3901672363281 1551.23681640625 429.3901672363281 1551.782836914062 L 429.3901672363281 1554.551879882812 L 435.4149780273438 1551.234741210938 C 435.56494140625 1551.149536132812 435.914794921875 1551.10400390625 436.0869750976562 1551.10400390625 L 438.9387817382812 1550.971923828125 C 440.0296630859375 1550.971923828125 441.07763671875 1549.614135742188 441.07763671875 1548.522705078125 L 441.07763671875 1540.608764648438 C 441.07763671875 1539.517578125 439.8831176757812 1538.199462890625 438.7922973632812 1538.199462890625 L 427.3347473144531 1538.199462890625 Z" stroke="none" fill="#438ed3"/>
      </g>
    </g>
    <circle id="Ellipse_13" data-name="Ellipse 13" cx="0.989" cy="0.989" r="0.989" transform="translate(-1589.092 4515.207)" fill="none" stroke="#438ed3" stroke-width="1"/>
    <circle id="Ellipse_14" data-name="Ellipse 14" cx="0.989" cy="0.989" r="0.989" transform="translate(-1584.788 4515.207)" fill="none" stroke="#438ed3" stroke-width="1"/>
    <path id="Path_3902" data-name="Path 3902" d="M449.387,1551.36a.989.989,0,1,1,.989.989A.989.989,0,0,1,449.387,1551.36Z" transform="translate(-2029.871 2964.836)" fill="none" stroke="#438ed3" stroke-width="1"/>
  </g>
</svg>
