<svg xmlns="http://www.w3.org/2000/svg" xmlns:xlink="http://www.w3.org/1999/xlink" width="40.604" height="34.953" viewBox="0 0 40.604 34.953">
  <defs>
    <filter id="Path_15166" x="0" y="0" width="40.604" height="34.953" filterUnits="userSpaceOnUse">
      <feOffset dy="3" input="SourceAlpha"/>
      <feGaussianBlur stdDeviation="3" result="blur"/>
      <feFlood flood-color="#fff" flood-opacity="0.251"/>
      <feComposite operator="in" in2="blur"/>
      <feComposite in="SourceGraphic"/>
    </filter>
    <filter id="Path_15167" x="6.357" y="4.238" width="27.889" height="27.889" filterUnits="userSpaceOnUse">
      <feOffset dy="3" input="SourceAlpha"/>
      <feGaussianBlur stdDeviation="3" result="blur-2"/>
      <feFlood flood-color="#fff" flood-opacity="0.161"/>
      <feComposite operator="in" in2="blur-2"/>
      <feComposite in="SourceGraphic"/>
    </filter>
  </defs>
  <g id="camera" transform="translate(9 6)">
    <g transform="matrix(1, 0, 0, 1, -9, -6)" filter="url(#Path_15166)">
      <path id="Path_15166-2" data-name="Path 15166" d="M21.192,18.628V10.151a1.413,1.413,0,0,0-1.413-1.413H18.123a4.238,4.238,0,0,1-3-1.242l-1.172-1.17a1.413,1.413,0,0,0-1-.414H9.646a1.413,1.413,0,0,0-1,.414L7.478,7.5a4.238,4.238,0,0,1-3,1.242H2.826a1.413,1.413,0,0,0-1.413,1.413v8.477A1.413,1.413,0,0,0,2.826,20.04H19.779A1.413,1.413,0,0,0,21.192,18.628ZM2.826,7.326A2.826,2.826,0,0,0,0,10.151v8.477a2.826,2.826,0,0,0,2.826,2.826H19.779A2.826,2.826,0,0,0,22.6,18.628V10.151a2.826,2.826,0,0,0-2.826-2.826H18.123a2.826,2.826,0,0,1-2-.828l-1.17-1.17a2.826,2.826,0,0,0-2-.828H9.646a2.826,2.826,0,0,0-2,.828L6.479,6.5a2.826,2.826,0,0,1-2,.828Z" transform="translate(9 1.5)" fill="#fff" fill-rule="evenodd"/>
    </g>
    <g transform="matrix(1, 0, 0, 1, -9, -6)" filter="url(#Path_15167)">
      <path id="Path_15167-2" data-name="Path 15167" d="M15.07,19.727a3.532,3.532,0,1,0-3.532-3.532A3.532,3.532,0,0,0,15.07,19.727Zm0,1.413a4.945,4.945,0,1,0-4.945-4.945A4.945,4.945,0,0,0,15.07,21.139Z" transform="translate(5.23 -1.01)" fill="#fff" fill-rule="evenodd"/>
    </g>
    <path id="Path_15168" data-name="Path 15168" d="M5.913,14.206a.706.706,0,1,1-.706-.706A.706.706,0,0,1,5.913,14.206Z" transform="translate(-1.674 -7.849)" fill="#fff"/>
  </g>
</svg>
