<svg xmlns="http://www.w3.org/2000/svg" xmlns:xlink="http://www.w3.org/1999/xlink" width="59" height="59" viewBox="0 0 59 59">
  <defs>
    <linearGradient id="linear-gradient" x1="0.5" x2="0.5" y2="1" gradientUnits="objectBoundingBox">
      <stop offset="0" stop-color="#48dbe1"/>
      <stop offset="1" stop-color="#4166cd"/>
      <stop offset="1" stop-color="#236b73"/>
    </linearGradient>
    <filter id="Path_14780" x="0" y="0" width="59" height="59" filterUnits="userSpaceOnUse">
      <feOffset dy="3" input="SourceAlpha"/>
      <feGaussianBlur stdDeviation="5" result="blur"/>
      <feFlood flood-opacity="0.09"/>
      <feComposite operator="in" in2="blur"/>
      <feComposite in="SourceGraphic"/>
    </filter>
  </defs>
  <g id="Component_36_2" data-name="Component 36 – 2" transform="translate(15 12)">
    <g transform="matrix(1, 0, 0, 1, -15, -12)" filter="url(#Path_14780)">
      <path id="Path_14780-2" data-name="Path 14780" d="M14.5,0A14.5,14.5,0,1,1,0,14.5,14.5,14.5,0,0,1,14.5,0Z" transform="translate(15 12)" fill="url(#linear-gradient)"/>
    </g>
    <g id="bxs-chat" transform="translate(3.417 4.884)">
      <path id="Path_14758" data-name="Path 14758" d="M4.617,18.7H6.233V22l4.124-3.3h3.96a1.618,1.618,0,0,0,1.617-1.617V10.617A1.618,1.618,0,0,0,14.317,9h-9.7A1.618,1.618,0,0,0,3,10.617v6.467A1.618,1.618,0,0,0,4.617,18.7Z" transform="translate(0 -2.767)" fill="#fff"/>
      <path id="Path_14759" data-name="Path 14759" d="M20.317,3h-9.7A1.618,1.618,0,0,0,9,4.617h9.7a1.618,1.618,0,0,1,1.617,1.617V12.7a1.618,1.618,0,0,0,1.617-1.617V4.617A1.618,1.618,0,0,0,20.317,3Z" transform="translate(-2.767 0)" fill="#fff"/>
    </g>
  </g>
</svg>
