<svg xmlns="http://www.w3.org/2000/svg" xmlns:xlink="http://www.w3.org/1999/xlink" width="51.236" height="49.719" viewBox="0 0 51.236 49.719">
  <defs>
    <linearGradient id="linear-gradient" x1="0.5" x2="0.5" y2="1" gradientUnits="objectBoundingBox">
      <stop offset="0" stop-color="#48dbe1"/>
      <stop offset="1" stop-color="#4166cd"/>
      <stop offset="1" stop-color="#236b73"/>
    </linearGradient>
    <filter id="Path_15238" x="0" y="0" width="51.236" height="49.719" filterUnits="userSpaceOnUse">
      <feOffset dy="3" input="SourceAlpha"/>
      <feGaussianBlur stdDeviation="5" result="blur"/>
      <feFlood flood-opacity="0.09"/>
      <feComposite operator="in" in2="blur"/>
      <feComposite in="SourceGraphic"/>
    </filter>
    <filter id="Path_15239" x="4.551" y="4.551" width="42.135" height="31.517" filterUnits="userSpaceOnUse">
      <feOffset dy="3" input="SourceAlpha"/>
      <feGaussianBlur stdDeviation="5" result="blur-2"/>
      <feFlood flood-opacity="0.09"/>
      <feComposite operator="in" in2="blur-2"/>
      <feComposite in="SourceGraphic"/>
    </filter>
    <filter id="Path_15240" x="4.551" y="9.102" width="37.584" height="31.517" filterUnits="userSpaceOnUse">
      <feOffset dy="3" input="SourceAlpha"/>
      <feGaussianBlur stdDeviation="5" result="blur-3"/>
      <feFlood flood-opacity="0.09"/>
      <feComposite operator="in" in2="blur-3"/>
      <feComposite in="SourceGraphic"/>
    </filter>
  </defs>
  <g id="Group_17526" data-name="Group 17526" transform="translate(16828.629 157.102)">
    <g transform="matrix(1, 0, 0, 1, -16828.63, -157.1)" filter="url(#Path_15238)">
      <path id="Path_15238-2" data-name="Path 15238" d="M14.188,24.219l-1.319-.758L15.9,18.152h4.551a1.517,1.517,0,0,0,1.517-1.517v-9.1a1.517,1.517,0,0,0-1.517-1.517H5.284A1.517,1.517,0,0,0,3.767,7.534v9.1a1.517,1.517,0,0,0,1.517,1.517H12.11v1.517H5.284A3.034,3.034,0,0,1,2.25,16.635v-9.1A3.034,3.034,0,0,1,5.284,4.5H20.453a3.034,3.034,0,0,1,3.034,3.034v9.1a3.034,3.034,0,0,1-3.034,3.034H16.782Z" transform="translate(12.75 7.5)" fill="url(#linear-gradient)"/>
    </g>
    <g transform="matrix(1, 0, 0, 1, -16828.63, -157.1)" filter="url(#Path_15239)">
      <path id="Path_15239-2" data-name="Path 15239" d="M9,11.25H21.135v1.517H9Z" transform="translate(10.55 5.3)" fill="url(#linear-gradient)"/>
    </g>
    <g transform="matrix(1, 0, 0, 1, -16828.63, -157.1)" filter="url(#Path_15240)">
      <path id="Path_15240-2" data-name="Path 15240" d="M9,18h7.584v1.517H9Z" transform="translate(10.55 3.1)" fill="url(#linear-gradient)"/>
    </g>
  </g>
</svg>
