<svg xmlns="http://www.w3.org/2000/svg" xmlns:xlink="http://www.w3.org/1999/xlink" width="47.489" height="43.743" viewBox="0 0 47.489 43.743">
  <defs>
    <linearGradient id="linear-gradient" x1="0.5" x2="0.5" y2="1" gradientUnits="objectBoundingBox">
      <stop offset="0" stop-color="#48dbe1"/>
      <stop offset="1" stop-color="#4166cd"/>
      <stop offset="1" stop-color="#236b73"/>
    </linearGradient>
    <filter id="comments-o" x="0" y="0" width="47.489" height="43.743" filterUnits="userSpaceOnUse">
      <feOffset dy="3" input="SourceAlpha"/>
      <feGaussianBlur stdDeviation="5" result="blur"/>
      <feFlood flood-opacity="0.09"/>
      <feComposite operator="in" in2="blur"/>
      <feComposite in="SourceGraphic"/>
    </filter>
  </defs>
  <g transform="matrix(1, 0, 0, 1, 0, 0)" filter="url(#comments-o)">
    <path id="comments-o-2" data-name="comments-o" d="M6.871,1.249a7.6,7.6,0,0,0-2.792.508A5.231,5.231,0,0,0,2.015,3.133,2.773,2.773,0,0,0,1.249,5a2.659,2.659,0,0,0,.517,1.542A4.492,4.492,0,0,0,3.221,7.828l.947.547-.342.82q.332-.2.605-.38l.429-.3.517.1a8.451,8.451,0,0,0,1.493.137,7.6,7.6,0,0,0,2.792-.508,5.231,5.231,0,0,0,2.064-1.376A2.773,2.773,0,0,0,12.494,5a2.773,2.773,0,0,0-.766-1.864A5.23,5.23,0,0,0,9.662,1.757a7.6,7.6,0,0,0-2.792-.508ZM6.871,0a8.794,8.794,0,0,1,3.45.669,6.191,6.191,0,0,1,2.5,1.82,3.888,3.888,0,0,1,0,5.017,6.2,6.2,0,0,1-2.5,1.82,8.784,8.784,0,0,1-3.45.668,9.817,9.817,0,0,1-1.718-.156A8.2,8.2,0,0,1,2.44,11.087a8.13,8.13,0,0,1-.84.156H1.571a.3.3,0,0,1-.2-.078.322.322,0,0,1-.112-.205.2.2,0,0,1-.01-.064.388.388,0,0,1,0-.064.212.212,0,0,1,.019-.059l.024-.049.034-.053.039-.049.044-.049.039-.044q.049-.059.224-.244A3.694,3.694,0,0,0,1.931,10q.078-.1.22-.283a2.414,2.414,0,0,0,.244-.376q.1-.2.2-.429a5.709,5.709,0,0,1-1.9-1.727A3.829,3.829,0,0,1,0,5,3.943,3.943,0,0,1,.917,2.489a6.2,6.2,0,0,1,2.5-1.82A8.794,8.794,0,0,1,6.871,0Zm8.023,11.409q.1.234.2.429a2.462,2.462,0,0,0,.244.376q.141.18.22.283t.254.288q.175.185.224.244l.039.044q.029.034.044.049a.414.414,0,0,1,.039.049.438.438,0,0,1,.034.053l.024.049.019.059,0,.064-.01.064a.362.362,0,0,1-.127.215.294.294,0,0,1-.215.069,8.342,8.342,0,0,1-.84-.156,8.216,8.216,0,0,1-2.713-1.249,9.818,9.818,0,0,1-1.718.156A8.2,8.2,0,0,1,6.011,11.2q.566.039.859.039A10.313,10.313,0,0,0,9.886,10.8a8.633,8.633,0,0,0,2.577-1.259,6.529,6.529,0,0,0,1.874-2.069,5.023,5.023,0,0,0,.429-3.963A5.776,5.776,0,0,1,16.757,5.25,3.81,3.81,0,0,1,16.8,9.686,5.733,5.733,0,0,1,14.894,11.409Z" transform="translate(15 12)" fill="url(#linear-gradient)"/>
  </g>
</svg>
