<svg xmlns="http://www.w3.org/2000/svg" width="16.117" height="12.879" viewBox="0 0 16.117 12.879">
  <path id="comments-o" d="M5.939,1.08a6.566,6.566,0,0,0-2.413.439,4.522,4.522,0,0,0-1.784,1.19A2.4,2.4,0,0,0,1.08,4.32a2.3,2.3,0,0,0,.447,1.333A3.883,3.883,0,0,0,2.784,6.766l.818.472-.3.709q.287-.169.523-.329L4.2,7.357l.447.084a7.3,7.3,0,0,0,1.291.118,6.566,6.566,0,0,0,2.413-.439,4.522,4.522,0,0,0,1.784-1.19A2.4,2.4,0,0,0,10.8,4.32a2.4,2.4,0,0,0-.662-1.611,4.521,4.521,0,0,0-1.785-1.19A6.57,6.57,0,0,0,5.939,1.08Zm0-1.08A7.6,7.6,0,0,1,8.922.578a5.352,5.352,0,0,1,2.164,1.574,3.361,3.361,0,0,1,0,4.336A5.359,5.359,0,0,1,8.921,8.061a7.593,7.593,0,0,1-2.982.577A8.486,8.486,0,0,1,4.454,8.5a7.09,7.09,0,0,1-2.345,1.08,7.028,7.028,0,0,1-.726.135H1.358a.264.264,0,0,1-.173-.068.279.279,0,0,1-.1-.177.173.173,0,0,1-.008-.055.335.335,0,0,1,0-.055A.183.183,0,0,1,1.1,9.313l.021-.042.029-.046.034-.042.038-.042L1.256,9.1q.042-.051.194-.211a3.193,3.193,0,0,0,.219-.249q.067-.089.19-.245a2.087,2.087,0,0,0,.211-.325q.088-.169.173-.371A4.935,4.935,0,0,1,.6,6.209,3.31,3.31,0,0,1,0,4.32,3.408,3.408,0,0,1,.793,2.151,5.355,5.355,0,0,1,2.957.578,7.6,7.6,0,0,1,5.939,0Zm6.935,9.862q.084.2.173.371a2.128,2.128,0,0,0,.211.325q.122.156.19.245t.219.249q.152.16.194.211l.034.038.038.042a.358.358,0,0,1,.034.042A.379.379,0,0,1,14,11.43l.021.042.017.051,0,.055-.008.055a.313.313,0,0,1-.11.186.254.254,0,0,1-.186.059,7.211,7.211,0,0,1-.726-.135,7.1,7.1,0,0,1-2.345-1.08,8.486,8.486,0,0,1-1.485.135A7.088,7.088,0,0,1,5.2,9.685q.489.034.742.034a8.914,8.914,0,0,0,2.607-.38A7.462,7.462,0,0,0,10.772,8.25a5.644,5.644,0,0,0,1.62-1.789,4.342,4.342,0,0,0,.371-3.425,4.993,4.993,0,0,1,1.721,1.5,3.293,3.293,0,0,1,.034,3.835A4.955,4.955,0,0,1,12.874,9.862Z" transform="translate(0.5 0.5)" fill="#fff" stroke="rgba(0,0,0,0)" stroke-width="1"/>
</svg>
