<svg xmlns="http://www.w3.org/2000/svg" width="46.449" height="21.269" viewBox="0 0 46.449 21.269">
  <g id="Group_17434" data-name="Group 17434" transform="translate(-15.398 -23.855)">
    <path id="advertising" d="M28.5,5.238l-1.2.352L5.823,12.123H2.25v7.5H5.825l1.845.557-.028.088v.03a3.871,3.871,0,0,0,2.578,4.8c.009,0,.021,0,.028,0a3.85,3.85,0,0,0,4.806-2.578l.028-.088L27.3,26.156l1.2.351V5.238Zm-1.875,2.52v16.23L6.263,17.777l-.115-.028H4.125V14H6.146l.118-.028L26.626,7.757ZM9.457,20.736,13.3,21.88l-.028.087V22a2,2,0,0,1-3.838-1.142v-.028l.028-.089Z" transform="translate(13.148 18.617)" fill="#459fd4"/>
    <path id="Path_42786" data-name="Path 42786" d="M10.531,19.067,5.219,13.755l-1.809,1.8,7.121,7.121L25.816,7.386l-1.8-1.8Z" transform="translate(36.031 18.893)" fill="#227d1e"/>
  </g>
</svg>
