<svg xmlns="http://www.w3.org/2000/svg" width="22.001" height="22" viewBox="0 0 22.001 22">
  <path id="coupon" d="M19.264,19.249l.236.172a.673.673,0,0,0-.236.516.7.7,0,0,0,.688.688H21.09l.365.28A2.631,2.631,0,0,1,19.264,22H2.765A2.651,2.651,0,0,1,.82,21.194a2.644,2.644,0,0,1-.8-1.945V2.75A2.651,2.651,0,0,1,.821.806,2.647,2.647,0,0,1,2.765,0h16.5a2.629,2.629,0,0,1,2.191,1.1l-.365.28H19.953a.659.659,0,0,0-.483.2.664.664,0,0,0-.2.483.673.673,0,0,0,.236.516l-.236.172,2.75,2.063-2.75,2.063,2.75,2.063L19.265,11l2.75,2.063-2.75,2.063,2.75,2.063ZM11.7,20.624h1.375a.688.688,0,0,0,0-1.375H11.7a.688.688,0,0,0,0,1.375ZM15.14,16.5a2.75,2.75,0,0,0,2.75-2.75A2.75,2.75,0,0,0,13.2,11.805a2.75,2.75,0,0,0,0,3.889A2.651,2.651,0,0,0,15.14,16.5ZM7.577,20.624H8.952a.688.688,0,0,0,0-1.375H7.577a.688.688,0,0,0,0,1.375Zm-4.125,0H4.828a.688.688,0,0,0,0-1.375H3.453a.688.688,0,0,0,0,1.375ZM1.39,17.874a.659.659,0,0,0,.2.483.674.674,0,0,0,.966,0,.662.662,0,0,0,.2-.483V16.5a.659.659,0,0,0-.2-.483.674.674,0,0,0-.966,0,.662.662,0,0,0-.2.483v1.375Zm0-4.125a.659.659,0,0,0,.2.483.674.674,0,0,0,.966,0,.662.662,0,0,0,.2-.483V12.375a.659.659,0,0,0-.2-.483.674.674,0,0,0-.966,0,.662.662,0,0,0-.2.483V13.75Zm0-4.125a.659.659,0,0,0,.2.483.674.674,0,0,0,.966,0,.662.662,0,0,0,.2-.483V8.25a.659.659,0,0,0-.2-.483.674.674,0,0,0-.966,0,.662.662,0,0,0-.2.483V9.625Zm.688-6.187a.7.7,0,0,0-.688.688V5.5a.659.659,0,0,0,.2.483.674.674,0,0,0,.966,0,.662.662,0,0,0,.2-.483V4.125a.659.659,0,0,0-.2-.483.664.664,0,0,0-.483-.2Zm2.75-2.063H3.453a.659.659,0,0,0-.483.2.674.674,0,0,0,0,.966.662.662,0,0,0,.483.2H4.828a.659.659,0,0,0,.483-.2.674.674,0,0,0,0-.966.662.662,0,0,0-.483-.2Zm4.125,0H7.577a.659.659,0,0,0-.483.2.674.674,0,0,0,0,.966.662.662,0,0,0,.483.2H8.952a.659.659,0,0,0,.483-.2.674.674,0,0,0,0-.966.662.662,0,0,0-.483-.2ZM8.265,5.5a2.75,2.75,0,0,0-2.75,2.75A2.75,2.75,0,0,0,8.265,11a2.75,2.75,0,0,0,2.75-2.75A2.75,2.75,0,0,0,8.265,5.5Zm4.812-4.125H11.7a.659.659,0,0,0-.483.2.674.674,0,0,0,0,.966.662.662,0,0,0,.483.2h1.375a.659.659,0,0,0,.483-.2.674.674,0,0,0,0-.966A.662.662,0,0,0,13.077,1.375ZM14.828,5.6a.606.606,0,0,0-.483-.075.645.645,0,0,0-.408.322L8.351,15.49a.707.707,0,0,0-.064.516.63.63,0,0,0,.3.419.6.6,0,0,0,.494.064.622.622,0,0,0,.387-.311L15.075,6.51a.649.649,0,0,0,.054-.5.675.675,0,0,0-.3-.408ZM17.2,1.375H15.827a.659.659,0,0,0-.483.2.674.674,0,0,0,0,.966.662.662,0,0,0,.483.2H17.2a.659.659,0,0,0,.483-.2.674.674,0,0,0,0-.966.662.662,0,0,0-.483-.2Zm0,17.874H15.827a.688.688,0,0,0,0,1.375H17.2a.688.688,0,0,0,0-1.375ZM8.276,9.624A1.393,1.393,0,0,1,6.89,8.239,1.3,1.3,0,0,1,7.3,7.272a1.354,1.354,0,0,1,.977-.4A1.358,1.358,0,0,1,9.64,8.239a1.35,1.35,0,0,1-.4.977,1.294,1.294,0,0,1-.966.408Zm6.875,2.75a1.358,1.358,0,0,1,1.364,1.364,1.349,1.349,0,0,1-.4.977,1.3,1.3,0,0,1-.966.408,1.339,1.339,0,0,1-.977-.408,1.326,1.326,0,0,1-.408-.977,1.3,1.3,0,0,1,.408-.966A1.355,1.355,0,0,1,15.151,12.375Z" transform="translate(-0.015)" fill="#fff"/>
</svg>
