<svg xmlns="http://www.w3.org/2000/svg" xmlns:xlink="http://www.w3.org/1999/xlink" width="19.984" height="19.65" viewBox="0 0 19.984 19.65">
  <defs>
    <linearGradient id="linear-gradient" x1="0.5" x2="0.5" y2="1" gradientUnits="objectBoundingBox">
      <stop offset="0" stop-color="#48dbe1"/>
      <stop offset="1" stop-color="#4166cd"/>
      <stop offset="1" stop-color="#236b73"/>
    </linearGradient>
  </defs>
  <path id="coupon" d="M16.334,16.319l.2.146a.57.57,0,0,0-.2.437.592.592,0,0,0,.583.583h.965l.31.237a2.23,2.23,0,0,1-1.857.929H2.346A2.247,2.247,0,0,1,.7,17.967a2.242,2.242,0,0,1-.682-1.649V2.331A2.247,2.247,0,0,1,.7.683,2.244,2.244,0,0,1,2.346,0H16.334a2.229,2.229,0,0,1,1.857.929l-.31.237h-.965a.559.559,0,0,0-.41.173.563.563,0,0,0-.173.41.57.57,0,0,0,.2.437l-.2.146L18.666,4.08,16.334,5.829l2.331,1.749L16.334,9.326l2.331,1.749-2.331,1.749,2.331,1.749ZM9.923,17.484h1.166a.583.583,0,0,0,0-1.166H9.923a.583.583,0,0,0,0,1.166Zm2.914-3.5a2.332,2.332,0,0,0,2.331-2.331,2.331,2.331,0,0,0-3.98-1.649,2.331,2.331,0,0,0,0,3.3A2.247,2.247,0,0,0,12.837,13.988Zm-6.411,3.5H7.592a.583.583,0,0,0,0-1.166H6.426a.583.583,0,0,0,0,1.166Zm-3.5,0H4.1a.583.583,0,0,0,0-1.166H2.929a.583.583,0,0,0,0,1.166ZM1.181,15.153a.559.559,0,0,0,.173.41.571.571,0,0,0,.819,0,.561.561,0,0,0,.173-.41V13.987a.559.559,0,0,0-.173-.41.571.571,0,0,0-.819,0,.561.561,0,0,0-.173.41v1.166Zm0-3.5a.559.559,0,0,0,.173.41.571.571,0,0,0,.819,0,.561.561,0,0,0,.173-.41V10.491a.559.559,0,0,0-.173-.41.571.571,0,0,0-.819,0,.561.561,0,0,0-.173.41v1.166Zm0-3.5a.559.559,0,0,0,.173.41.571.571,0,0,0,.819,0,.561.561,0,0,0,.173-.41V6.994a.559.559,0,0,0-.173-.41.571.571,0,0,0-.819,0,.561.561,0,0,0-.173.41V8.16Zm.583-5.245a.592.592,0,0,0-.583.583V4.663a.559.559,0,0,0,.173.41.571.571,0,0,0,.819,0,.561.561,0,0,0,.173-.41V3.5a.559.559,0,0,0-.173-.41.563.563,0,0,0-.41-.173ZM4.1,1.166H2.929a.559.559,0,0,0-.41.173.571.571,0,0,0,0,.819.561.561,0,0,0,.41.173H4.1a.559.559,0,0,0,.41-.173.571.571,0,0,0,0-.819.561.561,0,0,0-.41-.173Zm3.5,0H6.426a.559.559,0,0,0-.41.173.571.571,0,0,0,0,.819.561.561,0,0,0,.41.173H7.592A.559.559,0,0,0,8,2.158a.571.571,0,0,0,0-.819.561.561,0,0,0-.41-.173Zm-.583,3.5A2.332,2.332,0,0,0,4.677,6.994,2.332,2.332,0,0,0,7.009,9.325,2.332,2.332,0,0,0,9.34,6.994,2.332,2.332,0,0,0,7.009,4.662Zm4.08-3.5H9.923a.559.559,0,0,0-.41.173.571.571,0,0,0,0,.819.561.561,0,0,0,.41.173h1.166a.559.559,0,0,0,.41-.173.571.571,0,0,0,0-.819A.561.561,0,0,0,11.088,1.166Zm1.484,3.579a.514.514,0,0,0-.41-.064.547.547,0,0,0-.346.273L7.081,13.132a.6.6,0,0,0-.054.437.534.534,0,0,0,.255.355.511.511,0,0,0,.419.054.527.527,0,0,0,.328-.264l4.754-8.2a.55.55,0,0,0,.046-.428.572.572,0,0,0-.255-.346Zm2.013-3.579H13.42a.559.559,0,0,0-.41.173.571.571,0,0,0,0,.819.561.561,0,0,0,.41.173h1.166A.559.559,0,0,0,15,2.158a.571.571,0,0,0,0-.819.561.561,0,0,0-.41-.173Zm0,15.153H13.42a.583.583,0,0,0,0,1.166h1.166a.583.583,0,0,0,0-1.166ZM7.018,8.159A1.181,1.181,0,0,1,5.844,6.985a1.1,1.1,0,0,1,.346-.819,1.148,1.148,0,0,1,.829-.337A1.151,1.151,0,0,1,8.175,6.985a1.145,1.145,0,0,1-.337.829,1.1,1.1,0,0,1-.819.346Zm5.828,2.331A1.151,1.151,0,0,1,14,11.647a1.144,1.144,0,0,1-.337.829,1.1,1.1,0,0,1-.819.346,1.135,1.135,0,0,1-.829-.346,1.124,1.124,0,0,1-.346-.829,1.1,1.1,0,0,1,.346-.819A1.149,1.149,0,0,1,12.846,10.491Z" transform="translate(0.484 0.5)" stroke="rgba(0,0,0,0)" stroke-width="1" fill="url(#linear-gradient)"/>
</svg>
