<svg xmlns="http://www.w3.org/2000/svg" xmlns:xlink="http://www.w3.org/1999/xlink" width="49.159" height="49.159" viewBox="0 0 49.159 49.159">
  <defs>
    <filter id="android-checkmark-circle" x="0" y="0" width="49.159" height="49.159" filterUnits="userSpaceOnUse">
      <feOffset dy="3" input="SourceAlpha"/>
      <feGaussianBlur stdDeviation="5" result="blur"/>
      <feFlood flood-opacity="0.09"/>
      <feComposite operator="in" in2="blur"/>
      <feComposite in="SourceGraphic"/>
    </filter>
    <filter id="add-fill" x="0.292" y="0.807" width="47.671" height="47.671" filterUnits="userSpaceOnUse">
      <feOffset dy="3" input="SourceAlpha"/>
      <feGaussianBlur stdDeviation="5" result="blur-2"/>
      <feFlood flood-opacity="0.09"/>
      <feComposite operator="in" in2="blur-2"/>
      <feComposite in="SourceGraphic"/>
    </filter>
  </defs>
  <g id="Group_17446" data-name="Group 17446" transform="translate(5437.532 -7127.418)">
    <g transform="matrix(1, 0, 0, 1, -5437.53, 7127.42)" filter="url(#android-checkmark-circle)">
      <path id="android-checkmark-circle-2" data-name="android-checkmark-circle" d="M12,14.056Zm8.622-1.1a7.631,7.631,0,1,1-5.556-7.376l1.484-1.485a8.91,8.91,0,0,0-3.592-.719,9.579,9.579,0,1,0,9.579,9.579Z" transform="translate(11.63 8.63)" fill="#f63535"/>
    </g>
    <g transform="matrix(1, 0, 0, 1, -5437.53, 7127.42)" filter="url(#add-fill)">
      <path id="add-fill-2" data-name="add-fill" d="M5.355,5.355V0H7.14V5.355H12.5V7.14H7.14V12.5H5.355V7.14H0V5.355Z" transform="translate(15.29 21.64) rotate(-45)" fill="#f63535"/>
    </g>
  </g>
</svg>
