<svg xmlns="http://www.w3.org/2000/svg" xmlns:xlink="http://www.w3.org/1999/xlink" width="46.256" height="50.49" viewBox="0 0 46.256 50.49">
  <defs>
    <filter id="Path_14327" x="0" y="0" width="46.256" height="50.49" filterUnits="userSpaceOnUse">
      <feOffset dy="3" input="SourceAlpha"/>
      <feGaussianBlur stdDeviation="5" result="blur"/>
      <feFlood flood-opacity="0.09"/>
      <feComposite operator="in" in2="blur"/>
      <feComposite in="SourceGraphic"/>
    </filter>
  </defs>
  <g transform="matrix(1, 0, 0, 1, 0, 0)" filter="url(#Path_14327)">
    <path id="Path_14327-2" data-name="Path 14327" d="M10.961,19.209a2.027,2.027,0,0,0,2.487,1.851l.34-.085a1.8,1.8,0,0,0,1.319-1.258,12.212,12.212,0,0,0,.081-5.878c.177.026.371.048.578.067a8.341,8.341,0,0,0,3.28-.275,2.706,2.706,0,0,0,1.564-1.658,2.471,2.471,0,0,0-.305-2.26,2.847,2.847,0,0,0,.18-.472,4.308,4.308,0,0,0,0-2.233,2.729,2.729,0,0,0-.209-.525,2.119,2.119,0,0,0,0-1.5,4.121,4.121,0,0,0-.636-1.173,1.834,1.834,0,0,0,.1-.606,2.424,2.424,0,0,0-.33-1.189A2.809,2.809,0,0,0,16.884.63v1.3a1.518,1.518,0,0,1,1.39.73,1.125,1.125,0,0,1,.158.542.344.344,0,0,1-.052.222l-.461.46.46.461A2.9,2.9,0,0,1,19.037,5.4c.136.407.056.574-.006.636l-.46.46.46.461a.968.968,0,0,1,.2.411,2.981,2.981,0,0,1,0,1.515,1,1,0,0,1-.2.411l-.46.46.46.461a1.213,1.213,0,0,1,.348,1.331,1.427,1.427,0,0,1-.745.849,7.076,7.076,0,0,1-2.75.214,11.613,11.613,0,0,1-1.426-.222l-.019-.005h-.005a.652.652,0,0,0-.776.838,10.869,10.869,0,0,1,.189,6.159.49.49,0,0,1-.375.333l-.342.086a.724.724,0,0,1-.87-.677,15.773,15.773,0,0,0-.629-3.715,8.35,8.35,0,0,0-1.614-2.577A7.245,7.245,0,0,0,6.612,10.6.988.988,0,0,1,5.8,9.754V4.539a.764.764,0,0,1,.721-.717A6.88,6.88,0,0,0,9.772,2.689l.052-.031a5.035,5.035,0,0,1,1.012-.512,4.442,4.442,0,0,1,1.486-.213h4.563V.63H12.322a5.736,5.736,0,0,0-1.911.283,6.288,6.288,0,0,0-1.265.632l-.063.038a5.578,5.578,0,0,1-2.7.943A2.066,2.066,0,0,0,4.5,4.539V9.753a2.278,2.278,0,0,0,1.769,2.106A5.955,5.955,0,0,1,9.048,13.7,7.137,7.137,0,0,1,10.4,15.831a14.569,14.569,0,0,1,.558,3.377Z" transform="translate(10.5 11.37)" fill="#636363"/>
  </g>
</svg>
