<svg id="dollar-bill-line" xmlns="http://www.w3.org/2000/svg" width="38.789" height="24.243" viewBox="0 0 38.789 24.243">
  <path id="Path_42590" data-name="Path 42590" d="M38.364,8H4.424A2.424,2.424,0,0,0,2,10.424V29.819a2.424,2.424,0,0,0,2.424,2.424h33.94a2.424,2.424,0,0,0,2.424-2.424V10.424A2.424,2.424,0,0,0,38.364,8Zm0,7.273a5.152,5.152,0,0,1-4.727-4.849h4.727Zm0,1.964v5.855a7.115,7.115,0,0,0-6.679,6.727H11.079a7.115,7.115,0,0,0-6.655-6.74V17.212A7.115,7.115,0,0,0,11.1,10.424H31.71a7.115,7.115,0,0,0,6.655,6.788ZM9.152,10.424a5.152,5.152,0,0,1-4.727,4.849V10.424ZM4.424,25.043a5.152,5.152,0,0,1,4.727,4.776H4.424Zm29.213,4.776a5.152,5.152,0,0,1,4.727-4.776v4.776Z" transform="translate(-2 -8)" fill="#459fd4"/>
  <path id="Path_42591" data-name="Path 42591" d="M19.337,10.85c-4.206,0-7.637,3.891-7.637,8.667s3.43,8.667,7.637,8.667,7.637-3.891,7.637-8.667S23.543,10.85,19.337,10.85Zm0,15.382c-3.139,0-5.7-3.018-5.7-6.727s2.558-6.727,5.7-6.727,5.7,3.018,5.7,6.727-2.558,6.74-5.7,6.74Z" transform="translate(0.058 -7.395)" fill="#459fd4"/>
</svg>
