<svg xmlns="http://www.w3.org/2000/svg" xmlns:xlink="http://www.w3.org/1999/xlink" width="45" height="35.6" viewBox="0 0 45 35.6">
  <defs>
    <filter id="Rectangle" x="1" y="0" width="44" height="20.2" filterUnits="userSpaceOnUse">
      <feOffset dy="3" input="SourceAlpha"/>
      <feGaussianBlur stdDeviation="3" result="blur"/>
      <feFlood flood-opacity="0.161"/>
      <feComposite operator="in" in2="blur"/>
      <feComposite in="SourceGraphic"/>
    </filter>
    <filter id="Rectangle_Copy" x="1" y="7.2" width="44" height="20.2" filterUnits="userSpaceOnUse">
      <feOffset dy="3" input="SourceAlpha"/>
      <feGaussianBlur stdDeviation="3" result="blur-2"/>
      <feFlood flood-opacity="0.161"/>
      <feComposite operator="in" in2="blur-2"/>
      <feComposite in="SourceGraphic"/>
    </filter>
    <filter id="Rectangle_Copy_2" x="11" y="14.4" width="34" height="20.2" filterUnits="userSpaceOnUse">
      <feOffset dy="3" input="SourceAlpha"/>
      <feGaussianBlur stdDeviation="3" result="blur-3"/>
      <feFlood flood-opacity="0.161"/>
      <feComposite operator="in" in2="blur-3"/>
      <feComposite in="SourceGraphic"/>
    </filter>
    <filter id="Rectangle-2" x="0" y="1" width="44" height="20.2" filterUnits="userSpaceOnUse">
      <feOffset dy="3" input="SourceAlpha"/>
      <feGaussianBlur stdDeviation="3" result="blur-4"/>
      <feFlood flood-opacity="0.161"/>
      <feComposite operator="in" in2="blur-4"/>
      <feComposite in="SourceGraphic"/>
    </filter>
    <filter id="Rectangle_Copy-2" x="0" y="8.2" width="44" height="20.2" filterUnits="userSpaceOnUse">
      <feOffset dy="3" input="SourceAlpha"/>
      <feGaussianBlur stdDeviation="3" result="blur-5"/>
      <feFlood flood-opacity="0.161"/>
      <feComposite operator="in" in2="blur-5"/>
      <feComposite in="SourceGraphic"/>
    </filter>
    <filter id="Rectangle_Copy_2-2" x="10" y="15.4" width="34" height="20.2" filterUnits="userSpaceOnUse">
      <feOffset dy="3" input="SourceAlpha"/>
      <feGaussianBlur stdDeviation="3" result="blur-6"/>
      <feFlood flood-opacity="0.161"/>
      <feComposite operator="in" in2="blur-6"/>
      <feComposite in="SourceGraphic"/>
    </filter>
  </defs>
  <g id="Nav" transform="translate(9 6)">
    <g id="ico_menu" transform="translate(1)">
      <g transform="matrix(1, 0, 0, 1, -10, -6)" filter="url(#Rectangle)">
        <rect id="Rectangle-3" data-name="Rectangle" width="26" height="2.2" rx="1.1" transform="translate(10 6)" fill="#fff"/>
      </g>
      <g transform="matrix(1, 0, 0, 1, -10, -6)" filter="url(#Rectangle_Copy)">
        <rect id="Rectangle_Copy-3" data-name="Rectangle Copy" width="26" height="2.2" rx="1.1" transform="translate(10 13.2)" fill="#fff"/>
      </g>
      <g transform="matrix(1, 0, 0, 1, -10, -6)" filter="url(#Rectangle_Copy_2)">
        <rect id="Rectangle_Copy_2-3" data-name="Rectangle Copy 2" width="16" height="2.2" rx="1.1" transform="translate(20 20.4)" fill="#fff"/>
      </g>
    </g>
    <g id="ico_menu-2" data-name="ico_menu" transform="translate(0 1)" opacity="0.2">
      <g transform="matrix(1, 0, 0, 1, -9, -7)" filter="url(#Rectangle-2)">
        <rect id="Rectangle-4" data-name="Rectangle" width="26" height="2.2" rx="1.1" transform="translate(9 7)" fill="#fff"/>
      </g>
      <g transform="matrix(1, 0, 0, 1, -9, -7)" filter="url(#Rectangle_Copy-2)">
        <rect id="Rectangle_Copy-4" data-name="Rectangle Copy" width="26" height="2.2" rx="1.1" transform="translate(9 14.2)" fill="#fff"/>
      </g>
      <g transform="matrix(1, 0, 0, 1, -9, -7)" filter="url(#Rectangle_Copy_2-2)">
        <rect id="Rectangle_Copy_2-4" data-name="Rectangle Copy 2" width="16" height="2.2" rx="1.1" transform="translate(19 21.4)" fill="#fff"/>
      </g>
    </g>
  </g>
</svg>
