<svg xmlns="http://www.w3.org/2000/svg" xmlns:xlink="http://www.w3.org/1999/xlink" width="20.059" height="20.059" viewBox="0 0 20.059 20.059">
  <defs>
    <linearGradient id="linear-gradient" x1="0.5" x2="0.5" y2="1" gradientUnits="objectBoundingBox">
      <stop offset="0" stop-color="#48dbe1"/>
      <stop offset="1" stop-color="#4166cd"/>
      <stop offset="1" stop-color="#236b73"/>
    </linearGradient>
  </defs>
  <path id="dribbblealt" d="M14.294,9.529a14.508,14.508,0,0,0-2.7.26,21.98,21.98,0,0,0-1.136-2.68,12.174,12.174,0,0,0,3.08-2.066,9.858,9.858,0,0,0,2.132-2.792A9.588,9.588,0,0,1,18.156,5.49a9.288,9.288,0,0,1,.9,4.039q0,.354-.037.838A13.553,13.553,0,0,0,14.294,9.529ZM9.883,6.068A12.921,12.921,0,0,0,5.137,1.079a9.507,9.507,0,0,1,9.566.447,9.079,9.079,0,0,1-1.945,2.624A10.4,10.4,0,0,1,9.883,6.068ZM8.8,6.477a12.363,12.363,0,0,1-4.039.67A12.374,12.374,0,0,1,.54,6.4a9.4,9.4,0,0,1,3.406-4.6A11.044,11.044,0,0,1,8.8,6.477ZM4.765,8.338a13.375,13.375,0,0,0,4.616-.8,23.512,23.512,0,0,1,1.079,2.531,12.08,12.08,0,0,0-4.606,2.457A10.119,10.119,0,0,0,3,16.453,9.446,9.446,0,0,1,0,9.529,9.772,9.772,0,0,1,.2,7.538,13.527,13.527,0,0,0,4.765,8.338ZM10.814,11.2a27.443,27.443,0,0,1,1.079,7.538,9.3,9.3,0,0,1-7.91-1.489A8.506,8.506,0,0,1,6.5,13.531,11.114,11.114,0,0,1,10.814,11.2Zm1.154-.26a12.391,12.391,0,0,1,6.868.633A9.316,9.316,0,0,1,16.8,15.69a9.412,9.412,0,0,1-3.713,2.68,28.459,28.459,0,0,0-1.117-7.426Z" transform="translate(0.5 0.5)" stroke="rgba(0,0,0,0)" stroke-width="1" fill="url(#linear-gradient)"/>
</svg>
