<svg xmlns="http://www.w3.org/2000/svg" xmlns:xlink="http://www.w3.org/1999/xlink" width="45.486" height="39.278" viewBox="0 0 45.486 39.278">
  <defs>
    <linearGradient id="linear-gradient" x1="0.5" x2="0.5" y2="1" gradientUnits="objectBoundingBox">
      <stop offset="0" stop-color="#48dbe1"/>
      <stop offset="1" stop-color="#4166cd"/>
      <stop offset="1" stop-color="#236b73"/>
    </linearGradient>
    <filter id="eye-open" x="0" y="0" width="45.486" height="39.278" filterUnits="userSpaceOnUse">
      <feOffset dy="3" input="SourceAlpha"/>
      <feGaussianBlur stdDeviation="5" result="blur"/>
      <feFlood flood-opacity="0.09"/>
      <feComposite operator="in" in2="blur"/>
      <feComposite in="SourceGraphic"/>
    </filter>
  </defs>
  <g transform="matrix(1, 0, 0, 1, 0, 0)" filter="url(#eye-open)">
    <path id="eye-open-2" data-name="eye-open" d="M10.064,11.854a2.278,2.278,0,0,1-2.325,2.227,2.23,2.23,0,1,1,0-4.455A2.278,2.278,0,0,1,10.064,11.854ZM7.743,7.216a9.5,9.5,0,0,0-4.012.949A10.206,10.206,0,0,0,1,10.155a3.37,3.37,0,0,0-1,1.7,3.4,3.4,0,0,0,1,1.7,10.062,10.062,0,0,0,2.732,1.99,9.4,9.4,0,0,0,4.012.949,9.55,9.55,0,0,0,4.012-.949,10.228,10.228,0,0,0,2.732-1.99,3.37,3.37,0,0,0,1-1.7,3.4,3.4,0,0,0-1-1.7,10.071,10.071,0,0,0-2.732-1.989A9.461,9.461,0,0,0,7.743,7.216Zm0,1.152a3.57,3.57,0,0,1,3.648,3.488,3.57,3.57,0,0,1-3.648,3.487,3.571,3.571,0,0,1-3.648-3.487A3.571,3.571,0,0,1,7.742,8.368Z" transform="translate(15 4.78)" fill="url(#linear-gradient)"/>
  </g>
</svg>
