<svg xmlns="http://www.w3.org/2000/svg" xmlns:xlink="http://www.w3.org/1999/xlink" width="55.182" height="46.976" viewBox="0 0 55.182 46.976">
  <defs>
    <linearGradient id="linear-gradient" x1="0.5" x2="0.5" y2="1" gradientUnits="objectBoundingBox">
      <stop offset="0" stop-color="#48dbe1"/>
      <stop offset="1" stop-color="#4166cd"/>
      <stop offset="1" stop-color="#236b73"/>
    </linearGradient>
    <filter id="Icon_ionic-md-eye" x="0" y="0" width="55.182" height="46.976" filterUnits="userSpaceOnUse">
      <feOffset dy="3" input="SourceAlpha"/>
      <feGaussianBlur stdDeviation="5" result="blur"/>
      <feFlood flood-opacity="0.09"/>
      <feComposite operator="in" in2="blur"/>
      <feComposite in="SourceGraphic"/>
    </filter>
  </defs>
  <g id="Icon_ionic-md-eye-2" data-name="Icon ionic-md-eye" transform="translate(15 12)">
    <g transform="matrix(1, 0, 0, 1, -15, -12)" filter="url(#Icon_ionic-md-eye)">
      <path id="Icon_ionic-md-eye-3" data-name="Icon ionic-md-eye" d="M14.841,7.383A13.54,13.54,0,0,0,2.25,15.871a13.583,13.583,0,0,0,25.182,0A13.54,13.54,0,0,0,14.841,7.383Zm0,14.148a5.661,5.661,0,1,1,5.722-5.66A5.707,5.707,0,0,1,14.841,21.531Zm0-9.056a3.4,3.4,0,1,0,3.434,3.4A3.426,3.426,0,0,0,14.841,12.475Z" transform="translate(12.75 4.62)" fill="url(#linear-gradient)"/>
    </g>
  </g>
</svg>
