<svg xmlns="http://www.w3.org/2000/svg" width="23.028" height="19.734" viewBox="0 0 23.028 19.734">
  <g id="filter-edit" transform="translate(0)">
    <path id="Path_13166" data-name="Path 13166" d="M21.984,6.144H3.895V8.751l6.093,6.1.485.477v7.261h3.289V20.945h1.645v1.644a1.645,1.645,0,0,1-1.645,1.645H10.473a1.645,1.645,0,0,1-1.645-1.645V16.011L2.735,9.919A1.644,1.644,0,0,1,2.25,8.751V6.144A1.645,1.645,0,0,1,3.895,4.5h18.09Z" transform="translate(-2.25 -4.5)" fill="#fff"/>
    <path id="Path_13167" data-name="Path 13167" d="M29.273,11.7,26.807,9.237a.822.822,0,0,0-1.167,0L18,16.884V20.51h3.626l7.647-7.639a.822.822,0,0,0,0-1.167Zm-8.321,7.162H19.645V17.558l4.111-4.111,1.308,1.308Zm5.27-5.27-1.308-1.308,1.308-1.308,1.308,1.308Z" transform="translate(-6.488 -5.709)" fill="#ff6ad5"/>
  </g>
</svg>
