<svg xmlns="http://www.w3.org/2000/svg" xmlns:xlink="http://www.w3.org/1999/xlink" width="19.257" height="15.424" viewBox="0 0 19.257 15.424">
  <defs>
    <linearGradient id="linear-gradient" x1="0.5" x2="0.5" y2="1" gradientUnits="objectBoundingBox">
      <stop offset="0" stop-color="#48dbe1"/>
      <stop offset="1" stop-color="#4166cd"/>
      <stop offset="1" stop-color="#236b73"/>
    </linearGradient>
  </defs>
  <g id="Group_17331" data-name="Group 17331" transform="translate(-329.999 -404.85)">
    <path id="Path_13185" data-name="Path 13185" d="M15.632,19.307a.755.755,0,0,1,.8-.115L18.9,21.607v4.342H2.254V24.708l3.67-2.92a.756.756,0,0,1,.873-.077l3.689,2.2,5.146-4.6Z" transform="translate(328.869 393.29)" fill="url(#linear-gradient)"/>
    <path id="Path_13185_-_Outline" data-name="Path 13185 - Outline" d="M16.122,18.626a1.268,1.268,0,0,1,.515.109l.082.037L19.4,21.4v5.052H1.754V24.467L5.6,21.4a1.233,1.233,0,0,1,.81-.3,1.25,1.25,0,0,1,.639.174l3.374,2.012L15.3,18.934A1.232,1.232,0,0,1,16.122,18.626Zm.043,1a.258.258,0,0,0-.191.044l-.008.007-5.42,4.848-4-2.388a.25.25,0,0,0-.128-.033.238.238,0,0,0-.157.054l-.021.018-3.481,2.77v.5H18.4V21.817Z" transform="translate(328.869 393.29)" fill="rgba(0,0,0,0)"/>
    <path id="Path_3901" data-name="Path 3901" d="M427.778,1552.056h-.962a3.855,3.855,0,0,1-3.852-3.851v-7.7a3.856,3.856,0,0,1,3.852-3.852h11.554a3.856,3.856,0,0,1,3.852,3.852v7.7a3.855,3.855,0,0,1-3.852,3.851h-2.633C427.81,1552.06,437.69,1552.1,427.778,1552.056Zm-.56-13.9a2.846,2.846,0,0,0-2.461,2.345v7.7a2.887,2.887,0,0,0,2.461,2.384c1.914.129,8.351.129,11.294,0a2.508,2.508,0,0,0,2.082-2.384v-7.7a2.6,2.6,0,0,0-2.224-2.345Z" transform="translate(-92.965 -1131.801)" fill="url(#linear-gradient)"/>
    <path id="Path_3902" data-name="Path 3902" d="M449.387,1552.071a1.7,1.7,0,1,1,1.7,1.7A1.7,1.7,0,0,1,449.387,1552.071Z" transform="translate(-113.553 -1141.764)" fill="url(#linear-gradient)"/>
  </g>
</svg>
