<svg xmlns="http://www.w3.org/2000/svg" xmlns:xlink="http://www.w3.org/1999/xlink" width="19.256" height="15.425" viewBox="0 0 19.256 15.425">
  <defs>
    <linearGradient id="linear-gradient" x1="0.5" x2="0.5" y2="1" gradientUnits="objectBoundingBox">
      <stop offset="0" stop-color="#48dbe1"/>
      <stop offset="1" stop-color="#4166cd"/>
      <stop offset="1" stop-color="#236b73"/>
    </linearGradient>
  </defs>
  <g id="icon_43_" transform="translate(0 0.001)">
    <path id="Path_3901" data-name="Path 3901" d="M427.778,1552.056h-.962a3.855,3.855,0,0,1-3.852-3.851v-7.7a3.856,3.856,0,0,1,3.852-3.852h11.554a3.856,3.856,0,0,1,3.852,3.852v7.7a3.855,3.855,0,0,1-3.852,3.851h-2.633C427.81,1552.06,437.69,1552.1,427.778,1552.056Zm-.56-13.9a2.846,2.846,0,0,0-2.461,2.345v7.7a2.887,2.887,0,0,0,2.461,2.384c1.914.129,8.351.129,11.294,0a2.508,2.508,0,0,0,2.082-2.384v-7.7a2.6,2.6,0,0,0-2.224-2.345Z" transform="translate(-422.964 -1536.651)" fill="url(#linear-gradient)"/>
    <path id="Path_3902" data-name="Path 3902" d="M449.387,1552.071a1.7,1.7,0,1,1,1.7,1.7A1.7,1.7,0,0,1,449.387,1552.071Z" transform="translate(-443.553 -1546.614)" fill="url(#linear-gradient)"/>
  </g>
</svg>
