<svg xmlns="http://www.w3.org/2000/svg" xmlns:xlink="http://www.w3.org/1999/xlink" width="20" height="23.324" viewBox="0 0 20 23.324">
  <defs>
    <linearGradient id="linear-gradient" x1="0.5" x2="0.5" y2="1" gradientUnits="objectBoundingBox">
      <stop offset="0" stop-color="#48dbe1"/>
      <stop offset="1" stop-color="#4166cd"/>
      <stop offset="1" stop-color="#236b73"/>
    </linearGradient>
  </defs>
  <g id="Group_15331" data-name="Group 15331" transform="translate(-33 -919)">
    <path id="Path_13922" data-name="Path 13922" d="M12.375,27h8.33v1.666h-8.33Z" transform="translate(24.798 910.327)" fill="url(#linear-gradient)"/>
    <path id="Path_13923" data-name="Path 13923" d="M14.625,31.5h5v1.666h-5Z" transform="translate(24.215 909.158)" fill="url(#linear-gradient)"/>
    <path id="Path_13924" data-name="Path 13924" d="M10.758,15.694A5.985,5.985,0,0,1,8.413,10.58a6.672,6.672,0,0,1,6.664-6.664V2.25a8.339,8.339,0,0,0-8.33,8.33A7.647,7.647,0,0,0,9.63,16.924c.843.779,1.282,1.22,1.282,1.986h1.666A4.249,4.249,0,0,0,10.758,15.694Z" transform="translate(26.262 916.75)" fill="url(#linear-gradient)"/>
    <path id="Path_13925" data-name="Path 13925" d="M23.189,18.617a4.242,4.242,0,0,0-1.814,3.213h1.666c0-.766.438-1.208,1.279-1.987A7.658,7.658,0,0,0,27.206,13.5H25.54A6,6,0,0,1,23.189,18.617Z" transform="translate(22.462 913.83)" fill="url(#linear-gradient)"/>
    <path id="Path_13926" data-name="Path 13926" d="M21.624,8.011a1.25,1.25,0,1,1-1.25-1.219,1.25,1.25,0,0,1,1.25,1.219Z" transform="translate(23.049 915.571)" fill="url(#linear-gradient)"/>
    <path id="Path_13927" data-name="Path 13927" d="M32.874,8.011a1.25,1.25,0,1,1-1.25-1.219A1.25,1.25,0,0,1,32.874,8.011Z" transform="translate(20.126 915.571)" fill="url(#linear-gradient)"/>
    <path id="Path_13928" data-name="Path 13928" d="M27.249,8.011A1.25,1.25,0,1,1,26,6.791a1.25,1.25,0,0,1,1.25,1.219Z" transform="translate(21.587 915.571)" fill="url(#linear-gradient)"/>
  </g>
</svg>
