<svg xmlns="http://www.w3.org/2000/svg" xmlns:xlink="http://www.w3.org/1999/xlink" width="322.426" height="270.434" viewBox="0 0 322.426 270.434">
  <defs>
    <linearGradient id="linear-gradient" x1="0.5" x2="0.5" y2="1" gradientUnits="objectBoundingBox">
      <stop offset="0" stop-color="#48dbe1"/>
      <stop offset="1" stop-color="#4166cd"/>
      <stop offset="1" stop-color="#236b73"/>
    </linearGradient>
    <filter id="Path_13492" x="27.274" y="37.101" width="144.645" height="144.347" filterUnits="userSpaceOnUse">
      <feOffset dy="3" input="SourceAlpha"/>
      <feGaussianBlur stdDeviation="5" result="blur"/>
      <feFlood flood-opacity="0.09"/>
      <feComposite operator="in" in2="blur"/>
      <feComposite in="SourceGraphic"/>
    </filter>
    <filter id="Path_13499" x="134.882" y="16.956" width="162.639" height="253.478" filterUnits="userSpaceOnUse">
      <feOffset dy="3" input="SourceAlpha"/>
      <feGaussianBlur stdDeviation="5" result="blur-2"/>
      <feFlood flood-opacity="0.09"/>
      <feComposite operator="in" in2="blur-2"/>
      <feComposite in="SourceGraphic"/>
    </filter>
  </defs>
  <g id="Group_12142" data-name="Group 12142" transform="translate(-96.822 -119.791)">
    <g id="Group_12122" data-name="Group 12122" transform="translate(96.822 119.791)">
      <g id="Group_12119" data-name="Group 12119" transform="translate(12.195)" opacity="0.41">
        <g id="Group_12118" data-name="Group 12118">
          <path id="Path_13487" data-name="Path 13487" d="M418.938,291.748a92.564,92.564,0,0,0-.424-15.794c-2.788-24.611-15.414-47.819-34-64.193-6.63-5.841-14.174-11.075-18.488-18.787-7.267-12.986-6.716-27.911-15.734-40.733a76.278,76.278,0,0,0-37.023-27.989c-44.241-15.329-106.178,9.63-100.6,62.933.02.19.043.469.066.821a19.4,19.4,0,0,1-19.008,20.643c-40.818.968-75.953,32.438-83.472,72.3-4.835,25.637,3.082,53.737,21.836,71.873,14,13.537,32.78,20.974,51.571,26.085,37.677,10.247,77.325,12.395,116.173,8.477,36.364-3.669,74.722-14.122,98.24-42.1A91.865,91.865,0,0,0,418.938,291.748Z" transform="translate(-108.866 -119.791)" fill="#c5d9ff"/>
        </g>
      </g>
      <g id="Group_12121" data-name="Group 12121" transform="translate(45.796 39.76)" opacity="0.88">
        <g id="Group_12120" data-name="Group 12120">
          <path id="Path_13488" data-name="Path 13488" d="M384.956,293.766a72.654,72.654,0,0,0-.333-12.372c-2.184-19.28-12.076-37.461-26.633-50.288-5.194-4.577-11.1-8.677-14.484-14.718-5.693-10.173-5.261-21.865-12.326-31.91a59.756,59.756,0,0,0-29-21.927c-34.658-12.008-83.179,7.545-78.81,49.3.015.15.032.368.051.643a15.2,15.2,0,0,1-14.891,16.172c-31.976.759-59.5,25.412-65.389,56.641-3.788,20.083,2.414,42.1,17.105,56.3,10.966,10.606,25.68,16.432,40.4,20.435,29.515,8.028,60.576,9.709,91.008,6.64,28.487-2.873,58.536-11.062,76.96-32.979A71.968,71.968,0,0,0,384.956,293.766Z" transform="translate(-142.05 -159.057)" fill="#c5d9ff"/>
        </g>
      </g>
      <circle id="Ellipse_566" data-name="Ellipse 566" cx="9.983" cy="9.983" r="9.983" transform="translate(291.51 47.17) rotate(-76.66)" fill="#c5d9ff" opacity="0.31"/>
      <circle id="Ellipse_567" data-name="Ellipse 567" cx="11.576" cy="11.576" r="11.576" transform="translate(67.905 28.184) rotate(-45)" fill="#c5d9ff" opacity="0.31"/>
      <circle id="Ellipse_568" data-name="Ellipse 568" cx="14.95" cy="14.95" r="14.95" transform="translate(0 235.589)" fill="#c5d9ff" opacity="0.31"/>
    </g>
    <g id="Group_12124" data-name="Group 12124" transform="translate(176.749 146.071)">
      <g id="Group_12123" data-name="Group 12123">
        <circle id="Ellipse_569" data-name="Ellipse 569" cx="52.988" cy="52.988" r="52.988" transform="translate(0 0.322)" fill="#af9cda"/>
        <path id="Path_13489" data-name="Path 13489" d="M265.359,237.214a.507.507,0,0,1-.357-.865,52.481,52.481,0,1,0-74.22-74.22.506.506,0,0,1-.716-.716,53.494,53.494,0,1,1,75.652,75.652A.505.505,0,0,1,265.359,237.214Z" transform="translate(-175.58 -145.745)" fill="#c5d9ff"/>
        <circle id="Ellipse_570" data-name="Ellipse 570" cx="40.322" cy="40.322" r="40.322" transform="translate(12.666 12.988)" fill="#fff"/>
        <path id="Path_13490" data-name="Path 13490" d="M228.594,239.728a40.829,40.829,0,0,1,0-81.657.506.506,0,0,1,0,1.013,39.816,39.816,0,0,0,0,79.632.506.506,0,0,1,0,1.013Z" transform="translate(-175.607 -145.59)" fill="#c5d9ff"/>
        <path id="Path_13491" data-name="Path 13491" d="M238.591,206.287H227.622a4.085,4.085,0,0,1-4.081-4.081V187a3.544,3.544,0,0,1,7.088,0v12.2h7.962a3.544,3.544,0,1,1,0,7.088Z" transform="translate(-175.157 -145.271)" fill="#244094"/>
      </g>
    </g>
    <g id="Group_12129" data-name="Group 12129" transform="translate(139.096 168.399)">
      <g transform="matrix(1, 0, 0, 1, -42.27, -48.61)" filter="url(#Path_13492)">
        <path id="Path_13492-2" data-name="Path 13492" d="M146.946,217.177l57.08,57.079a28.591,28.591,0,0,0,40.434,0l6.825-6.824a6.6,6.6,0,0,0,0-9.331l-23.292-23.293a6.6,6.6,0,0,0-9.331,0l-11.646,11.647a2.332,2.332,0,0,1-3.3,0L175.47,218.208a2.3,2.3,0,0,1,0-3.255l11.485-11.484a6.6,6.6,0,0,0,0-9.331l-23.923-23.923a6.6,6.6,0,0,0-9.249-.081l-6.48,6.259A28.591,28.591,0,0,0,146.946,217.177Z" transform="translate(-96.3 -119.18)" fill="url(#linear-gradient)"/>
      </g>
      <g id="Group_12125" data-name="Group 12125" transform="translate(7.965)">
        <path id="Path_13493" data-name="Path 13493" d="M148.625,177.543,180.7,209.617l1.1-1.1,5.048-5.049a6.6,6.6,0,0,0,0-9.331l-23.923-23.923a6.6,6.6,0,0,0-9.249-.081l-6.48,6.259Z" transform="translate(-146.428 -167.79)" fill="#e8f7f6"/>
        <path id="Path_13494" data-name="Path 13494" d="M180.708,210.338,148.3,177.927l-1.858-1.492,6.895-6.658a7.139,7.139,0,0,1,9.959.086l23.922,23.923a7.112,7.112,0,0,1,0,10.048Zm-32.74-33.974,1.025.827,31.715,31.714,5.789-5.789a6.091,6.091,0,0,0,0-8.616l-23.922-23.923a6.12,6.12,0,0,0-8.54-.074Z" transform="translate(-146.438 -167.796)" fill="#af9cda"/>
      </g>
      <g id="Group_12126" data-name="Group 12126" transform="translate(73.211 64.147)">
        <path id="Path_13495" data-name="Path 13495" d="M213.062,240.894l32.073,32.073,1.1-1.1,5.049-5.048a6.6,6.6,0,0,0,0-9.331L227.36,233.566a6.6,6.6,0,0,0-9.249-.081l-6.481,6.259Z" transform="translate(-210.865 -231.141)" fill="#e8f7f6"/>
        <path id="Path_13496" data-name="Path 13496" d="M245.144,273.689l-32.412-32.412-1.857-1.492,6.895-6.659a7.14,7.14,0,0,1,9.959.087l23.922,23.924a7.1,7.1,0,0,1,0,10.046ZM212.4,239.714l1.024.827,31.715,31.715,5.79-5.79a6.09,6.09,0,0,0,0-8.614L227.011,233.93a6.121,6.121,0,0,0-8.539-.074Z" transform="translate(-210.875 -231.147)" fill="#af9cda"/>
      </g>
      <g id="Group_12127" data-name="Group 12127" transform="translate(12.112 5.465)">
        <line id="Line_695" data-name="Line 695" x2="19.543" y2="19.543" transform="translate(0.506 0.506)" fill="#ecf1f7"/>
        <path id="Path_13497" data-name="Path 13497" d="M170.583,193.749a.505.505,0,0,1-.358-.149l-19.542-19.542a.506.506,0,0,1,.716-.716l19.542,19.542a.507.507,0,0,1-.357.865Z" transform="translate(-150.534 -173.194)" fill="#c5d9ff"/>
      </g>
      <g id="Group_12128" data-name="Group 12128" transform="translate(89.849 83.202)">
        <line id="Line_696" data-name="Line 696" x2="19.543" y2="19.543" transform="translate(0.506 0.506)" fill="#ecf1f7"/>
        <path id="Path_13498" data-name="Path 13498" d="M247.355,270.521a.5.5,0,0,1-.357-.149L227.454,250.83a.506.506,0,0,1,.716-.716l19.543,19.542a.507.507,0,0,1-.358.865Z" transform="translate(-227.306 -249.966)" fill="#c5d9ff"/>
      </g>
    </g>
    <g id="Group_12132" data-name="Group 12132" transform="translate(246.704 148.747)">
      <g transform="matrix(1, 0, 0, 1, -149.88, -28.96)" filter="url(#Path_13499)">
        <path id="Path_13499-2" data-name="Path 13499" d="M332.893,371.7l-74.826-11.067a15.487,15.487,0,0,1-13.054-17.586L271.849,161.61a15.487,15.487,0,0,1,17.586-13.054l74.825,11.067a15.487,15.487,0,0,1,13.054,17.586L350.479,358.643A15.486,15.486,0,0,1,332.893,371.7Z" transform="translate(-94.96 -119.43)" fill="url(#linear-gradient)"/>
      </g>
      <rect id="Rectangle_4500" data-name="Rectangle 4500" width="173.197" height="93.912" transform="translate(7.508 188.441) rotate(-81.586)" fill="#ecf1f7"/>
      <rect id="Rectangle_4501" data-name="Rectangle 4501" width="12.996" height="93.912" transform="translate(30.949 29.964) rotate(-81.586)" fill="#af9cda"/>
      <path id="Path_13500" data-name="Path 13500" d="M296.658,357.92a6.064,6.064,0,1,1,5.994-5.177A6.053,6.053,0,0,1,296.658,357.92Zm-.016-11.116a5.067,5.067,0,1,0,.751.056A5.089,5.089,0,0,0,296.642,346.8Z" transform="translate(-244.27 -145.907)" fill="#ecf1f7"/>
      <path id="Path_13501" data-name="Path 13501" d="M309.865,163.714a1.972,1.972,0,0,1-.287-.021,1.95,1.95,0,0,1-.877-3.494,1.95,1.95,0,0,1,3.09,1.851h0A1.953,1.953,0,0,1,309.865,163.714Zm0-2.887a.937.937,0,1,0,.93,1.075h0a.937.937,0,0,0-.93-1.075Z" transform="translate(-244.052 -148.244)" fill="#ecf1f7"/>
      <path id="Path_13502" data-name="Path 13502" d="M339.961,168.166a2,2,0,0,1-.29-.021l-23.7-3.505a1.95,1.95,0,1,1,.57-3.858l23.7,3.505a1.95,1.95,0,0,1-.28,3.879Zm-23.706-6.393a.938.938,0,0,0-.137,1.865l23.7,3.505a.938.938,0,0,0,.274-1.855l-23.7-3.505A1.064,1.064,0,0,0,316.255,161.773Z" transform="translate(-243.972 -148.232)" fill="#ecf1f7"/>
      <path id="Path_13503" data-name="Path 13503" d="M345.248,296.408l-64.806-9.585a1.93,1.93,0,0,0-2.193,1.627l-2.487,16.814a1.932,1.932,0,0,0,1.628,2.193l55.406,8.195,5.708,7.873,1.018-6.878,2.674.4a1.931,1.931,0,0,0,2.193-1.628l2.487-16.813A1.932,1.932,0,0,0,345.248,296.408Z" transform="translate(-244.456 -146.648)" fill="#c5d9ff"/>
      <path id="Path_13504" data-name="Path 13504" d="M332.8,316.165a.457.457,0,0,1-.074-.006l-55.406-8.2a2.434,2.434,0,0,1-2.055-2.767l2.487-16.813a2.429,2.429,0,0,1,2.767-2.054l14.977,2.216a.506.506,0,1,1-.148,1l-14.977-2.217a1.432,1.432,0,0,0-1.618,1.2l-2.487,16.812a1.424,1.424,0,0,0,1.2,1.618l55.406,8.2a.506.506,0,0,1-.074,1.007Z" transform="translate(-244.462 -146.655)" fill="#af9cda"/>
      <path id="Path_13505" data-name="Path 13505" d="M355.425,227.607l-64.806-9.585a1.931,1.931,0,0,0-2.193,1.628l-2.487,16.813a1.931,1.931,0,0,0,1.628,2.193l55.405,8.195,5.708,7.873,1.018-6.877,2.675.395a1.93,1.93,0,0,0,2.192-1.627l2.487-16.814A1.93,1.93,0,0,0,355.425,227.607Z" transform="translate(-244.328 -147.513)" fill="#c5d9ff"/>
      <path id="Path_13506" data-name="Path 13506" d="M349.006,255.817l-6.311-8.706-55.2-8.163a2.441,2.441,0,0,1-2.054-2.768.507.507,0,1,1,1,.148,1.424,1.424,0,0,0,1.2,1.618l55.616,8.226,5.1,7.04.91-6.15,3.175.47a1.425,1.425,0,0,0,1.618-1.2l1.654-11.184a.507.507,0,1,1,1,.148l-1.654,11.185a2.436,2.436,0,0,1-2.767,2.054l-2.174-.322Z" transform="translate(-244.335 -147.303)" fill="#af9cda"/>
      <path id="Path_13507" data-name="Path 13507" d="M273.609,248.882l64.806,9.586a1.93,1.93,0,0,1,1.627,2.193l-2.487,16.813a1.931,1.931,0,0,1-2.193,1.628l-55.405-8.2-7.743,5.884,1.018-6.878-2.674-.4a1.93,1.93,0,0,1-1.628-2.193l2.487-16.813A1.932,1.932,0,0,1,273.609,248.882Z" transform="translate(-244.542 -147.125)" fill="#af9cda"/>
      <path id="Path_13508" data-name="Path 13508" d="M335.262,279.517a2.445,2.445,0,0,1-.362-.027l-34.586-5.115a.506.506,0,1,1,.149-1l34.586,5.114a1.424,1.424,0,0,0,1.618-1.2l2.487-16.814a1.428,1.428,0,0,0-1.2-1.618.506.506,0,0,1,.149-1,2.441,2.441,0,0,1,2.054,2.768l-2.487,16.813a2.44,2.44,0,0,1-2.406,2.082Z" transform="translate(-244.153 -147.012)" fill="#c5d9ff"/>
      <rect id="Rectangle_4502" data-name="Rectangle 4502" width="15.935" height="93.912" transform="translate(7.508 188.441) rotate(-81.586)" fill="#fff"/>
      <path id="Path_13509" data-name="Path 13509" d="M268.241,328.82a5.651,5.651,0,1,1-4.763-6.417A5.651,5.651,0,0,1,268.241,328.82Z" transform="translate(-244.692 -146.202)" fill="#c5d9ff"/>
      <path id="Path_13510" data-name="Path 13510" d="M336.577,344.1a4.97,4.97,0,0,1-.74-.055l-60.206-8.905a5.038,5.038,0,1,1,1.474-9.968l60.207,8.906a5.038,5.038,0,0,1-.735,10.022Zm-.591-1.056a4.026,4.026,0,0,0,3.821-6.382,3.992,3.992,0,0,0-2.644-1.583l-60.206-8.906a4.026,4.026,0,1,0-1.178,7.965Z" transform="translate(-244.512 -146.167)" fill="#af9cda" opacity="0.33"/>
      <path id="Path_13511" data-name="Path 13511" d="M283.02,174.458a2.04,2.04,0,0,1-.292-.021,1.983,1.983,0,0,1-.891-3.553,1.956,1.956,0,0,1,1.471-.369,1.985,1.985,0,0,1,1.672,2.251h0A1.987,1.987,0,0,1,283.02,174.458Zm0-2.953a.97.97,0,0,0-.14,1.93.973.973,0,0,0,1.1-.818h0a.968.968,0,0,0-.817-1.1A1,1,0,0,0,283.016,171.506Z" transform="translate(-244.39 -148.11)" fill="#fff"/>
      <path id="Path_13512" data-name="Path 13512" d="M288.435,175.259a2.059,2.059,0,0,1-.295-.021,1.982,1.982,0,1,1,.295.021Zm-.005-2.953a.97.97,0,0,0-.142,1.929.968.968,0,0,0,1.1-.817h0a.968.968,0,0,0-.959-1.112Z" transform="translate(-244.322 -148.1)" fill="#fff"/>
      <path id="Path_13513" data-name="Path 13513" d="M293.74,176.044a2.023,2.023,0,0,1-.291-.021,1.983,1.983,0,1,1,.291.021Zm0-2.953a.97.97,0,0,0-.14,1.93.97.97,0,1,0,.283-1.92A1.128,1.128,0,0,0,293.737,173.092Z" transform="translate(-244.255 -148.09)" fill="#fff"/>
      <path id="Path_13514" data-name="Path 13514" d="M369.474,192.4a.608.608,0,0,1-.074-.005l-85.995-12.72a.506.506,0,1,1,.148-1l85.995,12.72a.506.506,0,0,1-.074,1.007Z" transform="translate(-247.088 -148.007)" fill="#c5d9ff"/>
      <path id="Path_13515" data-name="Path 13515" d="M333.572,300.211a.48.48,0,0,1-.075-.006l-45.883-6.786a.5.5,0,0,1-.426-.574.5.5,0,0,1,.575-.426l45.883,6.786a.506.506,0,0,1-.074,1.007Z" transform="translate(-244.312 -146.578)" fill="#fff"/>
      <path id="Path_13516" data-name="Path 13516" d="M306.418,301.718a.47.47,0,0,1-.075-.006l-19.528-2.889a.506.506,0,1,1,.148-1l19.529,2.889a.506.506,0,0,1-.074,1.006Z" transform="translate(-244.323 -146.51)" fill="#fff"/>
      <path id="Path_13517" data-name="Path 13517" d="M299.846,305.918a.461.461,0,0,1-.074-.006l-13.707-2.027a.506.506,0,1,1,.149-1l13.706,2.027a.506.506,0,0,1-.074,1.007Z" transform="translate(-244.332 -146.446)" fill="#fff"/>
      <path id="Path_13518" data-name="Path 13518" d="M332.454,305.57a.463.463,0,0,1-.075-.006L312.2,302.578a.506.506,0,1,1,.148-1l20.182,2.984a.506.506,0,0,1-.073,1.007Z" transform="translate(-244.004 -146.463)" fill="#fff"/>
      <g id="Group_12130" data-name="Group 12130" transform="translate(36.457 107.758)">
        <path id="Path_13519" data-name="Path 13519" d="M328.039,262.608a.467.467,0,0,1-.074-.006l-45.884-6.786a.505.505,0,0,1-.426-.575.5.5,0,0,1,.575-.425l45.883,6.786a.506.506,0,0,1-.074,1.006Z" transform="translate(-280.839 -254.808)" fill="#fff"/>
        <path id="Path_13520" data-name="Path 13520" d="M300.885,264.114a.38.38,0,0,1-.075-.006l-19.528-2.888a.506.506,0,1,1,.148-1l19.529,2.888a.506.506,0,0,1-.074,1.007Z" transform="translate(-280.849 -254.74)" fill="#fff"/>
        <path id="Path_13521" data-name="Path 13521" d="M321.174,272.291a.511.511,0,0,1-.078-.006l-39.6-6.143a.506.506,0,0,1,.155-1l39.6,6.143a.506.506,0,0,1-.077,1.006Z" transform="translate(-280.846 -254.678)" fill="#fff"/>
        <path id="Path_13522" data-name="Path 13522" d="M326.921,267.967a.469.469,0,0,1-.075-.006l-20.182-2.985a.506.506,0,1,1,.148-1l20.182,2.985a.506.506,0,0,1-.073,1.006Z" transform="translate(-280.53 -254.693)" fill="#fff"/>
      </g>
      <path id="Path_13523" data-name="Path 13523" d="M281.828,186.462l64.806,9.586a1.932,1.932,0,0,1,1.628,2.193l-2.487,16.813a1.931,1.931,0,0,1-2.193,1.628l-55.406-8.195-7.742,5.883,1.017-6.878-2.674-.395a1.932,1.932,0,0,1-1.628-2.193l2.487-16.814A1.932,1.932,0,0,1,281.828,186.462Z" transform="translate(-244.439 -147.909)" fill="#af9cda"/>
      <path id="Path_13524" data-name="Path 13524" d="M345.419,215.521a.6.6,0,0,1-.074-.005.508.508,0,0,1-.427-.575l2.487-16.813a1.424,1.424,0,0,0-1.2-1.618l-40.237-5.952a.5.5,0,0,1-.426-.574.514.514,0,0,1,.575-.427l40.236,5.952a2.436,2.436,0,0,1,2.054,2.767l-2.487,16.814A.506.506,0,0,1,345.419,215.521Z" transform="translate(-244.082 -147.87)" fill="#c5d9ff"/>
      <g id="Group_12131" data-name="Group 12131" transform="translate(44.78 44.555)">
        <path id="Path_13525" data-name="Path 13525" d="M336.259,200.188a.617.617,0,0,1-.075-.005L290.3,193.4a.506.506,0,0,1,.149-1l45.883,6.787a.506.506,0,0,1-.073,1.006Z" transform="translate(-289.058 -192.389)" fill="#fff"/>
        <path id="Path_13526" data-name="Path 13526" d="M309.1,201.7a.614.614,0,0,1-.074-.005L289.5,198.8a.506.506,0,1,1,.149-1l19.528,2.888a.506.506,0,0,1-.074,1.008Z" transform="translate(-289.068 -192.321)" fill="#fff"/>
        <path id="Path_13527" data-name="Path 13527" d="M329.393,209.871a.514.514,0,0,1-.078-.006l-39.6-6.143a.505.505,0,0,1-.422-.578.512.512,0,0,1,.578-.422l39.6,6.143a.506.506,0,0,1-.078,1.006Z" transform="translate(-289.066 -192.259)" fill="#fff"/>
        <path id="Path_13528" data-name="Path 13528" d="M335.14,205.547a.466.466,0,0,1-.075-.006l-20.182-2.985a.506.506,0,0,1,.148-1l20.183,2.985a.507.507,0,0,1-.074,1.007Z" transform="translate(-288.75 -192.274)" fill="#fff"/>
      </g>
      <path id="Path_13529" data-name="Path 13529" d="M343.789,232.047a.47.47,0,0,1-.075-.006l-45.883-6.786a.507.507,0,1,1,.148-1l45.884,6.787a.507.507,0,0,1-.074,1.008Z" transform="translate(-244.184 -147.434)" fill="#fff"/>
      <path id="Path_13530" data-name="Path 13530" d="M316.635,233.553a.619.619,0,0,1-.075-.005l-19.529-2.889a.506.506,0,1,1,.149-1l19.528,2.889a.506.506,0,0,1-.073,1.007Z" transform="translate(-244.194 -147.366)" fill="#fff"/>
      <path id="Path_13531" data-name="Path 13531" d="M310.063,237.753a.471.471,0,0,1-.075-.006l-13.706-2.026a.507.507,0,0,1,.148-1l13.706,2.027a.506.506,0,0,1-.073,1.007Z" transform="translate(-244.204 -147.303)" fill="#fff"/>
      <path id="Path_13532" data-name="Path 13532" d="M342.67,237.4a.633.633,0,0,1-.075-.005l-20.182-2.986a.506.506,0,1,1,.149-1l20.182,2.985a.507.507,0,0,1-.074,1.008Z" transform="translate(-243.875 -147.319)" fill="#fff"/>
    </g>
    <g id="Group_12141" data-name="Group 12141" transform="translate(137.031 249.97)">
      <g id="Group_12133" data-name="Group 12133" transform="translate(0 35.239)">
        <path id="Path_13533" data-name="Path 13533" d="M252.5,354.437l-103.945,11.71a3.636,3.636,0,0,1-4.022-3.207l-7.5-66.59a.192.192,0,0,1,.169-.212l110.769-12.481a.193.193,0,0,1,.213.169l7.505,66.614A3.615,3.615,0,0,1,252.5,354.437Z" transform="translate(-136.525 -283.15)" fill="#ffbf47"/>
        <path id="Path_13534" data-name="Path 13534" d="M148.155,366.683A4.15,4.15,0,0,1,144.039,363l-7.5-66.589a.7.7,0,0,1,.616-.773l110.769-12.48a.7.7,0,0,1,.772.616l7.506,66.615a4.12,4.12,0,0,1-3.633,4.555L148.621,366.658A4.013,4.013,0,0,1,148.155,366.683Zm-10.577-70.071,7.468,66.277a3.127,3.127,0,0,0,3.462,2.762l103.945-11.712.057.5-.057-.5a3.1,3.1,0,0,0,2.74-3.435l-7.47-66.3Z" transform="translate(-136.532 -283.157)" fill="#c5d9ff"/>
      </g>
      <path id="Path_13535" data-name="Path 13535" d="M247.632,354.437l-93.991,11.71c-2,.226,29.126-39.694,28.9-41.691l-45.51-28.106a.192.192,0,0,1,.169-.212l110.769-12.481a.193.193,0,0,1,.213.169l-37.894,37.5C210.514,323.313,249.615,354.213,247.632,354.437Z" transform="translate(-136.525 -247.911)" fill="#243762" opacity="0.29"/>
      <g id="Group_12134" data-name="Group 12134" transform="translate(0.321)">
        <path id="Path_13536" data-name="Path 13536" d="M137.2,296.576l45.806-45.3a8.321,8.321,0,0,1,10.236-1.17L247.69,283.92a.116.116,0,0,1-.049.213L137.012,296.6" transform="translate(-136.847 -248.349)" fill="#ffbf47"/>
        <path id="Path_13537" data-name="Path 13537" d="M137.071,297.107l-.084-.745-.138-.14.109-.108V296.1l.016,0,45.682-45.178a8.8,8.8,0,0,1,10.858-1.239L247.96,283.5a.622.622,0,0,1-.255,1.145Zm51.795-47.739a7.793,7.793,0,0,0-5.5,2.273L138.6,295.915l107.869-12.153-53.489-33.22A7.81,7.81,0,0,0,188.865,249.368Z" transform="translate(-136.849 -248.355)" fill="#c5d9ff"/>
        <path id="Path_13556" data-name="Path 13556" d="M137.2,296.576l45.806-45.3a8.321,8.321,0,0,1,10.236-1.17L247.69,283.92a.116.116,0,0,1-.049.213L137.012,296.6" transform="translate(-136.848 -248.349)" fill="#243762" opacity="0.29"/>
      </g>
      <g id="Group_12135" data-name="Group 12135" transform="translate(16.039 64.727)">
        <path id="Path_13539" data-name="Path 13539" d="M187.868,317.108l-34.433,47.907,93.991-10.589L203.2,315.381A10.4,10.4,0,0,0,187.868,317.108Z" transform="translate(-152.359 -312.272)" fill="#f7a9b4"/>
        <path id="Path_13540" data-name="Path 13540" d="M152.372,365.652l35.1-48.833.411.3-.411-.3a10.908,10.908,0,0,1,16.074-1.811l45.084,39.8Zm43.95-52.362a9.883,9.883,0,0,0-8.03,4.12l-33.767,46.98,91.723-10.334-43.374-38.289A9.914,9.914,0,0,0,196.322,313.291Z" transform="translate(-152.372 -312.279)" fill="#243762"/>
      </g>
      <g id="Group_12136" data-name="Group 12136" transform="translate(6.269 6.682)">
        <path id="Path_13541" data-name="Path 13541" d="M142.723,263.674l72.4-8.157c4.746-.535,8.969,2.371,9.433,6.492l4.654,41.3-20.133,18.5-26.6,3-26.279-16.436-4.508-40.013Z" transform="translate(-142.723 -254.948)" fill="#e8f7f6"/>
        <path id="Path_13542" data-name="Path 13542" d="M182.332,325.34,155.7,308.681l-4.506-39.988-6.894-5.7,70.748-7.971a9.8,9.8,0,0,1,6.666,1.586,7.5,7.5,0,0,1,3.328,5.351l4.681,41.555L209.276,322.3Zm-25.684-17.259,25.922,16.213,26.264-2.96,19.822-18.219-4.624-41.045a6.5,6.5,0,0,0-2.894-4.629,8.8,8.8,0,0,0-5.979-1.414L144.4,264l7.734,4.044Z" transform="translate(-142.703 -254.954)" fill="#af9cda"/>
      </g>
      <path id="Path_13543" data-name="Path 13543" d="M187.868,313.026l-34.433,52.041,93.991-10.589L203.2,311.3A10.4,10.4,0,0,0,187.868,313.026Z" transform="translate(-136.319 -247.597)" fill="#243762" opacity="0.29"/>
      <g id="Group_12137" data-name="Group 12137" transform="translate(16.039 64.727)">
        <path id="Path_13544" data-name="Path 13544" d="M187.868,317.108l-34.433,47.907,93.991-10.589L203.2,315.381A10.4,10.4,0,0,0,187.868,317.108Z" transform="translate(-152.359 -312.272)" fill="#ffbf47"/>
        <path id="Path_13545" data-name="Path 13545" d="M152.372,365.652l35.1-48.833.411.3-.411-.3a10.908,10.908,0,0,1,16.074-1.811l45.084,39.8Zm43.95-52.362a9.883,9.883,0,0,0-8.03,4.12l-33.767,46.98,91.723-10.334-43.374-38.289A9.914,9.914,0,0,0,196.322,313.291Z" transform="translate(-152.372 -312.279)" fill="#ffbf47"/>
      </g>
      <path id="Path_13546" data-name="Path 13546" d="M191.05,327.565l-25.288,35.184,69.026-7.778L202.306,326.3A7.638,7.638,0,0,0,191.05,327.565Z" transform="translate(-136.165 -247.4)" fill="#fff" opacity="0.3"/>
      <g id="Group_12138" data-name="Group 12138" transform="translate(0.45 47.888)">
        <line id="Line_697" data-name="Line 697" x2="45.299" y2="28.227" transform="translate(0.268 0.43)" fill="#f7a9b4"/>
        <rect id="Rectangle_4503" data-name="Rectangle 4503" width="1.014" height="53.374" transform="translate(0 0.86) rotate(-58.072)" fill="#c5d9ff"/>
      </g>
      <g id="Group_12139" data-name="Group 12139" transform="translate(73.414 35.455)">
        <line id="Line_698" data-name="Line 698" x1="37.883" y2="37.599" transform="translate(0.351 0.364)" fill="#f7a9b4"/>
        <rect id="Rectangle_4504" data-name="Rectangle 4504" width="53.374" height="1.012" transform="translate(0 37.61) rotate(-44.801)" fill="#c5d9ff"/>
      </g>
      <g id="Group_12140" data-name="Group 12140" transform="translate(2.024 14.614)">
        <path id="Path_13547" data-name="Path 13547" d="M153.735,286.7,141.1,288.126l-2.03-18.027a6.067,6.067,0,0,1,5.35-6.709l.574-.065a6.069,6.069,0,0,1,6.71,5.35Z" transform="translate(-138.524 -262.782)" fill="#af9cda"/>
        <path id="Path_13548" data-name="Path 13548" d="M140.659,288.692l-2.087-18.531a6.574,6.574,0,0,1,5.8-7.268l.575-.065a6.575,6.575,0,0,1,7.269,5.8l2.087,18.529Zm5.032-24.893a5.8,5.8,0,0,0-.634.035l-.575.065a5.559,5.559,0,0,0-4.9,6.149l1.974,17.524,11.629-1.31-1.975-17.524a5.562,5.562,0,0,0-5.515-4.939Z" transform="translate(-138.53 -262.788)" fill="#af9cda"/>
      </g>
      <path id="Path_13549" data-name="Path 13549" d="M162.031,277.23a.506.506,0,0,1-.056-1.009l52.456-5.91a.506.506,0,1,1,.113,1.006l-52.456,5.91A.546.546,0,0,1,162.031,277.23Z" transform="translate(-136.218 -248.079)" fill="#af9cda"/>
      <path id="Path_13550" data-name="Path 13550" d="M164.016,294.841a.506.506,0,0,1-.057-1.01l52.456-5.909a.506.506,0,1,1,.113,1.006l-52.456,5.909Z" transform="translate(-136.193 -247.858)" fill="#af9cda"/>
      <path id="Path_13551" data-name="Path 13551" d="M163.012,285.892a.506.506,0,0,1-.057-1.009l22.668-2.555a.506.506,0,0,1,.113,1.007l-22.668,2.555A.541.541,0,0,1,163.012,285.892Z" transform="translate(-136.205 -247.928)" fill="#af9cda"/>
      <path id="Path_13552" data-name="Path 13552" d="M191.26,282.71a.506.506,0,0,1-.057-1.01l23.853-2.686a.506.506,0,1,1,.114,1.007l-23.854,2.686A.542.542,0,0,1,191.26,282.71Z" transform="translate(-135.851 -247.97)" fill="#af9cda"/>
      <path id="Path_13553" data-name="Path 13553" d="M165.141,304.786a.506.506,0,0,1-.057-1.01l22.668-2.554a.506.506,0,0,1,.113,1.006L165.2,304.783Z" transform="translate(-136.179 -247.691)" fill="#af9cda"/>
    </g>
  </g>
</svg>
