<svg xmlns="http://www.w3.org/2000/svg" width="22.321" height="22.321" viewBox="0 0 22.321 22.321">
  <path id="Icon_awesome-whatsapp" data-name="Icon awesome-whatsapp" d="M18.978,5.494A11.064,11.064,0,0,0,1.569,18.841L0,24.571l5.864-1.54a11.027,11.027,0,0,0,5.286,1.345h0A11.167,11.167,0,0,0,22.321,13.316a11.1,11.1,0,0,0-3.343-7.822Zm-7.822,17.02a9.177,9.177,0,0,1-4.683-1.28l-.334-.2-3.478.912.927-3.393L3.368,18.2a9.211,9.211,0,1,1,17.085-4.888,9.3,9.3,0,0,1-9.3,9.2ZM16.2,15.628c-.274-.14-1.634-.807-1.888-.9s-.438-.14-.623.14-.712.9-.877,1.086-.324.209-.6.07A7.523,7.523,0,0,1,8.45,12.738c-.284-.488.284-.453.812-1.51a.512.512,0,0,0-.025-.483c-.07-.14-.623-1.5-.852-2.053s-.453-.463-.623-.473-.344-.01-.528-.01a1.024,1.024,0,0,0-.737.344A3.106,3.106,0,0,0,5.53,10.86a5.414,5.414,0,0,0,1.126,2.86,12.35,12.35,0,0,0,4.723,4.175,5.408,5.408,0,0,0,3.318.693,2.831,2.831,0,0,0,1.863-1.315,2.312,2.312,0,0,0,.159-1.315C16.656,15.832,16.472,15.762,16.2,15.628Z" transform="translate(0 -2.25)" fill="#438ed3"/>
</svg>
