<svg xmlns="http://www.w3.org/2000/svg" width="15.769" height="17.437" viewBox="0 0 15.769 17.437">
  <g id="Icon_feather-share-2" data-name="Icon feather-share-2" transform="translate(0.375 0.375)">
    <path id="Path_6502" data-name="Path 6502" d="M27.506,5.5A2.5,2.5,0,1,1,25,3,2.5,2.5,0,0,1,27.506,5.5Z" transform="translate(-12.487 -3)" fill="none" stroke="#4284d2" stroke-linecap="round" stroke-linejoin="round" stroke-width="0.75"/>
    <path id="Path_6503" data-name="Path 6503" d="M9.506,16A2.5,2.5,0,1,1,7,13.5,2.5,2.5,0,0,1,9.506,16Z" transform="translate(-4.5 -7.66)" fill="none" stroke="#4284d2" stroke-linecap="round" stroke-linejoin="round" stroke-width="0.75"/>
    <path id="Path_6504" data-name="Path 6504" d="M27.506,26.5A2.5,2.5,0,1,1,25,24,2.5,2.5,0,0,1,27.506,26.5Z" transform="translate(-12.487 -12.319)" fill="none" stroke="#4284d2" stroke-linecap="round" stroke-linejoin="round" stroke-width="0.75"/>
    <path id="Path_6505" data-name="Path 6505" d="M12.885,20.265l5.7,3.321" transform="translate(-8.221 -10.662)" fill="none" stroke="#4284d2" stroke-linecap="round" stroke-linejoin="round" stroke-width="0.75"/>
    <path id="Path_6506" data-name="Path 6506" d="M18.575,9.765l-5.69,3.321" transform="translate(-8.221 -6.002)" fill="none" stroke="#4284d2" stroke-linecap="round" stroke-linejoin="round" stroke-width="0.75"/>
  </g>
</svg>
