<svg xmlns="http://www.w3.org/2000/svg" width="24.924" height="24.098" viewBox="0 0 24.924 24.098">
  <path id="Icon_awesome-share" data-name="Icon awesome-share" d="M18.024,5.648,11.726.209a.859.859,0,0,0-1.42.65V3.724C4.558,3.79,0,4.942,0,10.389A7.315,7.315,0,0,0,2.982,15.9a.638.638,0,0,0,1-.667c-1.623-5.189.77-6.567,6.319-6.647v3.146a.859.859,0,0,0,1.42.65l6.3-5.439A.859.859,0,0,0,18.024,5.648Z" transform="translate(0.519 9.686) rotate(-30)" fill="none" stroke="#4279d0" stroke-width="0.75"/>
</svg>
