<svg xmlns="http://www.w3.org/2000/svg" width="21.52" height="23.731" viewBox="0 0 21.52 23.731">
  <path id="Icon_simple-email" data-name="Icon simple-email" d="M23.175,10.953a12.239,12.239,0,0,1-.394,2.654,7.682,7.682,0,0,1-1.032,2.331A5.446,5.446,0,0,1,20,17.595a4.938,4.938,0,0,1-2.555.63,3.7,3.7,0,0,1-1.848-.452,3.164,3.164,0,0,1-1.249-1.28A3.958,3.958,0,0,1,11,18.175,3.4,3.4,0,0,1,8.076,16.6a5.146,5.146,0,0,1-.727-1.821,7.854,7.854,0,0,1-.095-2.376A11.036,11.036,0,0,1,7.978,9.5,7.908,7.908,0,0,1,9.315,7.268a5.659,5.659,0,0,1,1.839-1.421,5.131,5.131,0,0,1,2.236-.5,6.953,6.953,0,0,1,1.338.114,5.475,5.475,0,0,1,1.038.311,5.613,5.613,0,0,1,.86.454c.262.169.526.344.789.522l-.65,7.474a2.484,2.484,0,0,0,.019.875,1.224,1.224,0,0,0,.267.54.961.961,0,0,0,.433.282,1.607,1.607,0,0,0,1.521-.3,3.243,3.243,0,0,0,.816-1.038,6.686,6.686,0,0,0,.549-1.56,10.7,10.7,0,0,0,.24-1.943,12.415,12.415,0,0,0-.305-3.63,7.216,7.216,0,0,0-1.344-2.809,6.239,6.239,0,0,0-2.408-1.809,8.741,8.741,0,0,0-3.509-.642,7.747,7.747,0,0,0-3.47.756,7.962,7.962,0,0,0-2.637,2.1A10.063,10.063,0,0,0,5.212,8.2a14.214,14.214,0,0,0-.727,3.93,13.068,13.068,0,0,0,.371,4.01,7.242,7.242,0,0,0,1.465,2.874A6.114,6.114,0,0,0,8.8,20.739a9.522,9.522,0,0,0,3.426.572,11.733,11.733,0,0,0,2.248-.242c.371-.074.722-.163,1.057-.261a7.958,7.958,0,0,0,.911-.326l.47,2.115a5.218,5.218,0,0,1-1.019.5,9.806,9.806,0,0,1-1.2.348,11.749,11.749,0,0,1-2.515.282,13.189,13.189,0,0,1-4.585-.738A8.439,8.439,0,0,1,4.25,20.8a9.23,9.23,0,0,1-2.006-3.629,15.479,15.479,0,0,1-.561-5.037,15.363,15.363,0,0,1,.964-4.834A11.964,11.964,0,0,1,4.969,3.454,10.582,10.582,0,0,1,8.512.919,11.092,11.092,0,0,1,13.1,0a11.58,11.58,0,0,1,4.446.8,8.647,8.647,0,0,1,3.209,2.239,9.19,9.19,0,0,1,1.9,3.46A13.229,13.229,0,0,1,23.175,10.953ZM10.44,12.406a5.045,5.045,0,0,0,.261,2.5,1.341,1.341,0,0,0,1.29.845,1.425,1.425,0,0,0,.442-.082,1.576,1.576,0,0,0,.509-.305,2.715,2.715,0,0,0,.516-.623,4.78,4.78,0,0,0,.475-1.053l.507-5.807a3.03,3.03,0,0,0-.789-.1,2.728,2.728,0,0,0-1.312.3,2.6,2.6,0,0,0-.93.884,5.19,5.19,0,0,0-.617,1.453,12.328,12.328,0,0,0-.35,1.987Z" transform="translate(-1.67)" fill="#438ed3"/>
</svg>
