<svg xmlns="http://www.w3.org/2000/svg" xmlns:xlink="http://www.w3.org/1999/xlink" width="19.622" height="17.215" viewBox="0 0 19.622 17.215">
  <defs>
    <linearGradient id="linear-gradient" x1="0.5" x2="0.5" y2="1" gradientUnits="objectBoundingBox">
      <stop offset="0" stop-color="#48dbe1"/>
      <stop offset="1" stop-color="#4166cd"/>
      <stop offset="1" stop-color="#236b73"/>
    </linearGradient>
  </defs>
  <g id="Outline" transform="translate(0.661)">
    <g id="Group_115" data-name="Group 115" transform="translate(-0.161)">
      <path id="Path_2517" data-name="Path 2517" d="M8.722,18.215h7.747a1.71,1.71,0,0,0,1.584-1.05l2.6-6.068a1.7,1.7,0,0,0,.121-.628V8.747a1.727,1.727,0,0,0-1.722-1.722H13.619l.818-3.934.026-.275a1.3,1.3,0,0,0-.379-.912L13.172,1,7.5,6.672A1.711,1.711,0,0,0,7,7.886v8.608A1.727,1.727,0,0,0,8.722,18.215Zm0-10.329L12.457,4.15,11.3,8.747h7.747v1.722l-2.582,6.025H8.722Z" transform="translate(-1.65 -1)" fill="url(#linear-gradient)"/>
      <rect id="Rectangle_65" data-name="Rectangle 65" width="3.441" height="9.462" rx="1.72" transform="translate(0 6.882)" stroke="rgba(0,0,0,0)" stroke-width="1" fill="url(#linear-gradient)"/>
    </g>
  </g>
</svg>
