<svg xmlns="http://www.w3.org/2000/svg" xmlns:xlink="http://www.w3.org/1999/xlink" width="46.255" height="50.492" viewBox="0 0 46.255 50.492">
  <defs>
    <filter id="Path_14326" x="0" y="0" width="46.255" height="50.492" filterUnits="userSpaceOnUse">
      <feOffset dy="3" input="SourceAlpha"/>
      <feGaussianBlur stdDeviation="5" result="blur"/>
      <feFlood flood-opacity="0.09"/>
      <feComposite operator="in" in2="blur"/>
      <feComposite in="SourceGraphic"/>
    </filter>
  </defs>
  <g transform="matrix(1, 0, 0, 1, 0, 0)" filter="url(#Path_14326)">
    <path id="Path_14326-2" data-name="Path 14326" d="M10.961,2.539A2.029,2.029,0,0,1,13.448.688l.34.086a1.794,1.794,0,0,1,1.319,1.258,12.211,12.211,0,0,1,.081,5.878q.288-.04.578-.067a8.349,8.349,0,0,1,3.28.273A2.708,2.708,0,0,1,20.61,9.776a2.473,2.473,0,0,1-.305,2.259,2.878,2.878,0,0,1,.18.473,4.3,4.3,0,0,1,0,2.231,2.706,2.706,0,0,1-.209.527,2.116,2.116,0,0,1,0,1.5,4.123,4.123,0,0,1-.636,1.174,1.824,1.824,0,0,1,.1.606,2.429,2.429,0,0,1-.33,1.189,2.811,2.811,0,0,1-2.521,1.388v-1.3a1.518,1.518,0,0,0,1.39-.73,1.127,1.127,0,0,0,.158-.542.344.344,0,0,0-.052-.222l-.461-.461.46-.461a2.883,2.883,0,0,0,.658-1.048c.136-.407.056-.575-.006-.636l-.46-.461.46-.461a.952.952,0,0,0,.2-.411,2.976,2.976,0,0,0,0-1.514.993.993,0,0,0-.2-.411L18.57,12l.46-.461a1.211,1.211,0,0,0,.348-1.329,1.433,1.433,0,0,0-.745-.85,7.1,7.1,0,0,0-2.75-.214,11.613,11.613,0,0,0-1.426.223l-.019,0h0a.652.652,0,0,1-.776-.838,10.869,10.869,0,0,0,.189-6.16.492.492,0,0,0-.375-.333l-.342-.085a.723.723,0,0,0-.87.675,15.757,15.757,0,0,1-.629,3.715,8.337,8.337,0,0,1-1.614,2.577,7.235,7.235,0,0,1-3.407,2.226.988.988,0,0,0-.808.848v5.217a.764.764,0,0,0,.721.717A6.881,6.881,0,0,1,9.771,19.06l.052.032a5.1,5.1,0,0,0,1.012.512,4.473,4.473,0,0,0,1.486.213h4.563v1.3H12.322a5.733,5.733,0,0,1-1.911-.284,6.284,6.284,0,0,1-1.265-.631l-.063-.039a5.592,5.592,0,0,0-2.7-.941A2.069,2.069,0,0,1,4.5,17.209V12A2.279,2.279,0,0,1,6.269,9.89,5.955,5.955,0,0,0,9.048,8.052,7.134,7.134,0,0,0,10.4,5.916a14.557,14.557,0,0,0,.558-3.376Z" transform="translate(10.5 11.37)" fill="#636363"/>
  </g>
</svg>
