<svg id="link-line" xmlns="http://www.w3.org/2000/svg" xmlns:xlink="http://www.w3.org/1999/xlink" width="17.238" height="17.13" viewBox="0 0 17.238 17.13">
  <defs>
    <linearGradient id="linear-gradient" x1="0.5" x2="0.5" y2="1" gradientUnits="objectBoundingBox">
      <stop offset="0" stop-color="#48dbe1"/>
      <stop offset="1" stop-color="#4166cd"/>
      <stop offset="1" stop-color="#236b73"/>
    </linearGradient>
  </defs>
  <path id="Path_13390" data-name="Path 13390" d="M14.438,21.24,12.67,22.994a2.875,2.875,0,0,1-4.04,0,2.818,2.818,0,0,1,0-3.99L12,15.662a2.875,2.875,0,0,1,4.04,0,2.775,2.775,0,0,1,.719,1.229,1.437,1.437,0,0,0,.194-.194l.927-.92a4.234,4.234,0,0,0-.827-1.165,4.313,4.313,0,0,0-6.067,0L7.609,17.984a4.248,4.248,0,0,0,0,6.031,4.313,4.313,0,0,0,6.067,0l2.624-2.6H15.94a5.751,5.751,0,0,1-1.5-.173Z" transform="translate(-6.353 -8.132)" fill="url(#linear-gradient)"/>
  <path id="Path_13391" data-name="Path 13391" d="M24.59,7.332a4.313,4.313,0,0,0-6.067,0L15.9,9.934h.352a5.751,5.751,0,0,1,1.51.2l1.768-1.754a2.875,2.875,0,0,1,4.04,0,2.818,2.818,0,0,1,0,3.99L20.2,15.714a2.875,2.875,0,0,1-4.04,0,2.775,2.775,0,0,1-.719-1.229,1.438,1.438,0,0,0-.2.165l-.927.92a4.234,4.234,0,0,0,.827,1.165,4.313,4.313,0,0,0,6.067,0l3.371-3.343a4.256,4.256,0,0,0,0-6.031Z" transform="translate(-8.59 -6.085)" fill="url(#linear-gradient)"/>
</svg>
