<svg xmlns="http://www.w3.org/2000/svg" xmlns:xlink="http://www.w3.org/1999/xlink" width="41.847" height="41.897" viewBox="0 0 41.847 41.897">
  <defs>
    <filter id="Ellipse_104" x="0.794" y="0" width="41" height="41" filterUnits="userSpaceOnUse">
      <feOffset dy="3" input="SourceAlpha"/>
      <feGaussianBlur stdDeviation="1.5" result="blur"/>
      <feFlood flood-opacity="0.22"/>
      <feComposite operator="in" in2="blur"/>
      <feComposite in="SourceGraphic"/>
    </filter>
    <linearGradient id="linear-gradient" x1="0.5" x2="0.5" y2="1" gradientUnits="objectBoundingBox">
      <stop offset="0" stop-color="#48dbe1"/>
      <stop offset="1" stop-color="#4166cd"/>
      <stop offset="1" stop-color="#236b73"/>
    </linearGradient>
    <filter id="list-bullet" x="0" y="0.049" width="41.847" height="41.847" filterUnits="userSpaceOnUse">
      <feOffset dy="3" input="SourceAlpha"/>
      <feGaussianBlur stdDeviation="5" result="blur-2"/>
      <feFlood flood-opacity="0.09"/>
      <feComposite operator="in" in2="blur-2"/>
      <feComposite in="SourceGraphic"/>
    </filter>
  </defs>
  <g id="Group_17307" data-name="Group 17307" transform="translate(-15.705 -382.5)">
    <g transform="matrix(1, 0, 0, 1, 15.71, 382.5)" filter="url(#Ellipse_104)">
      <circle id="Ellipse_104-2" data-name="Ellipse 104" cx="16" cy="16" r="16" transform="translate(5.29 1.5)" fill="#fff"/>
    </g>
    <circle id="Ellipse_104-3" data-name="Ellipse 104" cx="14" cy="14" r="14" transform="translate(22.999 386)" fill="url(#linear-gradient)"/>
    <g transform="matrix(1, 0, 0, 1, 15.71, 382.5)" filter="url(#list-bullet)">
      <path id="list-bullet-2" data-name="list-bullet" d="M11.74,5.158H5.158a.658.658,0,0,0,0,1.316H11.74a.658.658,0,0,0,0-1.316Zm0,4.607H5.158a.658.658,0,0,0,0,1.316H11.74a.658.658,0,0,0,0-1.316Zm0,4.607H5.158a.658.658,0,0,0,0,1.316H11.74a.658.658,0,0,0,0-1.316Zm3.291-7.24a1.316,1.316,0,1,0-1.316-1.316A1.316,1.316,0,0,0,15.031,7.133Zm0,4.607a1.316,1.316,0,1,0-1.316-1.316A1.316,1.316,0,0,0,15.031,11.74Zm0,4.607a1.316,1.316,0,1,0-1.316-1.316A1.316,1.316,0,0,0,15.031,16.347Z" transform="translate(10.5 7.55)" fill="#fff"/>
    </g>
  </g>
</svg>
