<svg xmlns="http://www.w3.org/2000/svg" xmlns:xlink="http://www.w3.org/1999/xlink" width="23" height="23.333" viewBox="0 0 23 23.333">
  <defs>
    <linearGradient id="linear-gradient" x1="0.5" x2="0.5" y2="1" gradientUnits="objectBoundingBox">
      <stop offset="0" stop-color="#48dbe1"/>
      <stop offset="1" stop-color="#4166cd"/>
      <stop offset="1" stop-color="#236b73"/>
    </linearGradient>
  </defs>
  <path id="list-bullet" d="M17.944,5.741H5.722a1.241,1.241,0,0,0,0,2.481H17.944a1.241,1.241,0,0,0,0-2.481Zm0,8.685H5.722a1.241,1.241,0,0,0,0,2.481H17.944a1.241,1.241,0,0,0,0-2.481Zm0,8.685H5.722a1.241,1.241,0,0,0,0,2.481H17.944a1.241,1.241,0,0,0,0-2.481ZM24.056,9.463a2.482,2.482,0,1,0-2.444-2.482A2.463,2.463,0,0,0,24.056,9.463Zm0,8.685a2.482,2.482,0,1,0-2.444-2.481A2.463,2.463,0,0,0,24.056,18.148Zm0,8.685a2.482,2.482,0,1,0-2.444-2.481A2.463,2.463,0,0,0,24.056,26.833Z" transform="translate(-4 -4)" stroke="rgba(0,0,0,0)" stroke-width="1" fill="url(#linear-gradient)"/>
</svg>
