<svg xmlns="http://www.w3.org/2000/svg" xmlns:xlink="http://www.w3.org/1999/xlink" width="41" height="41" viewBox="0 0 41 41">
  <defs>
    <filter id="Ellipse_104" x="0" y="0" width="41" height="41" filterUnits="userSpaceOnUse">
      <feOffset dy="3" input="SourceAlpha"/>
      <feGaussianBlur stdDeviation="1.5" result="blur"/>
      <feFlood flood-opacity="0.22"/>
      <feComposite operator="in" in2="blur"/>
      <feComposite in="SourceGraphic"/>
    </filter>
    <linearGradient id="linear-gradient" x1="0.5" x2="0.5" y2="1" gradientUnits="objectBoundingBox">
      <stop offset="0" stop-color="#48dbe1"/>
      <stop offset="1" stop-color="#4166cd"/>
      <stop offset="1" stop-color="#236b73"/>
    </linearGradient>
  </defs>
  <g id="Group_17309" data-name="Group 17309" transform="translate(-16.5 -425.5)">
    <g transform="matrix(1, 0, 0, 1, 16.5, 425.5)" filter="url(#Ellipse_104)">
      <circle id="Ellipse_104-2" data-name="Ellipse 104" cx="16" cy="16" r="16" transform="translate(4.5 1.5)" fill="#fff"/>
    </g>
    <circle id="Ellipse_104-3" data-name="Ellipse 104" cx="14" cy="14" r="14" transform="translate(23 429)" fill="url(#linear-gradient)"/>
    <path id="Path_13878" data-name="Path 13878" d="M15.984,2.3s0,0,0-.007a.426.426,0,0,0-.426-.426H7.809v0L2.89,6.785h0v8.636h0a.427.427,0,0,0,.426.426H15.559a.426.426,0,0,0,.416-.335h.01v-.084s0,0,0-.007,0,0,0-.007Zm-3.795,1.12h2.242V7.255L11.605,4.43l.584-1.011ZM7.81,7.211h0a.426.426,0,0,0,.425-.426V3.418h3.056L7.052,10.76,4.443,8.151V7.212H7.81ZM4.443,14.295V9.251l2.206,2.206L5.011,14.295H4.443Zm1.466,0L11.2,5.127l3.229,3.229v5.939Z" transform="translate(27.191 434.49)" fill="#fff"/>
    <path id="Path_13879" data-name="Path 13879" d="M19.878,16.407a1.874,1.874,0,0,0-1.512,2.984l1.21,2.1a.319.319,0,0,0,.025.042l0,0h0a.337.337,0,0,0,.531.021l0,0,.012-.02a.351.351,0,0,0,.045-.078L21.381,19.4a1.874,1.874,0,0,0-1.5-3Zm-.019,2.827a.924.924,0,1,1,.924-.924A.924.924,0,0,1,19.859,19.234Z" transform="translate(18.627 426.249)" fill="#fff"/>
  </g>
</svg>
