<svg xmlns="http://www.w3.org/2000/svg" xmlns:xlink="http://www.w3.org/1999/xlink" width="41" height="41" viewBox="0 0 41 41">
  <defs>
    <filter id="Ellipse_104" x="0" y="0" width="41" height="41" filterUnits="userSpaceOnUse">
      <feOffset dy="3" input="SourceAlpha"/>
      <feGaussianBlur stdDeviation="1.5" result="blur"/>
      <feFlood flood-opacity="0.22"/>
      <feComposite operator="in" in2="blur"/>
      <feComposite in="SourceGraphic"/>
    </filter>
    <linearGradient id="linear-gradient" x1="0.5" x2="0.5" y2="1" gradientUnits="objectBoundingBox">
      <stop offset="0" stop-color="#48dbe1"/>
      <stop offset="1" stop-color="#4166cd"/>
      <stop offset="1" stop-color="#236b73"/>
    </linearGradient>
  </defs>
  <g id="Group_17311" data-name="Group 17311" transform="translate(-18.5 -555.5)">
    <g transform="matrix(1, 0, 0, 1, 18.5, 555.5)" filter="url(#Ellipse_104)">
      <circle id="Ellipse_104-2" data-name="Ellipse 104" cx="16" cy="16" r="16" transform="translate(4.5 1.5)" fill="#fff"/>
    </g>
    <circle id="Ellipse_104-3" data-name="Ellipse 104" cx="14" cy="14" r="14" transform="translate(25 559)" fill="url(#linear-gradient)"/>
    <path id="md-key" d="M10.33,13.176a3.789,3.789,0,0,0-3.464-2.489,3.519,3.519,0,0,0-3.492,3.6,3.576,3.576,0,0,0,3.561,3.6,3.7,3.7,0,0,0,3.395-2.489h3.554V17.6h2.389V15.389h1.483V13.176Zm-3.374,2.3a1.193,1.193,0,1,1,1.193-1.193A1.2,1.2,0,0,1,6.957,15.475Z" transform="translate(28.435 558.718)" fill="#fff"/>
  </g>
</svg>
