<svg xmlns="http://www.w3.org/2000/svg" xmlns:xlink="http://www.w3.org/1999/xlink" width="19.75" height="20.912" viewBox="0 0 19.75 20.912">
  <defs>
    <linearGradient id="linear-gradient" x1="0.5" x2="0.5" y2="1" gradientUnits="objectBoundingBox">
      <stop offset="0" stop-color="#48dbe1"/>
      <stop offset="1" stop-color="#4166cd"/>
      <stop offset="1" stop-color="#236b73"/>
    </linearGradient>
  </defs>
  <g id="Group_13499" data-name="Group 13499" transform="translate(-255.668 -741.102)">
    <g id="icon_50_" transform="translate(255.668 741.102)">
      <path id="Path_3868" data-name="Path 3868" d="M278.384,762.013h-4.647a1.161,1.161,0,1,1,0-2.323h4.647a2.326,2.326,0,0,0,2.324-2.324V745.749a2.326,2.326,0,0,0-2.324-2.324h-4.647a1.162,1.162,0,1,1,0-2.323h4.647a4.653,4.653,0,0,1,4.647,4.647v11.618A4.652,4.652,0,0,1,278.384,762.013Z" transform="translate(-263.281 -741.102)" fill="url(#linear-gradient)"/>
      <path id="Path_3869" data-name="Path 3869" d="M273.736,760.523a1.162,1.162,0,0,1-.821-1.983l2.664-2.664-2.664-2.664a1.162,1.162,0,0,1,1.643-1.643l3.485,3.485a1.162,1.162,0,0,1,0,1.643l-3.485,3.485A1.159,1.159,0,0,1,273.736,760.523Z" transform="translate(-263.281 -745.42)" fill="url(#linear-gradient)"/>
      <path id="Path_3870" data-name="Path 3870" d="M267.989,759.6H257.534a1.162,1.162,0,0,1,0-2.323h10.456a1.162,1.162,0,0,1,0,2.323Z" transform="translate(-256.372 -748.001)" fill="url(#linear-gradient)"/>
    </g>
  </g>
</svg>
