<svg id="Component_47_1" data-name="Component 47 – 1" xmlns="http://www.w3.org/2000/svg" width="142.238" height="176.296" viewBox="0 0 142.238 176.296">
  <rect id="Rectangle_4246" data-name="Rectangle 4246" width="42.259" height="85.714" rx="4.484" transform="translate(98.601 61.646)" fill="#ffc943"/>
  <path id="Path_12674" data-name="Path 12674" d="M120.414,132.225H90.507a7.561,7.561,0,0,1-7.553-7.553V51.309a7.561,7.561,0,0,1,7.553-7.553h29.907a7.561,7.561,0,0,1,7.553,7.553v73.363A7.561,7.561,0,0,1,120.414,132.225ZM90.507,46.511a4.805,4.805,0,0,0-4.8,4.8v73.363a4.805,4.805,0,0,0,4.8,4.8h29.907a4.805,4.805,0,0,0,4.8-4.8V51.309a4.805,4.805,0,0,0-4.8-4.8Z" transform="translate(14.271 16.513)" fill="#2f3a5a"/>
  <rect id="Rectangle_4247" data-name="Rectangle 4247" width="103.55" height="145.185" rx="9.472" transform="translate(1.378 29.734)" fill="#9297ab"/>
  <path id="Path_12675" data-name="Path 12675" d="M115.99,34.576v119.1a13.044,13.044,0,0,1-13.054,13.044H25.484a13,13,0,0,1-9.664-4.279,13.1,13.1,0,0,0,2.147.185H95.419a13.044,13.044,0,0,0,13.037-13.054V30.482a12.931,12.931,0,0,0-3.389-8.759A13.029,13.029,0,0,1,115.99,34.576Z" transform="translate(-11.057 8.201)" fill="#84879c"/>
  <path id="Path_12676" data-name="Path 12676" d="M104.244,168.525H26.786A14.441,14.441,0,0,1,12.362,154.1V35.008A14.441,14.441,0,0,1,26.786,20.584h77.458a14.441,14.441,0,0,1,14.424,14.424V154.1A14.441,14.441,0,0,1,104.244,168.525ZM26.786,23.339a11.682,11.682,0,0,0-11.67,11.67V154.1a11.682,11.682,0,0,0,11.67,11.67h77.458a11.682,11.682,0,0,0,11.67-11.67V35.008a11.682,11.682,0,0,0-11.67-11.67Z" transform="translate(-12.362 7.771)" fill="#2f3a5a"/>
  <path id="Path_12677" data-name="Path 12677" d="M23.93,37.18H98.371V66.557H23.93Z" transform="translate(-7.997 14.032)" fill="#81dafc"/>
  <path id="Path_12678" data-name="Path 12678" d="M23.828,68.03H42.237v11.5H23.828Z" transform="translate(-8.036 25.671)" fill="#d9e2e9"/>
  <path id="Path_12679" data-name="Path 12679" d="M42.614,81.287H24.205a1.377,1.377,0,0,1-1.377-1.377v-11.5a1.377,1.377,0,0,1,1.377-1.377H42.614a1.377,1.377,0,0,1,1.377,1.377v11.5A1.377,1.377,0,0,1,42.614,81.287ZM25.583,78.533H41.237V69.785H25.583Z" transform="translate(-8.413 25.294)" fill="#2f3a5a"/>
  <path id="Path_12680" data-name="Path 12680" d="M44.171,68.03H62.58v11.5H44.171Z" transform="translate(-0.362 25.671)" fill="#d9e2e9"/>
  <path id="Path_12681" data-name="Path 12681" d="M62.957,81.287H44.548a1.377,1.377,0,0,1-1.377-1.377v-11.5a1.377,1.377,0,0,1,1.377-1.377H62.957a1.377,1.377,0,0,1,1.377,1.377v11.5A1.377,1.377,0,0,1,62.957,81.287ZM45.926,78.533H61.58V69.785H45.926Z" transform="translate(-0.739 25.294)" fill="#2f3a5a"/>
  <path id="Path_12682" data-name="Path 12682" d="M64.514,68.03H82.923v11.5H64.514Z" transform="translate(7.314 25.671)" fill="#d9e2e9"/>
  <path id="Path_12683" data-name="Path 12683" d="M83.3,81.287H64.891a1.377,1.377,0,0,1-1.377-1.377v-11.5a1.377,1.377,0,0,1,1.377-1.377H83.3a1.377,1.377,0,0,1,1.377,1.377v11.5A1.377,1.377,0,0,1,83.3,81.287ZM66.269,78.533H81.923V69.785H66.269Z" transform="translate(6.937 25.294)" fill="#2f3a5a"/>
  <path id="Path_12684" data-name="Path 12684" d="M23.828,82.1H42.237V93.6H23.828Z" transform="translate(-8.036 30.979)" fill="#d9e2e9"/>
  <path id="Path_12685" data-name="Path 12685" d="M42.614,95.355H24.205a1.377,1.377,0,0,1-1.377-1.377v-11.5A1.377,1.377,0,0,1,24.205,81.1H42.614a1.377,1.377,0,0,1,1.377,1.377v11.5A1.377,1.377,0,0,1,42.614,95.355ZM25.583,92.6H41.237V83.855H25.583Z" transform="translate(-8.413 30.602)" fill="#2f3a5a"/>
  <path id="Path_12686" data-name="Path 12686" d="M44.171,82.1H62.58V93.6H44.171Z" transform="translate(-0.362 30.979)" fill="#d9e2e9"/>
  <path id="Path_12687" data-name="Path 12687" d="M62.957,95.355H44.548a1.377,1.377,0,0,1-1.377-1.377v-11.5A1.377,1.377,0,0,1,44.548,81.1H62.957a1.377,1.377,0,0,1,1.377,1.377v11.5A1.377,1.377,0,0,1,62.957,95.355ZM45.926,92.6H61.58V83.855H45.926Z" transform="translate(-0.739 30.602)" fill="#2f3a5a"/>
  <path id="Path_12688" data-name="Path 12688" d="M64.514,82.1H82.923V93.6H64.514Z" transform="translate(7.314 30.979)" fill="#d9e2e9"/>
  <path id="Path_12689" data-name="Path 12689" d="M83.3,95.355H64.891a1.377,1.377,0,0,1-1.377-1.377v-11.5A1.377,1.377,0,0,1,64.891,81.1H83.3a1.377,1.377,0,0,1,1.377,1.377v11.5A1.377,1.377,0,0,1,83.3,95.355ZM66.269,92.6H81.923V83.855H66.269Z" transform="translate(6.937 30.602)" fill="#2f3a5a"/>
  <path id="Path_12690" data-name="Path 12690" d="M23.828,96.165H42.237v11.5H23.828Z" transform="translate(-8.036 36.286)" fill="#d9e2e9"/>
  <path id="Path_12691" data-name="Path 12691" d="M42.614,109.424H24.205a1.377,1.377,0,0,1-1.377-1.377v-11.5a1.377,1.377,0,0,1,1.377-1.377H42.614a1.377,1.377,0,0,1,1.377,1.377v11.5A1.377,1.377,0,0,1,42.614,109.424Zm-17.031-2.755H41.237V97.921H25.583Z" transform="translate(-8.413 35.909)" fill="#2f3a5a"/>
  <path id="Path_12692" data-name="Path 12692" d="M44.171,96.165H62.58v11.5H44.171Z" transform="translate(-0.362 36.286)" fill="#d9e2e9"/>
  <path id="Path_12693" data-name="Path 12693" d="M62.957,109.424H44.548a1.377,1.377,0,0,1-1.377-1.377v-11.5a1.377,1.377,0,0,1,1.377-1.377H62.957a1.377,1.377,0,0,1,1.377,1.377v11.5A1.377,1.377,0,0,1,62.957,109.424Zm-17.031-2.755H61.58V97.921H45.926Z" transform="translate(-0.739 35.909)" fill="#2f3a5a"/>
  <path id="Path_12694" data-name="Path 12694" d="M64.514,96.165H82.923v11.5H64.514Z" transform="translate(7.314 36.286)" fill="#d9e2e9"/>
  <path id="Path_12695" data-name="Path 12695" d="M83.3,109.424H64.891a1.377,1.377,0,0,1-1.377-1.377v-11.5a1.377,1.377,0,0,1,1.377-1.377H83.3a1.377,1.377,0,0,1,1.377,1.377v11.5A1.377,1.377,0,0,1,83.3,109.424Zm-17.031-2.755H81.923V97.921H66.269Z" transform="translate(6.937 35.909)" fill="#2f3a5a"/>
  <path id="Path_12696" data-name="Path 12696" d="M23.828,110.233H42.237v11.5H23.828Z" transform="translate(-8.036 41.593)" fill="#d9e2e9"/>
  <path id="Path_12697" data-name="Path 12697" d="M42.614,123.491H24.205a1.377,1.377,0,0,1-1.377-1.377v-11.5a1.377,1.377,0,0,1,1.377-1.377H42.614a1.377,1.377,0,0,1,1.377,1.377v11.5A1.377,1.377,0,0,1,42.614,123.491Zm-17.031-2.755H41.237v-8.748H25.583Z" transform="translate(-8.413 41.216)" fill="#2f3a5a"/>
  <path id="Path_12698" data-name="Path 12698" d="M44.272,110.132H62.681v11.5H44.272Z" transform="translate(-0.323 41.555)" fill="#d9e2e9"/>
  <path id="Path_12699" data-name="Path 12699" d="M63.058,123.39H44.649a1.377,1.377,0,0,1-1.377-1.377v-11.5a1.377,1.377,0,0,1,1.377-1.377H63.058a1.377,1.377,0,0,1,1.377,1.377v11.5A1.377,1.377,0,0,1,63.058,123.39Zm-17.03-2.755H61.681v-8.748H46.027Z" transform="translate(-0.7 41.178)" fill="#2f3a5a"/>
  <path id="Path_12700" data-name="Path 12700" d="M64.615,110.132H83.024v11.5H64.615Z" transform="translate(7.351 41.555)" fill="#d9e2e9"/>
  <path id="Path_12701" data-name="Path 12701" d="M83.4,123.39H64.992a1.377,1.377,0,0,1-1.377-1.377v-11.5a1.377,1.377,0,0,1,1.377-1.377H83.4a1.377,1.377,0,0,1,1.377,1.377v11.5A1.377,1.377,0,0,1,83.4,123.39Zm-17.03-2.755H82.022v-8.748H66.37Z" transform="translate(6.974 41.178)" fill="#2f3a5a"/>
  <path id="Path_12702" data-name="Path 12702" d="M98.611,30.92h-74.3a1.377,1.377,0,0,1,0-2.755h74.3a1.377,1.377,0,1,1,0,2.755Z" transform="translate(-8.376 10.631)" fill="#2f3a5a"/>
  <path id="Path_12703" data-name="Path 12703" d="M85.241,1V39.794H31.413V1.084L38.36,8.031l6.678-6.678,6.678,6.678L58.4,1.369l6.66,6.662L71.633,1.47l6.561,6.561Z" transform="translate(-5.174 0.383)" fill="#d9e2e9"/>
  <g id="Group_11637" data-name="Group 11637" transform="translate(24.861)">
    <path id="Path_12704" data-name="Path 12704" d="M85.624,41.55H31.79a1.377,1.377,0,0,1-1.377-1.377V1.463A1.377,1.377,0,0,1,32.764.489l5.973,5.972,5.706-5.7a1.377,1.377,0,0,1,1.947,0L52.1,6.464,57.8.773a1.377,1.377,0,0,1,1.946,0l5.688,5.688,5.6-5.588a1.377,1.377,0,0,1,1.946,0l5.589,5.588L84.646.4A1.377,1.377,0,0,1,87,1.379V40.172A1.377,1.377,0,0,1,85.624,41.55ZM33.173,38.8H84.246V4.7l-4.7,4.683a1.377,1.377,0,0,1-1.946,0L72.009,3.794l-5.6,5.59a1.377,1.377,0,0,1-1.946,0L58.767,3.7l-5.7,5.69a1.377,1.377,0,0,1-1.946,0l-5.7-5.706-5.7,5.7a1.377,1.377,0,0,1-1.947,0l-4.6-4.6Z" transform="translate(-30.413 0.004)" fill="#2f3a5a"/>
    <path id="Path_12705" data-name="Path 12705" d="M74.606,16.11H38.067a1.377,1.377,0,0,1,0-2.755H74.606a1.377,1.377,0,0,1,0,2.755Z" transform="translate(-28.045 5.044)" fill="#2f3a5a"/>
    <path id="Path_12706" data-name="Path 12706" d="M74.606,22.878H38.067a1.377,1.377,0,0,1,0-2.755H74.606a1.377,1.377,0,0,1,0,2.755Z" transform="translate(-28.045 7.597)" fill="#2f3a5a"/>
  </g>
  <path id="Path_12707" data-name="Path 12707" d="M98.019,44.756h9.719V130.47H98.019Z" transform="translate(19.954 16.891)" fill="#707583"/>
  <path id="Path_12708" data-name="Path 12708" d="M108.116,132.225H98.4a1.377,1.377,0,0,1-1.377-1.377V45.133A1.377,1.377,0,0,1,98.4,43.756h9.721a1.377,1.377,0,0,1,1.377,1.377v85.714A1.377,1.377,0,0,1,108.116,132.225Zm-8.344-2.755h6.966V46.511H99.774Z" transform="translate(19.577 16.513)" fill="#2f3a5a"/>
  <g id="Group_11638" data-name="Group 11638" transform="translate(28.742 51.212)" opacity="0.5">
    <path id="Path_12709" data-name="Path 12709" d="M59.687,37.18,39.1,66.557H33.23L53.82,37.18Z" transform="translate(-33.23 -37.18)" fill="#d9e2e9"/>
    <path id="Path_12710" data-name="Path 12710" d="M80.3,37.18,59.721,66.557H42.96L63.55,37.18Z" transform="translate(-29.559 -37.18)" fill="#d9e2e9"/>
  </g>
  <path id="Path_12711" data-name="Path 12711" d="M98.749,68.309H24.307a1.377,1.377,0,0,1-1.377-1.377V37.557a1.377,1.377,0,0,1,1.377-1.377H98.749a1.377,1.377,0,0,1,1.377,1.377V66.932A1.377,1.377,0,0,1,98.749,68.309ZM25.683,65.554H97.371V38.935H25.685Z" transform="translate(-8.376 13.655)" fill="#2f3a5a"/>
</svg>
