<svg xmlns="http://www.w3.org/2000/svg" xmlns:xlink="http://www.w3.org/1999/xlink" width="49.049" height="49.048" viewBox="0 0 49.049 49.048">
  <defs>
    <linearGradient id="linear-gradient" x1="0.5" x2="0.5" y2="1" gradientUnits="objectBoundingBox">
      <stop offset="0" stop-color="#48dbe1"/>
      <stop offset="1" stop-color="#4166cd"/>
      <stop offset="1" stop-color="#236b73"/>
    </linearGradient>
    <filter id="Path_3836" x="0" y="0" width="49.049" height="49.048" filterUnits="userSpaceOnUse">
      <feOffset dy="3" input="SourceAlpha"/>
      <feGaussianBlur stdDeviation="5" result="blur"/>
      <feFlood flood-opacity="0.09"/>
      <feComposite operator="in" in2="blur"/>
      <feComposite in="SourceGraphic"/>
    </filter>
  </defs>
  <g transform="matrix(1, 0, 0, 1, 0, 0)" filter="url(#Path_3836)">
    <path id="Path_3836-2" data-name="Path 3836" d="M605.2,228.833a1.907,1.907,0,0,1-1.9-1.9l.013-.158a.939.939,0,0,0-.469-.885,2.081,2.081,0,0,0-.616-.257.945.945,0,0,0-.964.295l-.1.12a1.954,1.954,0,0,1-2.694,0,1.908,1.908,0,0,1,0-2.693l.121-.1a.943.943,0,0,0,.3-.964,2.067,2.067,0,0,0-.257-.615.944.944,0,0,0-.9-.465l-.138.01a1.9,1.9,0,0,1,0-3.81l.157.013a.94.94,0,0,0,.885-.469,2.068,2.068,0,0,0,.257-.615.944.944,0,0,0-.311-.975l-.105-.091a1.908,1.908,0,0,1,0-2.693,1.952,1.952,0,0,1,2.695,0l.1.12a.941.941,0,0,0,.964.295,2.07,2.07,0,0,0,.618-.258.938.938,0,0,0,.464-.9l-.01-.138a1.9,1.9,0,1,1,3.81,0l-.013.158a.938.938,0,0,0,.469.885,2.079,2.079,0,0,0,.616.257.944.944,0,0,0,.964-.295l.1-.12a1.954,1.954,0,0,1,2.695,0,1.908,1.908,0,0,1,0,2.693l-.121.1a.943.943,0,0,0-.3.964,2.067,2.067,0,0,0,.257.615.944.944,0,0,0,.9.466l.138-.01a1.9,1.9,0,1,1,0,3.81l-.157-.013a.94.94,0,0,0-.885.469,2.072,2.072,0,0,0-.257.615.944.944,0,0,0,.311.975l.105.091a1.908,1.908,0,0,1,0,2.693,1.954,1.954,0,0,1-2.695,0l-.1-.12a.936.936,0,0,0-.964-.295,2.07,2.07,0,0,0-.618.258.938.938,0,0,0-.464.9l.01.138A1.907,1.907,0,0,1,605.2,228.833Zm-3.236-5.142a3.027,3.027,0,0,1,.691.081,3.961,3.961,0,0,1,1.191.5,1.5,1.5,0,1,0,2.707,0,3.958,3.958,0,0,1,1.193-.5,2.842,2.842,0,0,1,2.475.556,2.846,2.846,0,0,1-.556-2.475,3.944,3.944,0,0,1,.5-1.191,2.837,2.837,0,0,1,2.138-1.354,2.837,2.837,0,0,1-2.138-1.353,3.936,3.936,0,0,1-.5-1.192,2.844,2.844,0,0,1,.555-2.476,2.845,2.845,0,0,1-2.475.556,3.961,3.961,0,0,1-1.191-.5,1.5,1.5,0,1,0-2.707,0,3.958,3.958,0,0,1-1.193.5,2.844,2.844,0,0,1-2.475-.556,2.845,2.845,0,0,1,.556,2.475,3.941,3.941,0,0,1-.5,1.191,2.837,2.837,0,0,1-2.138,1.354,2.838,2.838,0,0,1,2.138,1.353,3.934,3.934,0,0,1,.5,1.192,2.844,2.844,0,0,1-.555,2.476A2.84,2.84,0,0,1,601.962,223.691Z" transform="translate(-580.67 -197.79)" fill="url(#linear-gradient)"/>
  </g>
</svg>
