<svg xmlns="http://www.w3.org/2000/svg" width="55.456" height="33.393" viewBox="0 0 55.456 33.393">
  <g id="Mastercard" transform="translate(0 0.1)">
    <path id="Path_15" data-name="Path 15" d="M861.675,28.963A16.383,16.383,0,0,0,872.8,33.291,16.7,16.7,0,0,0,872.8-.1a16.383,16.383,0,0,0-11.121,4.328,16.708,16.708,0,0,0,0,24.736Z" transform="translate(-833.932)" fill="#e9b040"/>
    <path id="Path_16" data-name="Path 16" d="M2047.5,980.215a.513.513,0,0,1,.515-.515.52.52,0,0,1,.543.515.526.526,0,0,1-.543.543A.52.52,0,0,1,2047.5,980.215Zm.515.432a.44.44,0,0,0,.429-.429.416.416,0,0,0-.429-.4.409.409,0,0,0-.4.4A.438.438,0,0,0,2048.015,980.647Zm-.057-.174h-.115v-.486h.2a.173.173,0,0,1,.115.029c.057.029.057.057.057.114s-.029.115-.086.115l.115.229h-.143l-.057-.2h-.086v-.086h.114c.029,0,.029-.029.029-.057s0-.029-.029-.057h-.114Z" transform="translate(-1994.25 -954.318)" fill="#e9b040"/>
    <path id="Path_17" data-name="Path 17" d="M33.1,14.931c-.057-.6-.172-1.176-.286-1.776H22.671a17.392,17.392,0,0,1,.458-1.748h9.2q-.3-.905-.687-1.776h-7.8c.286-.606.6-1.2.947-1.776h5.875A14.823,14.823,0,0,0,29.4,6.107H26.052a16.289,16.289,0,0,1,1.69-1.776A16.648,16.648,0,1,0,16.593,33.391a16.455,16.455,0,0,0,11.149-4.328A15.746,15.746,0,0,0,29.4,27.316H26.052a19.846,19.846,0,0,1-1.261-1.776h5.875a13.532,13.532,0,0,0,.975-1.776h-7.8c-.257-.572-.515-1.147-.718-1.748h9.2a18.033,18.033,0,0,0,.486-1.776,17.687,17.687,0,0,0,.286-1.776c.057-.58.086-1.165.086-1.748a17.349,17.349,0,0,0-.083-1.784Z" transform="translate(0 -0.097)" fill="#cc2131"/>
    <path id="Path_18" data-name="Path 18" d="M2047.5,770.844a.52.52,0,0,1,.515-.544.526.526,0,0,1,.543.544.543.543,0,0,1-.543.544A.536.536,0,0,1,2047.5,770.844Zm.515.4a.4.4,0,1,0,0-.8.4.4,0,1,0,0,.8Zm-.057-.174h-.115v-.458h.315c.057.029.057.086.057.143a.154.154,0,0,1-.086.114l.115.2h-.143l-.057-.172h-.086v-.086h.057c.029,0,.057,0,.057-.029.029,0,.029-.029.029-.057a.028.028,0,0,0-.029-.029c0-.029-.028,0-.057,0h-.057Z" transform="translate(-1994.25 -750.364)" fill="#fff"/>
    <path id="Path_19" data-name="Path 19" d="M98.815,478.632l-.315,1.834a3.447,3.447,0,0,0-1.6-.458c-1.347,0-2.294,1.319-2.294,3.181,0,1.29.629,2.062,1.69,2.062a3.52,3.52,0,0,0,1.519-.429l-.315,1.919a5.991,5.991,0,0,1-1.576.258c-1.948,0-3.152-1.4-3.152-3.667,0-3.009,1.662-5.131,4.042-5.131a3.52,3.52,0,0,1,.83.086l.718.172c.229.088.286.117.458.174Zm-5.789,1.261h-.172c-.6,0-.947.286-1.49,1.118l.172-1.061H89.9l-1.118,6.879h1.8c.658-4.213.83-4.928,1.69-4.928h.114a7.183,7.183,0,0,1,.687-1.977l-.052-.031Zm-10.374,6.85a3.728,3.728,0,0,1-1.29.229,1.325,1.325,0,0,1-1.433-1.519,4.79,4.79,0,0,1,.057-.6l.114-.687.086-.544.775-4.7h1.776l-.2,1.032h.918l-.229,1.69h-.921l-.486,2.866a1.073,1.073,0,0,0-.029.286c0,.343.172.486.6.486a1.189,1.189,0,0,0,.486-.057l-.226,1.519Zm-6.908-4.616a2,2,0,0,0,1.347,1.919c.746.343.861.458.861.746,0,.429-.315.629-1.033.629a5.367,5.367,0,0,1-1.6-.257l-.257,1.576.086.029.315.057a1.869,1.869,0,0,0,.486.057,6.65,6.65,0,0,0,.975.057c1.891,0,2.78-.718,2.78-2.294a1.9,1.9,0,0,0-1.261-1.919c-.775-.343-.861-.429-.861-.746,0-.372.315-.544.889-.544a11.205,11.205,0,0,1,1.29.086l.257-1.576a10.41,10.41,0,0,0-1.576-.143c-2.008,0-2.723,1.064-2.694,2.323Zm36.8,4.7h-1.69l.086-.661a2.149,2.149,0,0,1-1.662.746c-1.319,0-2.177-1.118-2.177-2.837,0-2.294,1.347-4.242,2.923-4.242a2.052,2.052,0,0,1,1.719.947l.4-2.408h1.776l-1.376,8.455Zm-2.637-1.6c.832,0,1.4-.975,1.4-2.322,0-.889-.315-1.347-.947-1.347-.8,0-1.4.947-1.4,2.294,0,.915.317,1.376.947,1.376Zm-21.753,1.459a5.9,5.9,0,0,1-1.862.286c-2.005,0-3.038-1.061-3.038-3.095,0-2.351,1.319-4.1,3.123-4.1a2.3,2.3,0,0,1,2.437,2.494,6.94,6.94,0,0,1-.229,1.719H85.029a.558.558,0,0,0-.029.2c0,.8.544,1.2,1.576,1.2a3.946,3.946,0,0,0,1.862-.429l-.286,1.719Zm-1-4.1v-.343a.794.794,0,0,0-.861-.889c-.572,0-.975.429-1.147,1.233Zm-18.257,4.242H67.117l1.032-6.507-2.322,6.507H64.595l-.143-6.45-1.09,6.45H61.7l1.4-8.455h2.58l.086,5.246,1.719-5.246H70.3l-1.4,8.455Zm4.442-3.066c-.172,0-.257-.029-.4-.029-1,0-1.519.372-1.519,1.061a.6.6,0,0,0,.629.687c.746,0,1.261-.689,1.29-1.719Zm1.319,3.066h-1.49l.029-.718a2.235,2.235,0,0,1-1.891.832,1.664,1.664,0,0,1-1.633-1.862c0-1.69,1.147-2.666,3.152-2.666.2,0,.458.029.746.057a1.444,1.444,0,0,0,.057-.429c0-.458-.315-.629-1.147-.629a5.928,5.928,0,0,0-1.49.172l-.257.086-.172.029.257-1.547a7.229,7.229,0,0,1,2.151-.343c1.547,0,2.38.687,2.38,2.005a8.679,8.679,0,0,1-.143,1.376l-.4,2.437-.057.429-.029.343-.029.257-.034.172Zm27.055-3.066c-.2,0-.286-.029-.4-.029-1.032,0-1.547.372-1.547,1.061a.625.625,0,0,0,.661.687c.715,0,1.259-.689,1.287-1.719Zm1.319,3.066h-1.49l.029-.718a2.235,2.235,0,0,1-1.891.832,1.664,1.664,0,0,1-1.633-1.862c0-1.69,1.147-2.666,3.152-2.666a7.183,7.183,0,0,1,.718.057,1.819,1.819,0,0,0,.086-.429c0-.458-.315-.629-1.147-.629a6.15,6.15,0,0,0-1.519.172l-.229.086-.172.029.257-1.547a7.229,7.229,0,0,1,2.151-.343c1.547,0,2.351.687,2.351,2.005a6.161,6.161,0,0,1-.143,1.376l-.372,2.437-.057.429-.057.343-.029.257-.005.172Zm4.814-6.936h-.172c-.6,0-.947.286-1.49,1.118l.172-1.061h-1.633l-1.09,6.879h1.776c.661-4.213.832-4.928,1.69-4.928h.114a7.183,7.183,0,0,1,.687-1.977l-.055-.031Z" transform="translate(-60.095 -465.861)" fill="#fff"/>
  </g>
</svg>
