<svg xmlns="http://www.w3.org/2000/svg" width="15.268" height="16.54" viewBox="0 0 15.268 16.54">
  <path id="md-hand" d="M18.282,11.166a1.285,1.285,0,0,0-1.87-.048l-1.539,1.538a.758.758,0,0,1-1.165.068c-.187-.221-.113-.9-.061-1.331l.772-6.344a1.035,1.035,0,1,0-2.054-.25l-.851,4.984c-.045.124-.14.145-.151-.022l-.289-6.477a1.034,1.034,0,0,0-2.069,0l-.02,6.526c.005.075-.059.1-.071.011l-.92-5.094a1.035,1.035,0,1,0-2.036.368l.819,5.961c0,.106-.035.166-.085.03L5.47,7.817a1.052,1.052,0,0,0-1.321-.661,1.07,1.07,0,0,0-.629,1.353l2.143,7c.011.039.023.077.035.115l0,.014a.007.007,0,0,1,0,0A4.56,4.56,0,0,0,10.04,18.79a6.166,6.166,0,0,0,3.668-1.243h0a47.342,47.342,0,0,0,4.654-4.48,1.323,1.323,0,0,0-.08-1.9Z" transform="translate(-3.461 -2.25)" fill="#ff9f10"/>
</svg>
