<svg xmlns="http://www.w3.org/2000/svg" width="15.011" height="15.012" viewBox="0 0 15.011 15.012">
  <g id="Group_18155" data-name="Group 18155" transform="translate(-12150.311 -13161.745)">
    <path id="Path_43418" data-name="Path 43418" d="M427.467,1551.662a.751.751,0,0,1-.751-.751v-2.252h-.75a3.005,3.005,0,0,1-3-3v-6a3.005,3.005,0,0,1,3-3h9.006a3.005,3.005,0,0,1,3,3v6a3.005,3.005,0,0,1-3,3H432.92l-5.081,2.9A.724.724,0,0,1,427.467,1551.662Zm-1.187-13.836a2.218,2.218,0,0,0-1.918,1.828v6a2.251,2.251,0,0,0,1.918,1.858l1.077.1c.415,0,.482.1.482.515v2.1l4.571-2.517a1.36,1.36,0,0,1,.51-.1l2.164-.1a1.955,1.955,0,0,0,1.623-1.858v-6a2.027,2.027,0,0,0-1.734-1.828Z" transform="translate(11727.347 11625.095)" fill="#979797"/>
    <ellipse id="Ellipse_1190" data-name="Ellipse 1190" cx="0.751" cy="0.751" rx="0.751" ry="0.751" transform="translate(12153.904 13167.002)" fill="#979797"/>
    <ellipse id="Ellipse_1191" data-name="Ellipse 1191" cx="0.751" cy="0.751" rx="0.751" ry="0.751" transform="translate(12157.169 13167.002)" fill="#979797"/>
    <path id="Path_43419" data-name="Path 43419" d="M449.387,1551.121a.751.751,0,1,1,.751.751A.75.75,0,0,1,449.387,1551.121Z" transform="translate(11711.048 11616.631)" fill="#979797"/>
  </g>
</svg>
