<svg xmlns="http://www.w3.org/2000/svg" xmlns:xlink="http://www.w3.org/1999/xlink" width="50.95" height="54.22" viewBox="0 0 50.95 54.22">
  <defs>
    <linearGradient id="linear-gradient" x1="0.5" x2="0.5" y2="1" gradientUnits="objectBoundingBox">
      <stop offset="0" stop-color="#48dbe1"/>
      <stop offset="1" stop-color="#4166cd"/>
      <stop offset="1" stop-color="#236b73"/>
    </linearGradient>
    <filter id="Path_1018" x="0" y="0" width="50.95" height="50.916" filterUnits="userSpaceOnUse">
      <feOffset dy="3" input="SourceAlpha"/>
      <feGaussianBlur stdDeviation="5" result="blur"/>
      <feFlood flood-opacity="0.09"/>
      <feComposite operator="in" in2="blur"/>
      <feComposite in="SourceGraphic"/>
    </filter>
    <filter id="Path_1019" x="7.437" y="22.061" width="36.052" height="32.158" filterUnits="userSpaceOnUse">
      <feOffset dy="3" input="SourceAlpha"/>
      <feGaussianBlur stdDeviation="5" result="blur-2"/>
      <feFlood flood-opacity="0.09"/>
      <feComposite operator="in" in2="blur-2"/>
      <feComposite in="SourceGraphic"/>
    </filter>
    <filter id="Oval" x="12.045" y="0" width="38.604" height="38.604" filterUnits="userSpaceOnUse">
      <feOffset dy="3" input="SourceAlpha"/>
      <feGaussianBlur stdDeviation="5" result="blur-3"/>
      <feFlood flood-opacity="0.09"/>
      <feComposite operator="in" in2="blur-3"/>
      <feComposite in="SourceGraphic"/>
    </filter>
  </defs>
  <g id="Group_12102" data-name="Group 12102" transform="translate(15 12)">
    <g id="Layer_1" data-name="Layer 1">
      <g transform="matrix(1, 0, 0, 1, -15, -12)" filter="url(#Path_1018)">
        <path id="Path_1018-2" data-name="Path 1018" d="M10.482,20.9c-2.638,0-5.274-.012-7.91,0A2.3,2.3,0,0,1,.289,19.7,2.128,2.128,0,0,1,.6,17.147,7.067,7.067,0,0,0,2.255,11.61a23.453,23.453,0,0,1,.1-4.694A8.138,8.138,0,0,1,8.786.15a8.3,8.3,0,0,1,8.731,3.773,8.171,8.171,0,0,1,1.211,4.283c0,1.961-.016,3.923.01,5.882a2.149,2.149,0,0,0,.3,1.024c.459.766.986,1.488,1.476,2.235a2.173,2.173,0,0,1,.16,2.348A2.224,2.224,0,0,1,18.582,20.9Z" transform="translate(15 12.01)" fill="url(#linear-gradient)"/>
      </g>
      <g transform="matrix(1, 0, 0, 1, -15, -12)" filter="url(#Path_1019)">
        <path id="Path_1019-2" data-name="Path 1019" d="M42.63,126.45h6.052a3.038,3.038,0,0,1-2.889,2.154,3.178,3.178,0,0,1-3.163-2.154Z" transform="translate(-20.19 -92.39)" fill="url(#linear-gradient)"/>
      </g>
    </g>
    <g transform="matrix(1, 0, 0, 1, -15, -12)" filter="url(#Oval)">
      <path id="Oval-2" data-name="Oval" d="M4.3,0A4.3,4.3,0,1,1,0,4.3,4.3,4.3,0,0,1,4.3,0Z" transform="translate(27.05 12)" fill="#ff00d5"/>
    </g>
  </g>
</svg>
