<svg xmlns="http://www.w3.org/2000/svg" xmlns:xlink="http://www.w3.org/1999/xlink" width="24.402" height="18.302" viewBox="0 0 24.402 18.302">
  <defs>
    <linearGradient id="linear-gradient" x1="0.5" x2="0.5" y2="1" gradientUnits="objectBoundingBox">
      <stop offset="0" stop-color="#48dbe1"/>
      <stop offset="1" stop-color="#4166cd"/>
      <stop offset="1" stop-color="#236b73"/>
    </linearGradient>
  </defs>
  <path id="Path_42861" data-name="Path 42861" d="M22.878,22.8A1.494,1.494,0,0,0,24.4,21.277c0-1.525-1.525-6.1-7.626-6.1s-7.626,4.576-7.626,6.1A1.494,1.494,0,0,0,10.676,22.8Zm-12.194-1.44v0Zm.026-.085H22.845l.022,0,.012,0a4.7,4.7,0,0,0-1.159-2.623A6.107,6.107,0,0,0,16.777,16.7a6.112,6.112,0,0,0-4.942,1.946,4.683,4.683,0,0,0-1.159,2.623l.033.006Zm12.16.085v0Zm-6.093-9.237a3.05,3.05,0,1,0-3.05-3.05A3.05,3.05,0,0,0,16.777,12.126Zm4.576-3.05A4.576,4.576,0,1,1,16.777,4.5a4.576,4.576,0,0,1,4.576,4.576ZM10.579,15.6A8.968,8.968,0,0,0,8.7,15.227q-.537-.051-1.076-.05c-6.1,0-7.626,4.576-7.626,6.1A1.348,1.348,0,0,0,1.525,22.8h6.43a3.413,3.413,0,0,1-.329-1.525,7,7,0,0,1,1.663-4.429A8.1,8.1,0,0,1,10.579,15.6ZM7.5,16.7a6.066,6.066,0,0,0-4.82,1.946,4.667,4.667,0,0,0-1.159,2.629H6.1A8.393,8.393,0,0,1,7.5,16.7ZM2.288,9.838a4.576,4.576,0,1,1,4.576,4.576A4.576,4.576,0,0,1,2.288,9.838Zm4.576-3.05a3.05,3.05,0,1,0,3.05,3.05A3.05,3.05,0,0,0,6.863,6.788Z" transform="translate(0 -4.5)" fill="url(#linear-gradient)"/>
</svg>
