<svg xmlns="http://www.w3.org/2000/svg" width="31.284" height="26.717" viewBox="0 0 31.284 26.717">
  <g id="Group_17918" data-name="Group 17918" transform="translate(0 0)">
    <path id="Path_14806" data-name="Path 14806" d="M18.3,11.17a6.6,6.6,0,0,0-2.3.418l8.55,8.55a6.587,6.587,0,0,0,.418-2.332A6.665,6.665,0,0,0,18.3,11.17Z" transform="translate(-2.767 -4.486)" fill="#459fd4"/>
    <path id="Path_14807" data-name="Path 14807" d="M33.691,17.245c-3.274-6.053-9.016-9.715-15.37-9.715a16.341,16.341,0,0,0-5.091.826L14.794,9.93a14.359,14.359,0,0,1,3.527-.457,15.513,15.513,0,0,1,13.407,8.19,17.245,17.245,0,0,1-4.246,4.955L28.862,24a19.363,19.363,0,0,0,4.858-5.829l.253-.466Z" transform="translate(-2.688 -4.382)" fill="#459fd4"/>
    <path id="Path_14808" data-name="Path 14808" d="M4.8,5.738l4.333,4.333a18.965,18.965,0,0,0-6.5,7.083l-.253.457.253.466c3.274,6.053,9.016,9.715,15.37,9.715a16.445,16.445,0,0,0,7.157-1.64l4.861,4.856,1.7-1.457L6.46,4.29ZM12.863,13.8a6.655,6.655,0,0,0,9.278,9.278L23.7,24.634A14.486,14.486,0,0,1,18,25.8,15.513,15.513,0,0,1,4.6,17.61a16.8,16.8,0,0,1,5.946-6.121Z" transform="translate(-2.38 -4.29)" fill="#459fd4"/>
  </g>
</svg>
