<svg xmlns="http://www.w3.org/2000/svg" width="31.284" height="20.408" viewBox="0 0 31.284 20.408">
  <g id="Group_17919" data-name="Group 17919" transform="translate(0 0)">
    <path id="Path_14804" data-name="Path 14804" d="M32.751,17.271C29.473,11.2,23.724,7.53,17.362,7.53S5.241,11.2,1.992,17.271l-.272.458.253.468C5.251,24.266,11,27.938,17.362,27.938S29.483,24.314,32.751,18.2L33,17.729Zm-15.389,8.67A15.471,15.471,0,0,1,3.938,17.729,15.471,15.471,0,0,1,17.362,9.517c5.477,0,10.448,3.069,13.414,8.212C27.81,22.882,22.829,25.941,17.362,25.941Z" transform="translate(-1.72 -7.53)" fill="#459fd4"/>
    <path id="Path_14805" data-name="Path 14805" d="M24.576,17.853A6.673,6.673,0,1,1,17.9,11.17a6.678,6.678,0,0,1,6.673,6.683Z" transform="translate(-1.979 -7.624)" fill="#459fd4"/>
  </g>
</svg>
