<svg xmlns="http://www.w3.org/2000/svg" xmlns:xlink="http://www.w3.org/1999/xlink" width="20.501" height="21.334" viewBox="0 0 20.501 21.334">
  <defs>
    <linearGradient id="linear-gradient" x1="0.5" x2="0.5" y2="1" gradientUnits="objectBoundingBox">
      <stop offset="0" stop-color="#48dbe1"/>
      <stop offset="1" stop-color="#4166cd"/>
      <stop offset="1" stop-color="#236b73"/>
    </linearGradient>
  </defs>
  <g id="Group_17316" data-name="Group 17316" transform="translate(-323.999 -339.532)">
    <path id="Path_14485" data-name="Path 14485" d="M17,33.427A1.671,1.671,0,0,0,18.613,32H15.32A1.671,1.671,0,0,0,17,33.427Z" transform="translate(316.359 327.438)" fill="#a06aff"/>
    <path id="Path_14486" data-name="Path 14486" d="M21.492,18.085a9.015,9.015,0,0,1-1.571-1.834,7.906,7.906,0,0,1-.845-3.011V10.148a6.835,6.835,0,0,0-.1-1.121,4.657,4.657,0,0,1-1.4-.526,5.565,5.565,0,0,1,.25,1.653v3.092a8.914,8.914,0,0,0,1.033,3.662,10.122,10.122,0,0,0,1.527,1.878H4.352A10.123,10.123,0,0,0,5.88,16.909a8.914,8.914,0,0,0,1.033-3.662v-3.1a5.509,5.509,0,0,1,5.5-5.534,5.39,5.39,0,0,1,2.98.9,4.689,4.689,0,0,1-.163-1.1V4.025A6.623,6.623,0,0,0,13.147,3.4V2.611a.836.836,0,0,0-1.671,0v.82a6.767,6.767,0,0,0-5.822,6.717V13.24a7.906,7.906,0,0,1-.845,3.011,9.014,9.014,0,0,1-1.546,1.834.626.626,0,0,0-.213.47v.851a.626.626,0,0,0,.626.626h17.4a.626.626,0,0,0,.626-.626v-.851A.626.626,0,0,0,21.492,18.085Z" transform="translate(320.949 338.742)" fill="url(#linear-gradient)"/>
    <path id="Path_42892" data-name="Path 42892" d="M31.26,4.13A3.13,3.13,0,1,1,28.13,1,3.13,3.13,0,0,1,31.26,4.13Z" transform="translate(312.74 339.032)" stroke="rgba(0,0,0,0)" stroke-width="1" fill="url(#linear-gradient)"/>
  </g>
</svg>
