<svg id="Component_39_1" data-name="Component 39 – 1" xmlns="http://www.w3.org/2000/svg" width="20.755" height="24.979" viewBox="0 0 20.755 24.979">
  <g id="Group_14247" data-name="Group 14247" transform="translate(-8.734 -48.315)">
    <g id="Group_13169" data-name="Group 13169" transform="translate(9 52.515)">
      <g id="Group_13153" data-name="Group 13153" transform="translate(0.91)">
        <path id="Path_3920" data-name="Path 3920" d="M96.509,1389.249a1.7,1.7,0,0,1-3.408,0c0-.034.008-.066.01-.1H91.519c0,.034-.005.066-.005.1a3.29,3.29,0,1,0,6.58,0c0-.033,0-.066-.005-.1H96.5C96.5,1389.181,96.509,1389.213,96.509,1389.249Z" transform="translate(-85.103 -1372.67)" fill="#fff"/>
        <path id="Path_3921" data-name="Path 3921" d="M101.357,1374.907h-1.248l-.061-7.658a7.39,7.39,0,0,0-14.781,0l.061,7.658H84.079a1,1,0,0,0-1.123.987c0,.635.427.9,1.063.9H101.3c.636,0,1.238-.268,1.238-.9A1.046,1.046,0,0,0,101.357,1374.907Zm-3.1,0H87l-.061-7.658c0-2.807,2.7-5.848,5.508-5.848s5.754,3.042,5.754,5.848l.061,7.658Z" transform="translate(-82.956 -1359.859)" fill="#fff"/>
      </g>
      <g id="Group_13155" data-name="Group 13155" transform="translate(0 0.91)" opacity="0.2">
        <path id="Path_3920-2" data-name="Path 3920" d="M96.509,1389.249a1.7,1.7,0,0,1-3.408,0c0-.034.008-.066.01-.1H91.519c0,.034-.005.066-.005.1a3.29,3.29,0,1,0,6.58,0c0-.033,0-.066-.005-.1H96.5C96.5,1389.181,96.509,1389.213,96.509,1389.249Z" transform="translate(-85.103 -1372.67)" fill="#fff"/>
        <path id="Path_3921-2" data-name="Path 3921" d="M101.357,1374.907h-1.248l-.061-7.658a7.39,7.39,0,0,0-14.781,0l.061,7.658H84.079a1,1,0,0,0-1.123.987c0,.635.427.9,1.063.9H101.3c.636,0,1.238-.268,1.238-.9A1.046,1.046,0,0,0,101.357,1374.907Zm-3.1,0H87l-.061-7.658c0-2.807,2.7-5.848,5.508-5.848s5.754,3.042,5.754,5.848l.061,7.658Z" transform="translate(-82.956 -1359.859)" fill="#fff"/>
      </g>
    </g>
  </g>
  <circle id="Ellipse_786" data-name="Ellipse 786" cx="5" cy="5" r="5" fill="#d97d54" opacity="0.86"/>
</svg>
