<svg id="Group_13979" data-name="Group 13979" xmlns="http://www.w3.org/2000/svg" xmlns:xlink="http://www.w3.org/1999/xlink" width="19.067" height="19.067" viewBox="0 0 19.067 19.067">
  <defs>
    <linearGradient id="linear-gradient" x1="0.5" x2="0.5" y2="1" gradientUnits="objectBoundingBox">
      <stop offset="0" stop-color="#48dbe1"/>
      <stop offset="1" stop-color="#4166cd"/>
      <stop offset="1" stop-color="#236b73"/>
    </linearGradient>
  </defs>
  <path id="Path_13974" data-name="Path 13974" d="M12.245,3l-1.1-1.125L12,1.038l.741.759L13.8,1.784a3.445,3.445,0,0,1,3.485,3.485L17.275,6.33l.758.741a3.445,3.445,0,0,1,0,4.927l-.759.741.013,1.061A3.445,3.445,0,0,1,13.8,17.285l-1.061-.012L12,18.031a3.445,3.445,0,0,1-4.927,0l-.741-.759-1.061.013A3.445,3.445,0,0,1,1.787,13.8L1.8,12.74,1.04,12a3.445,3.445,0,0,1,0-4.927L1.8,6.33,1.786,5.27A3.445,3.445,0,0,1,5.271,1.785L6.332,1.8l.741-.758a3.445,3.445,0,0,1,4.927,0l-.852.832a2.252,2.252,0,0,0-3.223,0L6.828,3,5.255,2.976A2.252,2.252,0,0,0,2.977,5.255L3,6.826l-1.125,1.1a2.252,2.252,0,0,0,0,3.223L3,12.243l-.019,1.573a2.252,2.252,0,0,0,2.279,2.278l1.571-.019,1.1,1.125a2.252,2.252,0,0,0,3.223,0l1.1-1.125,1.573.019A2.252,2.252,0,0,0,16.1,13.816l-.019-1.571,1.125-1.1a2.252,2.252,0,0,0,0-3.223l-1.125-1.1L16.1,5.254a2.252,2.252,0,0,0-2.279-2.278Z" transform="translate(-0.003 -0.001)" fill="url(#linear-gradient)"/>
  <path id="Path_13960" data-name="Path 13960" d="M15.755,18.353a1.337,1.337,0,1,1,1.337,1.337,1.337,1.337,0,0,1-1.337-1.337Zm.131-8.027a1.21,1.21,0,1,1,2.406,0l-.468,4.688a.738.738,0,0,1-1.47,0Z" transform="translate(-7.559 -4.807)" fill="url(#linear-gradient)"/>
</svg>
