<svg xmlns="http://www.w3.org/2000/svg" xmlns:xlink="http://www.w3.org/1999/xlink" width="49.045" height="48.964" viewBox="0 0 49.045 48.964">
  <defs>
    <linearGradient id="linear-gradient" x1="0.5" x2="0.5" y2="1" gradientUnits="objectBoundingBox">
      <stop offset="0" stop-color="#48dbe1"/>
      <stop offset="1" stop-color="#4166cd"/>
      <stop offset="1" stop-color="#236b73"/>
    </linearGradient>
    <filter id="Path_3878" x="4.859" y="0" width="44.186" height="44.186" filterUnits="userSpaceOnUse">
      <feOffset dy="3" input="SourceAlpha"/>
      <feGaussianBlur stdDeviation="5" result="blur"/>
      <feFlood flood-opacity="0.09"/>
      <feComposite operator="in" in2="blur"/>
      <feComposite in="SourceGraphic"/>
    </filter>
    <filter id="Path_3879" x="0" y="4.779" width="44.184" height="44.185" filterUnits="userSpaceOnUse">
      <feOffset dy="3" input="SourceAlpha"/>
      <feGaussianBlur stdDeviation="5" result="blur-2"/>
      <feFlood flood-opacity="0.09"/>
      <feComposite operator="in" in2="blur-2"/>
      <feComposite in="SourceGraphic"/>
    </filter>
  </defs>
  <g id="Group_17524" data-name="Group 17524" transform="translate(16828.865 341.5)">
    <g transform="matrix(1, 0, 0, 1, -16828.87, -341.5)" filter="url(#Path_3878)">
      <path id="Path_3878-2" data-name="Path 3878" d="M616.336,755.286a1.014,1.014,0,0,1-.341-1.968,1.633,1.633,0,0,0,1.085-1.532v-7.034a1.627,1.627,0,0,0-1.625-1.625h-7.034a1.631,1.631,0,0,0-1.532,1.085,1.014,1.014,0,0,1-1.91-.681,3.664,3.664,0,0,1,3.441-2.431h7.034a3.655,3.655,0,0,1,3.651,3.651v7.034a3.665,3.665,0,0,1-2.431,3.441A1.006,1.006,0,0,1,616.336,755.286Z" transform="translate(-585.06 -729.1)" fill="url(#linear-gradient)"/>
    </g>
    <g transform="matrix(1, 0, 0, 1, -16828.87, -341.5)" filter="url(#Path_3879)">
      <path id="Path_3879-2" data-name="Path 3879" d="M596.891,766.77h6.948a3.623,3.623,0,0,0,3.618-3.618V756.2a3.623,3.623,0,0,0-3.618-3.618h-6.948a3.623,3.623,0,0,0-3.619,3.618v6.948A3.623,3.623,0,0,0,596.891,766.77ZM595.3,756.2a1.594,1.594,0,0,1,1.592-1.592h6.947a1.594,1.594,0,0,1,1.592,1.592v6.948a1.594,1.594,0,0,1-1.592,1.592h-6.947a1.594,1.594,0,0,1-1.592-1.592Z" transform="translate(-578.27 -735.81)" fill="url(#linear-gradient)"/>
    </g>
  </g>
</svg>
