<svg xmlns="http://www.w3.org/2000/svg" xmlns:xlink="http://www.w3.org/1999/xlink" width="54.867" height="57.851" viewBox="0 0 54.867 57.851">
  <defs>
    <linearGradient id="linear-gradient" x1="0.5" x2="0.5" y2="1" gradientUnits="objectBoundingBox">
      <stop offset="0" stop-color="#48dbe1"/>
      <stop offset="1" stop-color="#4166cd"/>
      <stop offset="1" stop-color="#236b73"/>
    </linearGradient>
    <filter id="Path_13169" x="5.742" y="0" width="43.381" height="46.101" filterUnits="userSpaceOnUse">
      <feOffset dy="3" input="SourceAlpha"/>
      <feGaussianBlur stdDeviation="5" result="blur"/>
      <feFlood flood-opacity="0.09"/>
      <feComposite operator="in" in2="blur"/>
      <feComposite in="SourceGraphic"/>
    </filter>
    <filter id="Path_13170" x="0" y="17.611" width="54.867" height="40.24" filterUnits="userSpaceOnUse">
      <feOffset dy="3" input="SourceAlpha"/>
      <feGaussianBlur stdDeviation="5" result="blur-2"/>
      <feFlood flood-opacity="0.09"/>
      <feComposite operator="in" in2="blur-2"/>
      <feComposite in="SourceGraphic"/>
    </filter>
  </defs>
  <g id="Group_4487" data-name="Group 4487" transform="translate(15 12)">
    <g id="Group_4482" data-name="Group 4482">
      <g transform="matrix(1, 0, 0, 1, -15, -12)" filter="url(#Path_13169)">
        <path id="Path_13169-2" data-name="Path 13169" d="M952.753,854.255l.014.087a2.915,2.915,0,0,0,1.241,2.148,6.262,6.262,0,0,0,2.489,3.589,4.916,4.916,0,0,0,5.773,0,5.978,5.978,0,0,0,1.713-1.8,6.73,6.73,0,0,0,.542-1.094,3.89,3.89,0,0,0,.15-.5c.014-.054.031-.12.043-.16a2.45,2.45,0,0,1,.208-.187l.047-.04.16-.141a2.815,2.815,0,0,0,.863-1.816c.014-.09.024-.177.04-.274.027-.181.057-.388.071-.6.013-.174.013-.328.009-.471s0-1.131,0-1.134a7.7,7.7,0,0,0-1.438-4.918,6.581,6.581,0,0,0-5.235-2.037,7.5,7.5,0,0,0-4.971,1.823,5.742,5.742,0,0,0-1.6,3.589c-.017.134-.057.98-.09,1.853-.033.843-.06,1.713-.047,1.987C952.742,854.225,952.746,854.255,952.753,854.255Zm1.462-1.96a.4.4,0,0,0,.05-.01l.124-.023v-.371a2.753,2.753,0,0,1,.1-.742,2.458,2.458,0,0,1,1.629-1.726,2.617,2.617,0,0,1,.281-.067.285.285,0,0,0,.037.067.182.182,0,0,0,.014.026,1.35,1.35,0,0,0,.248.4,7.573,7.573,0,0,0,7.566,3.261c.09-.013.175-.03.265-.05.12-.023.24-.053.364-.08l0,.057a3.578,3.578,0,0,1-.006.365c-.01.16-.034.321-.064.505-.014.094-.026.19-.04.291a1.64,1.64,0,0,1-.475,1.071c-.043.04-.087.077-.134.117l-.047.037a3.132,3.132,0,0,0-.388.375,1.5,1.5,0,0,0-.257.625,2.553,2.553,0,0,1-.094.318,5.761,5.761,0,0,1-.448.907,4.712,4.712,0,0,1-1.362,1.431c-.13.087-.268.171-.411.251a3.662,3.662,0,0,1-3.569.007l-.014-.01a4.639,4.639,0,0,1-.408-.248,5.119,5.119,0,0,1-2.044-3.067.721.721,0,0,0-.207-.368l-.061-.053-.067-.037a1.711,1.711,0,0,1-.829-1.358c-.007-.056-.017-.113-.024-.174a.021.021,0,0,1,0-.014l-.013-.11c-.027-.174-.054-.335-.064-.492,0-.1-.01-.234,0-.371l0-.077C953.85,852.687,954,852.345,954.214,852.295Z" transform="translate(-932 -832.91)" fill="url(#linear-gradient)"/>
      </g>
      <g transform="matrix(1, 0, 0, 1, -15, -12)" filter="url(#Path_13170)">
        <path id="Path_13170-2" data-name="Path 13170" d="M969.144,880.226l-.007-.052c-.211-1.834-.4-3.669-.6-5.5-.014-.138-.032-.267-.05-.387a2.577,2.577,0,0,0-.226-.783,1.444,1.444,0,0,0-.3-.417c-.151-.065-.317-.124-.493-.19-.01,0-.023,0-.032,0-.661-.226-1.336-.419-2-.618q-.91-.265-1.827-.516c-1.391-.469-2.7-.9-2.779-.908-.02.077-.041.156-.063.229-.168.625-.328,1.247-.5,1.867-.129.469-.26.932-.4,1.4-.394,1.272-.837,2.533-1.279,3.791a.25.25,0,0,1-.016.043,3.9,3.9,0,0,1-.186.414c-.034-.24-.12-1.148-.208-2.125-.125-1.379-.256-2.9-.256-2.9l.48-1.016a.338.338,0,0,0,0-.292l-.263-.509a.333.333,0,0,0-.294-.179H955.6a.333.333,0,0,0-.294.179l-.263.509a.33.33,0,0,0,0,.292l.479,1.016s-.131,1.521-.255,2.9c-.088.978-.175,1.885-.208,2.125a3.062,3.062,0,0,1-.185-.414.146.146,0,0,1-.016-.043c-.441-1.258-.885-2.519-1.281-3.791-.141-.464-.274-.928-.4-1.4-.172-.62-.335-1.243-.5-1.867-.02-.073-.041-.151-.061-.229-.079.007-1.394.442-2.791.91-.606.168-1.211.337-1.81.514-.675.2-1.343.392-2,.618-.014,0-.022,0-.032,0-.177.066-.342.125-.493.19a1.42,1.42,0,0,0-.3.41,2.611,2.611,0,0,0-.226.79c-.023.12-.037.249-.05.387q-.3,2.75-.606,5.5l-.007.052a.76.76,0,0,0,.756.849c.177,0,.38,0,.6,0h.007a.91.91,0,0,0,.154.011h21.814a.846.846,0,0,0,.149-.011h0c.229,0,.435,0,.616,0A.757.757,0,0,0,969.144,880.226Z" transform="translate(-929.28 -841.24)" fill="url(#linear-gradient)"/>
      </g>
    </g>
  </g>
</svg>
