<svg xmlns="http://www.w3.org/2000/svg" width="20.425" height="26.432" viewBox="0 0 20.425 26.432">
  <path id="Path_42769" data-name="Path 42769" d="M2,19.022v2.4a6.009,6.009,0,0,1,6.007,6.007h2.4A8.4,8.4,0,0,0,2,19.022Zm0,4.806v3.6H5.6A3.6,3.6,0,0,0,2,23.828Zm0-9.612v2.4A10.814,10.814,0,0,1,12.813,27.432h2.4A13.209,13.209,0,0,0,2,14.216Zm18.022-13.2L8.007,1A2.41,2.41,0,0,0,5.6,3.4v8.855a14.742,14.742,0,0,1,2.4.769V5.806H20.022V21.425h-3.64a15.626,15.626,0,0,1,1.141,4.806h2.5a2.41,2.41,0,0,0,2.4-2.4V3.4A2.4,2.4,0,0,0,20.022,1.012Z" transform="translate(-2 -1)" fill="#4391d4"/>
</svg>
