<svg id="plus-circle" xmlns="http://www.w3.org/2000/svg" width="18.564" height="18.564" viewBox="0 0 18.564 18.564">
  <path id="Path_14084" data-name="Path 14084" d="M13.1,7.875a.58.58,0,0,1,.58.58V13.1a.58.58,0,0,1-.58.58H8.455a.58.58,0,0,1,0-1.16h4.061V8.455A.58.58,0,0,1,13.1,7.875Z" transform="translate(-3.814 -3.814)" fill="#0e642e"/>
  <path id="Path_14085" data-name="Path 14085" d="M16.875,17.455a.58.58,0,0,1,.58-.58H22.1a.58.58,0,0,1,0,1.16H18.035V22.1a.58.58,0,0,1-1.16,0Z" transform="translate(-8.173 -8.173)" fill="#0e642e"/>
  <path id="Path_14086" data-name="Path 14086" d="M9.282,17.4A8.122,8.122,0,1,0,1.16,9.282,8.122,8.122,0,0,0,9.282,17.4Zm0,1.16A9.282,9.282,0,1,0,0,9.282,9.282,9.282,0,0,0,9.282,18.564Z" fill="#0e642e"/>
</svg>
