<svg xmlns="http://www.w3.org/2000/svg" xmlns:xlink="http://www.w3.org/1999/xlink" width="42.589" height="42.589" viewBox="0 0 42.589 42.589">
  <defs>
    <filter id="Path_14189" x="5.379" y="5.379" width="25.684" height="25.684" filterUnits="userSpaceOnUse">
      <feOffset dy="3" input="SourceAlpha"/>
      <feGaussianBlur stdDeviation="3" result="blur"/>
      <feFlood flood-opacity="0.161"/>
      <feComposite operator="in" in2="blur"/>
      <feComposite in="SourceGraphic"/>
    </filter>
    <filter id="Path_14190" x="11.526" y="11.526" width="25.684" height="25.684" filterUnits="userSpaceOnUse">
      <feOffset dy="3" input="SourceAlpha"/>
      <feGaussianBlur stdDeviation="3" result="blur-2"/>
      <feFlood flood-opacity="0.161"/>
      <feComposite operator="in" in2="blur-2"/>
      <feComposite in="SourceGraphic"/>
    </filter>
    <filter id="Path_14191" x="0" y="0" width="42.589" height="42.589" filterUnits="userSpaceOnUse">
      <feOffset dy="3" input="SourceAlpha"/>
      <feGaussianBlur stdDeviation="3" result="blur-3"/>
      <feFlood flood-opacity="0.161"/>
      <feComposite operator="in" in2="blur-3"/>
      <feComposite in="SourceGraphic"/>
    </filter>
  </defs>
  <g id="plus-circle" transform="translate(9 6)">
    <g transform="matrix(1, 0, 0, 1, -9, -6)" filter="url(#Path_14189)">
      <path id="Path_14189-2" data-name="Path 14189" d="M14.791,7.875a.768.768,0,0,1,.768.768v6.147a.768.768,0,0,1-.768.768H8.643a.768.768,0,0,1,0-1.537h5.379V8.643A.768.768,0,0,1,14.791,7.875Z" transform="translate(6.5 3.5)" fill="#2566af"/>
    </g>
    <g transform="matrix(1, 0, 0, 1, -9, -6)" filter="url(#Path_14190)">
      <path id="Path_14190-2" data-name="Path 14190" d="M16.875,17.643a.768.768,0,0,1,.768-.768h6.147a.768.768,0,0,1,0,1.537H18.412v5.379a.768.768,0,1,1-1.537,0Z" transform="translate(3.65 0.65)" fill="#2566af"/>
    </g>
    <g transform="matrix(1, 0, 0, 1, -9, -6)" filter="url(#Path_14191)">
      <path id="Path_14191-2" data-name="Path 14191" d="M12.294,23.052A10.758,10.758,0,1,0,1.537,12.294,10.758,10.758,0,0,0,12.294,23.052Zm0,1.537A12.294,12.294,0,1,0,0,12.294,12.294,12.294,0,0,0,12.294,24.589Z" transform="translate(9 6)" fill="#2566af"/>
    </g>
  </g>
</svg>
