<svg xmlns="http://www.w3.org/2000/svg" xmlns:xlink="http://www.w3.org/1999/xlink" width="30.765" height="23.075" viewBox="0 0 30.765 23.075">
  <defs>
    <linearGradient id="linear-gradient" x1="0.5" x2="0.5" y2="1" gradientUnits="objectBoundingBox">
      <stop offset="0" stop-color="#48dbe1"/>
      <stop offset="1" stop-color="#4166cd"/>
      <stop offset="1" stop-color="#236b73"/>
    </linearGradient>
  </defs>
  <g id="puzzle" transform="translate(0 -4.5)">
    <path id="Path_42858" data-name="Path 42858" d="M8.854,5.461v0ZM6.942,7.577,7.9,7.494V7.48ZM13.46,5.461h.961A.961.961,0,0,0,13.46,4.5Zm-1.3,2.8.585.763Zm6.445,0-.585.763Zm-1.3-2.8V4.5a.961.961,0,0,0-.961.961Zm6.519,2.115-.958-.1v.014Zm-.558,6.538-.958-.083a.961.961,0,0,0,.958,1.044Zm3.564-1.3.763.585Zm0,6.445.763-.585Zm-3.564-1.3V17a.961.961,0,0,0-.958,1.043Zm.557,6.538-.958.083v.014Zm-6.518,2.115h-.961a.961.961,0,0,0,.961.961Zm1.3-2.8-.585-.763Zm-6.445,0,.585-.763Zm1.3,2.8v.961a.961.961,0,0,0,.961-.961Zm-4.605,0v0ZM6.941,24.5l.958.1V24.58L6.942,24.5ZM7.5,17.96l.958.081A.961.961,0,0,0,7.5,17Zm-3.564,1.3-.763-.585Zm0-6.445-.763.585Zm3.564,1.3v.961a.961.961,0,0,0,.958-1.044ZM8.854,4.5A2.884,2.884,0,0,0,5.984,7.672L7.9,7.48a.961.961,0,0,1,.957-1.057Zm4.605,0H8.854V6.423H13.46Zm.961,1.7V5.461H12.5V6.2h1.923ZM12.744,9.02A3.7,3.7,0,0,0,14.421,6.2H12.5c0,.375-.283.808-.923,1.3l1.169,1.527Zm-.246.287,0-.011a.217.217,0,0,1,.023-.048.883.883,0,0,1,.221-.226L11.575,7.494a2.311,2.311,0,0,0-1,1.813H12.5Zm2.884.961a5.263,5.263,0,0,1-2.288-.461,1.654,1.654,0,0,1-.521-.373.409.409,0,0,1-.075-.121V9.307H10.576a2.62,2.62,0,0,0,1.658,2.219,7.17,7.17,0,0,0,3.149.666Zm2.884-.961v.006a.409.409,0,0,1-.075.123,1.654,1.654,0,0,1-.52.371,5.3,5.3,0,0,1-2.289.461v1.923a7.182,7.182,0,0,0,3.149-.665A2.622,2.622,0,0,0,20.19,9.308H18.267Zm-.246-.288a.88.88,0,0,1,.221.229.335.335,0,0,1,.023.048l0,.011H20.19a2.313,2.313,0,0,0-1-1.813L18.021,9.021ZM16.344,6.2a3.7,3.7,0,0,0,1.677,2.824L19.19,7.5c-.64-.491-.923-.923-.923-1.3H16.344Zm0-.735V6.2h1.923V5.461H16.344ZM21.911,4.5H17.305V6.425h4.605V4.5Zm2.871,3.172A2.884,2.884,0,0,0,21.911,4.5V6.423a.961.961,0,0,1,.958,1.058l1.913.192ZM24.224,14.2l.557-6.538L22.866,7.5l-.557,6.538,1.915.163Zm.546-1.043h-1.5v1.923h1.5V13.154Zm1.3-.923c-.491.64-.923.923-1.3.923v1.923A3.7,3.7,0,0,0,27.595,13.4l-1.527-1.169Zm1.813-1a2.313,2.313,0,0,0-1.813,1L27.6,13.4a.883.883,0,0,1,.226-.221.217.217,0,0,1,.048-.023l.011,0V11.23Zm2.883,4.806a7.182,7.182,0,0,0-.665-3.149,2.622,2.622,0,0,0-2.219-1.658v1.923h.006l.019.006a.455.455,0,0,1,.1.069,1.654,1.654,0,0,1,.373.52,5.289,5.289,0,0,1,.461,2.29h1.923Zm-2.884,4.807A2.62,2.62,0,0,0,30.1,19.186a7.17,7.17,0,0,0,.666-3.149H28.842a5.263,5.263,0,0,1-.461,2.288,1.654,1.654,0,0,1-.373.521.411.411,0,0,1-.121.075h-.006Zm-1.813-1a2.311,2.311,0,0,0,1.813,1V18.921l-.011,0a.217.217,0,0,1-.048-.023.88.88,0,0,1-.226-.221l-1.527,1.169Zm-1.3-.923c.375,0,.808.283,1.3.923l1.527-1.169A3.7,3.7,0,0,0,24.77,17v1.923Zm-1.5,0h1.5V17h-1.5v1.923Zm1.515,5.5-.557-6.538-1.915.162.557,6.539Zm-2.87,3.157A2.884,2.884,0,0,0,24.781,24.4l-1.913.192a.961.961,0,0,1-.958,1.058v1.923Zm-4.605,0h4.605V25.651H17.305Zm.961-.961v-.735H16.344v.735Zm0-.735c0-.375.283-.808.923-1.3l-1.169-1.527a3.7,3.7,0,0,0-1.677,2.824h1.923Zm.923-1.3a2.311,2.311,0,0,0,1-1.813H18.267l0,.011a.217.217,0,0,1-.023.048.883.883,0,0,1-.221.226l1.169,1.527Zm1-1.813a2.62,2.62,0,0,0-1.658-2.219,7.182,7.182,0,0,0-3.149-.665v1.923a5.257,5.257,0,0,1,2.288.461,1.649,1.649,0,0,1,.521.373.411.411,0,0,1,.075.121v.006H20.19Zm-4.807-2.883a7.182,7.182,0,0,0-3.149.665,2.622,2.622,0,0,0-1.658,2.219H12.5V22.76l.006-.019a.411.411,0,0,1,.069-.1,1.652,1.652,0,0,1,.52-.373,5.3,5.3,0,0,1,2.289-.461Zm-4.807,2.884a2.313,2.313,0,0,0,1,1.813l1.169-1.527a.883.883,0,0,1-.221-.226.217.217,0,0,1-.023-.048l0-.012Zm1,1.813c.64.491.923.923.923,1.3h1.923a3.7,3.7,0,0,0-1.677-2.824l-1.169,1.527Zm.923,1.3v.735h1.923v-.735Zm-3.644,1.7H13.46V25.651H8.854ZM5.984,24.4a2.884,2.884,0,0,0,2.871,3.172V25.651A.961.961,0,0,1,7.9,24.593L5.983,24.4Zm.557-6.524-.557,6.539L7.9,24.58l.557-6.538-1.915-.165Zm-.546,1.044H7.5V17h-1.5v1.923Zm-1.3.923c.491-.64.923-.923,1.3-.923V17a3.7,3.7,0,0,0-2.824,1.677L4.7,19.845Zm-1.813,1a2.313,2.313,0,0,0,1.813-1L3.17,18.676a.883.883,0,0,1-.226.221.215.215,0,0,1-.048.023H2.884v1.923ZM0,16.037a7.182,7.182,0,0,0,.665,3.149,2.622,2.622,0,0,0,2.219,1.658V18.921H2.877a.409.409,0,0,1-.123-.075,1.654,1.654,0,0,1-.371-.52,5.313,5.313,0,0,1-.461-2.289ZM2.884,11.23A2.62,2.62,0,0,0,.666,12.888,7.17,7.17,0,0,0,0,16.037H1.923a5.257,5.257,0,0,1,.461-2.288,1.654,1.654,0,0,1,.373-.521.409.409,0,0,1,.121-.075h.006Zm1.813,1a2.311,2.311,0,0,0-1.813-1v1.923l.011,0a.215.215,0,0,1,.048.023.869.869,0,0,1,.226.221L4.7,12.23Zm1.3.923c-.375,0-.808-.283-1.3-.923L3.171,13.4a3.7,3.7,0,0,0,2.824,1.677V13.153Zm1.5,0H6v1.923H7.5V13.153Zm-1.515-5.5.557,6.538,1.915-.163L7.9,7.494l-1.915.163Z" fill="url(#linear-gradient)"/>
  </g>
</svg>
