<svg xmlns="http://www.w3.org/2000/svg" xmlns:xlink="http://www.w3.org/1999/xlink" width="59.276" height="62.667" viewBox="0 0 59.276 62.667">
  <defs>
    <filter id="Path_13169" x="6.53" y="0" width="46.215" height="49.369" filterUnits="userSpaceOnUse">
      <feOffset dy="3" input="SourceAlpha"/>
      <feGaussianBlur stdDeviation="5" result="blur"/>
      <feFlood flood-opacity="0.09"/>
      <feComposite operator="in" in2="blur"/>
      <feComposite in="SourceGraphic"/>
    </filter>
    <filter id="Path_13170" x="0" y="19.99" width="59.276" height="42.677" filterUnits="userSpaceOnUse">
      <feOffset dy="3" input="SourceAlpha"/>
      <feGaussianBlur stdDeviation="5" result="blur-2"/>
      <feFlood flood-opacity="0.09"/>
      <feComposite operator="in" in2="blur-2"/>
      <feComposite in="SourceGraphic"/>
    </filter>
  </defs>
  <g id="Group_4488" data-name="Group 4488" transform="translate(-181.97 -469.008)">
    <g id="Group_4487" data-name="Group 4487" transform="translate(197.47 481.508)">
      <g id="Group_4482" data-name="Group 4482">
        <g transform="matrix(1, 0, 0, 1, -15.5, -12.5)" filter="url(#Path_13169)">
          <path id="Path_13169-2" data-name="Path 13169" d="M952.754,855.535l.015.1a3.314,3.314,0,0,0,1.411,2.442,7.119,7.119,0,0,0,2.83,4.081,5.589,5.589,0,0,0,6.564,0,6.8,6.8,0,0,0,1.948-2.042,7.657,7.657,0,0,0,.616-1.244,4.416,4.416,0,0,0,.171-.563c.016-.061.035-.137.049-.182a2.808,2.808,0,0,1,.236-.213l.053-.046.182-.16a3.2,3.2,0,0,0,.981-2.065c.015-.1.027-.2.046-.312.031-.205.065-.441.08-.681.015-.2.015-.373.011-.536s0-1.286,0-1.289a8.751,8.751,0,0,0-1.635-5.592,7.483,7.483,0,0,0-5.952-2.316,8.524,8.524,0,0,0-5.652,2.073,6.528,6.528,0,0,0-1.814,4.081c-.019.152-.065,1.114-.1,2.107-.038.958-.069,1.947-.053,2.259C952.743,855.5,952.747,855.535,952.754,855.535Zm1.662-2.229a.462.462,0,0,0,.056-.011l.141-.026v-.422a3.132,3.132,0,0,1,.117-.844,2.8,2.8,0,0,1,1.852-1.963,3.021,3.021,0,0,1,.32-.076.327.327,0,0,0,.042.076.214.214,0,0,0,.016.03,1.531,1.531,0,0,0,.282.452,8.611,8.611,0,0,0,8.6,3.708c.1-.015.2-.034.3-.057.137-.026.273-.06.414-.091l0,.065a4.054,4.054,0,0,1-.007.415c-.012.182-.038.365-.073.574-.016.106-.03.216-.045.33a1.865,1.865,0,0,1-.541,1.218c-.049.046-.1.087-.152.133l-.053.042a3.569,3.569,0,0,0-.441.426,1.7,1.7,0,0,0-.293.711,2.913,2.913,0,0,1-.107.361,6.546,6.546,0,0,1-.509,1.031,5.357,5.357,0,0,1-1.548,1.628c-.148.1-.3.195-.468.286a4.164,4.164,0,0,1-4.058.008l-.016-.012a5.28,5.28,0,0,1-.464-.282,5.821,5.821,0,0,1-2.324-3.488.819.819,0,0,0-.235-.418l-.069-.06-.076-.042a1.945,1.945,0,0,1-.943-1.544c-.008-.064-.019-.129-.027-.2a.024.024,0,0,1,0-.016l-.015-.125c-.031-.2-.061-.381-.073-.559,0-.118-.011-.266,0-.422l0-.087C954,853.751,954.177,853.363,954.417,853.306Z" transform="translate(-930.71 -832.41)" fill="none" stroke="#244094" stroke-width="1"/>
        </g>
        <g transform="matrix(1, 0, 0, 1, -15.5, -12.5)" filter="url(#Path_13170)">
          <path id="Path_13170-2" data-name="Path 13170" d="M972.55,881.511l-.008-.059c-.239-2.085-.46-4.172-.684-6.256-.015-.157-.036-.3-.057-.44a2.929,2.929,0,0,0-.257-.89,1.645,1.645,0,0,0-.337-.474c-.172-.074-.36-.141-.561-.216-.011,0-.026,0-.036,0-.751-.257-1.519-.476-2.278-.7q-1.034-.3-2.077-.587c-1.582-.533-3.07-1.025-3.16-1.032-.023.088-.046.178-.072.26-.191.71-.373,1.418-.569,2.123-.147.533-.3,1.06-.458,1.588-.448,1.447-.952,2.88-1.454,4.311a.272.272,0,0,1-.018.049,4.391,4.391,0,0,1-.212.471c-.038-.273-.136-1.3-.236-2.417-.142-1.568-.291-3.3-.291-3.3l.546-1.155a.385.385,0,0,0-.005-.332l-.3-.579a.378.378,0,0,0-.334-.2h-2.548a.378.378,0,0,0-.334.2l-.3.579a.376.376,0,0,0,0,.332l.545,1.155s-.149,1.729-.29,3.3c-.1,1.112-.2,2.143-.237,2.417a3.47,3.47,0,0,1-.211-.471.164.164,0,0,1-.019-.049c-.5-1.431-1.006-2.864-1.456-4.311-.16-.527-.312-1.055-.455-1.588-.2-.7-.381-1.413-.571-2.123-.023-.083-.046-.172-.069-.26-.09.008-1.585.5-3.173,1.035-.689.191-1.377.384-2.058.584-.768.226-1.526.445-2.278.7-.016,0-.026,0-.036,0-.2.075-.388.142-.561.216a1.616,1.616,0,0,0-.338.466,2.97,2.97,0,0,0-.257.9c-.026.137-.042.283-.057.44q-.336,3.127-.689,6.256l-.008.059a.865.865,0,0,0,.859.965c.2,0,.432,0,.687,0h.008a1.044,1.044,0,0,0,.175.012h24.8a.971.971,0,0,0,.17-.012H971c.26,0,.494,0,.7,0A.861.861,0,0,0,972.55,881.511Z" transform="translate(-928.78 -838.32)" fill="none" stroke="#244094" stroke-width="1"/>
        </g>
      </g>
    </g>
    <path id="Path_13195" data-name="Path 13195" d="M.744-7.486H2.826L2.488,1.5H1.064ZM1.776,4.507a.994.994,0,0,1-.747-.294,1.041,1.041,0,0,1-.285-.756.988.988,0,0,1,.285-.73,1.01,1.01,0,0,1,.747-.285,1.01,1.01,0,0,1,.747.285.988.988,0,0,1,.285.73,1.041,1.041,0,0,1-.285.756A.994.994,0,0,1,1.776,4.507Zm6.3-3.1Q8,1.411,7.968,1.3a2.154,2.154,0,0,1-.062-.276,2.759,2.759,0,0,0-.08-.338,7.229,7.229,0,0,0-.552-1.5q-.391-.81-1.05-1.984-.73-1.334-1.076-2.082A3.2,3.2,0,0,1,4.8-6.2a2.528,2.528,0,0,1,.3-1.121,2.669,2.669,0,0,1,1.014-1.05,3.447,3.447,0,0,1,1.85-.445,3.45,3.45,0,0,1,1.744.391,2.528,2.528,0,0,1,.979.934,2.141,2.141,0,0,1,.3,1.041,1.184,1.184,0,0,1-.24.73.948.948,0,0,1-.81.32,1.9,1.9,0,0,1-.854-.214l.018-.569a1.482,1.482,0,0,0-.294-.863.879.879,0,0,0-.738-.365,1,1,0,0,0-.818.409,1.513,1.513,0,0,0-.32.961A1.819,1.819,0,0,0,7.1-5.27a10.338,10.338,0,0,0,.525.952,10.434,10.434,0,0,1,.774,1.5A4.3,4.3,0,0,1,8.68-1.2,9.349,9.349,0,0,1,8.511.5Q8.342,1.411,8.075,1.411Zm.089,3.06a1.1,1.1,0,0,1-.792-.32,1.054,1.054,0,0,1,0-1.53,1.1,1.1,0,0,1,.792-.32,1.015,1.015,0,0,1,.756.32,1.1,1.1,0,0,1,0,1.53A1.015,1.015,0,0,1,8.164,4.471Z" transform="translate(192 488)" fill="#a977e1"/>
  </g>
</svg>
