<svg xmlns="http://www.w3.org/2000/svg" width="27.024" height="27.024" viewBox="0 0 27.024 27.024">
  <g id="remove-line" opacity="0.3">
    <path id="Path_14164" data-name="Path 14164" d="M18.372,16.975l4.1-4.1a.844.844,0,0,0-1.191-1.191l-4.1,4.062-4.13-4.13A.844.844,0,0,0,11.861,12.8l4.121,4.172-4.037,3.986a.844.844,0,1,0,1.191,1.191l4.028-4.028,4,4a.844.844,0,0,0,1.191-1.191Z" transform="translate(-3.501 -3.463)" fill="#459fd4"/>
    <path id="Path_14165" data-name="Path 14165" d="M15.512,29.024A13.512,13.512,0,1,1,29.024,15.512,13.512,13.512,0,0,1,15.512,29.024Zm0-25.335A11.823,11.823,0,1,0,27.335,15.512,11.823,11.823,0,0,0,15.512,3.689Z" transform="translate(-2 -2)" fill="#459fd4"/>
  </g>
</svg>
