<svg xmlns="http://www.w3.org/2000/svg" width="15.602" height="17.941" viewBox="0 0 15.602 17.941">
  <g id="Group_18154" data-name="Group 18154" transform="translate(-12429.898 -13041.59)">
    <path id="Path_43411" data-name="Path 43411" d="M22.165,5.29a.78.78,0,0,0,0,1.1l4.13,4.128-4.13,4.128a.781.781,0,0,0,1.1,1.1l4.68-4.68a.78.78,0,0,0,0-1.1l-4.68-4.68a.78.78,0,0,0-1.1,0Z" transform="translate(12458.077 13064.593) rotate(180)" fill="#4184ce" fill-rule="evenodd"/>
    <path id="Path_43412" data-name="Path 43412" d="M23.259,12.593a.78.78,0,0,0-.78-.78H12.338a3.9,3.9,0,0,0-3.9,3.9v8.58a.78.78,0,1,0,1.56,0v-8.58a2.34,2.34,0,0,1,2.34-2.34h10.14A.78.78,0,0,0,23.259,12.593Z" transform="translate(12453.938 13066.663) rotate(180)" fill="#4184ce" fill-rule="evenodd"/>
  </g>
</svg>
