<svg id="icon_61_" xmlns="http://www.w3.org/2000/svg" xmlns:xlink="http://www.w3.org/1999/xlink" width="20" height="19.999" viewBox="0 0 20 19.999">
  <defs>
    <linearGradient id="linear-gradient" x1="0.5" x2="0.5" y2="1" gradientUnits="objectBoundingBox">
      <stop offset="0" stop-color="#48dbe1"/>
      <stop offset="1" stop-color="#4166cd"/>
      <stop offset="1" stop-color="#236b73"/>
    </linearGradient>
  </defs>
  <path id="Path_3835" data-name="Path 3835" d="M611.777,228.886a3,3,0,1,1,3-3A3,3,0,0,1,611.777,228.886Zm0-4a1,1,0,1,0,1,1A1,1,0,0,0,611.777,224.886Z" transform="translate(-601.777 -215.887)" fill="url(#linear-gradient)"/>
  <path id="Path_3836" data-name="Path 3836" d="M605.674,229.784a2,2,0,0,1-2-2l.014-.166a.986.986,0,0,0-.492-.93,2.184,2.184,0,0,0-.646-.27.992.992,0,0,0-1.012.309l-.106.126a2.051,2.051,0,0,1-2.829,0,2,2,0,0,1,0-2.828l.127-.107a.99.99,0,0,0,.31-1.012,2.17,2.17,0,0,0-.27-.646.992.992,0,0,0-.949-.489l-.145.011a2,2,0,0,1,0-4l.165.014a.987.987,0,0,0,.93-.493,2.173,2.173,0,0,0,.27-.645.991.991,0,0,0-.327-1.024l-.11-.1a2,2,0,0,1,0-2.827,2.049,2.049,0,0,1,2.829,0l.106.126a.988.988,0,0,0,1.012.309,2.174,2.174,0,0,0,.648-.271.985.985,0,0,0,.487-.949l-.011-.145a2,2,0,1,1,4,0l-.014.166a.985.985,0,0,0,.492.93,2.184,2.184,0,0,0,.646.27.991.991,0,0,0,1.012-.309l.106-.126a2.051,2.051,0,0,1,2.829,0,2,2,0,0,1,0,2.828l-.127.107a.99.99,0,0,0-.31,1.012,2.17,2.17,0,0,0,.27.646.992.992,0,0,0,.949.489l.145-.011a2,2,0,1,1,0,4l-.165-.014a.987.987,0,0,0-.93.493,2.176,2.176,0,0,0-.27.645.991.991,0,0,0,.327,1.024l.111.1a2,2,0,0,1,0,2.828,2.051,2.051,0,0,1-2.829,0l-.106-.126a.983.983,0,0,0-1.012-.309,2.174,2.174,0,0,0-.648.271.985.985,0,0,0-.487.949l.011.145A2,2,0,0,1,605.674,229.784Zm-3.4-5.4a3.178,3.178,0,0,1,.725.085,4.159,4.159,0,0,1,1.25.52,1.572,1.572,0,1,0,2.842,0,4.156,4.156,0,0,1,1.252-.521,2.984,2.984,0,0,1,2.6.583,2.989,2.989,0,0,1-.584-2.6,4.142,4.142,0,0,1,.521-1.251,2.979,2.979,0,0,1,2.245-1.422,2.979,2.979,0,0,1-2.245-1.42,4.133,4.133,0,0,1-.52-1.251,2.986,2.986,0,0,1,.583-2.6,2.987,2.987,0,0,1-2.6.583,4.16,4.16,0,0,1-1.25-.52,1.572,1.572,0,1,0-2.842,0A4.156,4.156,0,0,1,603,215.1a2.986,2.986,0,0,1-2.6-.583,2.987,2.987,0,0,1,.584,2.6,4.137,4.137,0,0,1-.521,1.251,2.979,2.979,0,0,1-2.245,1.422,2.98,2.98,0,0,1,2.245,1.42,4.132,4.132,0,0,1,.52,1.251,2.986,2.986,0,0,1-.583,2.6A2.982,2.982,0,0,1,602.276,224.386Z" transform="translate(-595.674 -209.785)" fill="url(#linear-gradient)"/>
</svg>
