<svg xmlns="http://www.w3.org/2000/svg" xmlns:xlink="http://www.w3.org/1999/xlink" width="18.793" height="18.585" viewBox="0 0 18.793 18.585">
  <defs>
    <linearGradient id="linear-gradient" x1="0.5" x2="0.5" y2="1" gradientUnits="objectBoundingBox">
      <stop offset="0" stop-color="#48dbe1"/>
      <stop offset="1" stop-color="#4166cd"/>
      <stop offset="1" stop-color="#236b73"/>
    </linearGradient>
  </defs>
  <g id="administrator-solid" transform="translate(0 0)">
    <path id="Path_14482" data-name="Path 14482" d="M8.67,5.835A3.535,3.535,0,1,0,12.2,2.3,3.535,3.535,0,0,0,8.67,5.835Z" transform="translate(-0.875 -2.3)" fill="url(#linear-gradient)"/>
    <path id="Path_14483" data-name="Path 14483" d="M2.106,26.021a1.267,1.267,0,0,0,.224-1.5l-.312-.589.642-.194A1.261,1.261,0,0,0,3.544,22.5V21.29a1.273,1.273,0,0,0-.9-1.22L2,19.876l.306-.589A1.278,1.278,0,0,0,2.1,17.8a11.146,11.146,0,0,1,1.367-.094,9.179,9.179,0,0,1,7.146,3.158v4.566a.589.589,0,0,1-.589.589H2.106Z" transform="translate(8.18 -8.63)" fill="url(#linear-gradient)"/>
    <path id="Path_14484" data-name="Path 14484" d="M15.858,20.3l1.178-.353a3.965,3.965,0,0,1,.342-.837l-.589-1.1a.206.206,0,0,1,.041-.253l.854-.86a.224.224,0,0,1,.253-.041l1.09.589a4.56,4.56,0,0,1,.842-.353l.359-1.178a.224.224,0,0,1,.212-.147h1.225a.224.224,0,0,1,.206.153l.353,1.178a4.036,4.036,0,0,1,.854.359l1.066-.589a.224.224,0,0,1,.259.035l.866.848a.218.218,0,0,1,.041.259l-.589,1.072a4.265,4.265,0,0,1,.383.842l1.178.359a.212.212,0,0,1,.153.206V21.7a.212.212,0,0,1-.153.206l-1.178.359a4.3,4.3,0,0,1-.353.831l.589,1.119a.218.218,0,0,1-.041.259l-.878.854a.224.224,0,0,1-.259.035l-1.1-.589a4.177,4.177,0,0,1-.825.336l-.353,1.208a.224.224,0,0,1-.212.153H20.465a.224.224,0,0,1-.206-.153l-.353-1.208a3.935,3.935,0,0,1-.813-.336l-1.113.589a.224.224,0,0,1-.259-.035l-.86-.854a.224.224,0,0,1-.035-.259l.589-1.108a4.077,4.077,0,0,1-.336-.813L15.9,21.938a.23.23,0,0,1-.159-.206v-1.22A.236.236,0,0,1,15.858,20.3Zm5.2,2.781A1.968,1.968,0,1,0,19.1,21.113a1.968,1.968,0,0,0,1.962,1.968Z" transform="translate(-15.74 -7.889)" fill="url(#linear-gradient)"/>
  </g>
</svg>
