<svg xmlns="http://www.w3.org/2000/svg" xmlns:xlink="http://www.w3.org/1999/xlink" width="19.17" height="21.215" viewBox="0 0 19.17 21.215">
  <defs>
    <linearGradient id="linear-gradient" x1="0.5" x2="0.5" y2="1" gradientUnits="objectBoundingBox">
      <stop offset="0" stop-color="#48dbe1"/>
      <stop offset="1" stop-color="#4166cd"/>
      <stop offset="1" stop-color="#236b73"/>
    </linearGradient>
  </defs>
  <g id="Group_13514" data-name="Group 13514" transform="translate(-315.627 -641.785)">
    <g id="Outline" transform="translate(317.627 641.785)" opacity="0.8">
      <path id="Path_3514" data-name="Path 3514" d="M18.975,17a3.1,3.1,0,0,0-2.087.82L9.294,13.4a3.486,3.486,0,0,0,.1-.746,3.486,3.486,0,0,0-.1-.746L16.8,7.527A3.188,3.188,0,1,0,15.78,5.2a3.486,3.486,0,0,0,.1.746L8.368,10.318a3.2,3.2,0,1,0,0,4.665l7.583,4.43a3,3,0,0,0-.085.692A3.11,3.11,0,1,0,18.975,17Zm0-12.865A1.065,1.065,0,1,1,17.91,5.2,1.068,1.068,0,0,1,18.975,4.13ZM6.2,13.715A1.065,1.065,0,1,1,7.26,12.65,1.068,1.068,0,0,1,6.2,13.715Zm12.78,7.476a1.065,1.065,0,1,1,1.065-1.065A1.068,1.068,0,0,1,18.975,21.192Z" transform="translate(-5 -2)" fill="url(#linear-gradient)"/>
    </g>
  </g>
</svg>
