<svg xmlns="http://www.w3.org/2000/svg" xmlns:xlink="http://www.w3.org/1999/xlink" width="50.49" height="50.49" viewBox="0 0 50.49 50.49">
  <defs>
    <filter id="Path_14035" x="5.191" y="3.716" width="40.211" height="43.055" filterUnits="userSpaceOnUse">
      <feOffset dy="3" input="SourceAlpha"/>
      <feGaussianBlur stdDeviation="5" result="blur"/>
      <feFlood flood-opacity="0.09"/>
      <feComposite operator="in" in2="blur"/>
      <feComposite in="SourceGraphic"/>
    </filter>
    <filter id="Path_14036" x="0" y="0" width="50.49" height="50.49" filterUnits="userSpaceOnUse">
      <feOffset dy="3" input="SourceAlpha"/>
      <feGaussianBlur stdDeviation="5" result="blur-2"/>
      <feFlood flood-opacity="0.09"/>
      <feComposite operator="in" in2="blur-2"/>
      <feComposite in="SourceGraphic"/>
    </filter>
  </defs>
  <g id="Group_14134" data-name="Group 14134" transform="translate(15 12)">
    <g transform="matrix(1, 0, 0, 1, -15, -12)" filter="url(#Path_14035)">
      <path id="Path_14035-2" data-name="Path 14035" d="M19.325,7.677,9.689,12.5l-.574-1.146,9.637-4.817Zm-.574,11.91L9.115,14.769l.575-1.146,9.637,4.819-.574,1.145Z" transform="translate(11.08 9.18)" fill="#636363"/>
    </g>
    <g transform="matrix(1, 0, 0, 1, -15, -12)" filter="url(#Path_14036)">
      <path id="Path_14036-2" data-name="Path 14036" d="M17.289,6.4a3.2,3.2,0,1,0-3.2-3.2A3.2,3.2,0,0,0,17.289,6.4Zm0,14.087a3.2,3.2,0,1,0-3.2-3.2A3.2,3.2,0,0,0,17.289,20.49ZM3.2,13.447a3.2,3.2,0,1,0-3.2-3.2,3.2,3.2,0,0,0,3.2,3.2Z" transform="translate(15 12)" fill="#636363"/>
    </g>
  </g>
</svg>
