<svg xmlns="http://www.w3.org/2000/svg" width="16.51" height="19.3" viewBox="0 0 16.51 19.3">
  <path id="Icon_payment-invoice-sign-alt-o" data-name="Icon payment-invoice-sign-alt-o" d="M27.191,20.458a2.725,2.725,0,0,1,.528.792,2.258,2.258,0,0,1,.188.942v12.44a.9.9,0,0,1-.3.716.977.977,0,0,1-.716.3H12.415a.975.975,0,0,1-.716-.3.9.9,0,0,1-.3-.716V17.367a.9.9,0,0,1,.3-.716.977.977,0,0,1,.716-.3h9.65a2.244,2.244,0,0,1,.942.226,2.837,2.837,0,0,1,.829.49l3.355,3.392Zm-.641,13.8V23.248H22.065a.975.975,0,0,1-.716-.3.946.946,0,0,1-.3-.754V17.744H12.754v16.51h13.8Zm-3.091-6.86a.309.309,0,0,1,.226.075.363.363,0,0,1,.113.264v.679a.363.363,0,0,1-.113.264.575.575,0,0,1-.226.075H15.845a.569.569,0,0,1-.226-.075.362.362,0,0,1-.113-.264v-.679a.364.364,0,0,1,.113-.264.307.307,0,0,1,.226-.075Zm0,2.752a.581.581,0,0,1,.226.075.363.363,0,0,1,.113.264v.679a.363.363,0,0,1-.113.264.575.575,0,0,1-.226.075H15.845a.569.569,0,0,1-.226-.075.362.362,0,0,1-.113-.264v-.679a.364.364,0,0,1,.113-.264.575.575,0,0,1,.226-.075ZM22.4,17.82v4.033h4.071a.691.691,0,0,0-.264-.415l-3.355-3.393a1.235,1.235,0,0,0-.452-.226Z" transform="translate(-11.397 -16.35)" fill="#244094"/>
</svg>
