<svg xmlns="http://www.w3.org/2000/svg" xmlns:xlink="http://www.w3.org/1999/xlink" width="40.905" height="43.958" viewBox="0 0 40.905 43.958">
  <defs>
    <filter id="Path_42628" x="0" y="10.033" width="31.942" height="31.745" filterUnits="userSpaceOnUse">
      <feOffset dy="3" input="SourceAlpha"/>
      <feGaussianBlur stdDeviation="5" result="blur"/>
      <feFlood flood-opacity="0.09"/>
      <feComposite operator="in" in2="blur"/>
      <feComposite in="SourceGraphic"/>
    </filter>
    <filter id="Path_42629" x="1.745" y="0.873" width="37.852" height="42.214" filterUnits="userSpaceOnUse">
      <feOffset dy="3" input="SourceAlpha"/>
      <feGaussianBlur stdDeviation="5" result="blur-2"/>
      <feFlood flood-opacity="0.09"/>
      <feComposite operator="in" in2="blur-2"/>
      <feComposite in="SourceGraphic"/>
    </filter>
    <filter id="Path_42634" x="9.16" y="0" width="31.745" height="43.958" filterUnits="userSpaceOnUse">
      <feOffset dy="3" input="SourceAlpha"/>
      <feGaussianBlur stdDeviation="5" result="blur-3"/>
      <feFlood flood-opacity="0.09"/>
      <feComposite operator="in" in2="blur-3"/>
      <feComposite in="SourceGraphic"/>
    </filter>
  </defs>
  <g id="Group_16883" data-name="Group 16883" transform="translate(13797.122 -11812.26)">
    <g id="Group_16634" data-name="Group 16634" transform="translate(-13782.122 11825.133)">
      <g transform="matrix(1, 0, 0, 1, -15, -12.87)" filter="url(#Path_42628)">
        <path id="Path_42628-2" data-name="Path 42628" d="M12.3,23.495H11.25V21.75h1.745l.174.654A.892.892,0,0,1,12.3,23.495Z" transform="translate(3.75 0.28)" fill="#097534"/>
      </g>
      <g transform="matrix(1, 0, 0, 1, -15, -12.87)" filter="url(#Path_42629)">
        <path id="Path_42629-2" data-name="Path 42629" d="M22.1,18.214S16.954,15.16,14.25,15.16V9.053C16.78,9.053,22.1,6,22.1,6Z" transform="translate(2.49 6.87)" fill="#097534"/>
      </g>
    </g>
    <g id="Group_16635" data-name="Group 16635" transform="translate(-13786.921 11829.059)">
      <path id="Path_42630" data-name="Path 42630" d="M7.362,14.931A2.181,2.181,0,1,1,5.181,12.75,2.181,2.181,0,0,1,7.362,14.931Z" transform="translate(-3 -12.75)" fill="#9fc5ae"/>
      <path id="Path_42631" data-name="Path 42631" d="M29.059,14.25H27.75v2.617h1.309a1.309,1.309,0,1,0,0-2.617Z" transform="translate(-13.355 -13.378)" fill="#9fc5ae"/>
      <path id="Path_42632" data-name="Path 42632" d="M10.686,25.956a4.536,4.536,0,0,1-2.007.611.558.558,0,0,1-.611-.436L6.15,20.154s3.839-2.7,3.839.48a7.591,7.591,0,0,0,.96,4.144.851.851,0,0,1,0,1A.913.913,0,0,1,10.686,25.956Z" transform="translate(-4.318 -15.4)" fill="#9fc5ae"/>
    </g>
    <path id="Path_42633" data-name="Path 42633" d="M6.122,17.357h4.362V11.25H6.122a.875.875,0,0,0-.872.872v4.362A.875.875,0,0,0,6.122,17.357Z" transform="translate(-13790.862 11816.936)" fill="#097534"/>
    <g transform="matrix(1, 0, 0, 1, -13797.12, 11812.26)" filter="url(#Path_42634)">
      <path id="Path_42634-2" data-name="Path 42634" d="M27.872,18.458A.875.875,0,0,1,27,17.586V5.372a.872.872,0,0,1,1.745,0V17.586A.875.875,0,0,1,27.872,18.458Z" transform="translate(-2.84 7.5)" fill="#9fc5ae"/>
    </g>
  </g>
</svg>
