<svg xmlns="http://www.w3.org/2000/svg" xmlns:xlink="http://www.w3.org/1999/xlink" width="51.301" height="43.695" viewBox="0 0 51.301 43.695">
  <defs>
    <linearGradient id="linear-gradient" x1="0.5" x2="0.5" y2="1" gradientUnits="objectBoundingBox">
      <stop offset="0" stop-color="#48dbe1"/>
      <stop offset="1" stop-color="#4166cd"/>
      <stop offset="1" stop-color="#236b73"/>
    </linearGradient>
    <filter id="Path_15233" x="12.172" y="0" width="39.129" height="43.695" filterUnits="userSpaceOnUse">
      <feOffset dy="3" input="SourceAlpha"/>
      <feGaussianBlur stdDeviation="5" result="blur"/>
      <feFlood flood-opacity="0.09"/>
      <feComposite operator="in" in2="blur"/>
      <feComposite in="SourceGraphic"/>
    </filter>
    <filter id="Path_15234" x="4.564" y="6.086" width="33.043" height="31.522" filterUnits="userSpaceOnUse">
      <feOffset dy="3" input="SourceAlpha"/>
      <feGaussianBlur stdDeviation="5" result="blur-2"/>
      <feFlood flood-opacity="0.09"/>
      <feComposite operator="in" in2="blur-2"/>
      <feComposite in="SourceGraphic"/>
    </filter>
    <filter id="Path_15235" x="13.695" y="6.086" width="33.043" height="31.522" filterUnits="userSpaceOnUse">
      <feOffset dy="3" input="SourceAlpha"/>
      <feGaussianBlur stdDeviation="5" result="blur-3"/>
      <feFlood flood-opacity="0.09"/>
      <feComposite operator="in" in2="blur-3"/>
      <feComposite in="SourceGraphic"/>
    </filter>
    <filter id="Path_15236" x="9.129" y="6.086" width="33.043" height="31.522" filterUnits="userSpaceOnUse">
      <feOffset dy="3" input="SourceAlpha"/>
      <feGaussianBlur stdDeviation="5" result="blur-4"/>
      <feFlood flood-opacity="0.09"/>
      <feComposite operator="in" in2="blur-4"/>
      <feComposite in="SourceGraphic"/>
    </filter>
    <filter id="Path_15237" x="0" y="0" width="39.129" height="43.695" filterUnits="userSpaceOnUse">
      <feOffset dy="3" input="SourceAlpha"/>
      <feGaussianBlur stdDeviation="5" result="blur-5"/>
      <feFlood flood-opacity="0.09"/>
      <feComposite operator="in" in2="blur-5"/>
      <feComposite in="SourceGraphic"/>
    </filter>
  </defs>
  <g id="Group_17529" data-name="Group 17529" transform="translate(16829.551 -213.056)">
    <g transform="matrix(1, 0, 0, 1, -16829.55, 213.06)" filter="url(#Path_15233)">
      <path id="Path_15233-2" data-name="Path 15233" d="M27.858,21.57H21.772a1.524,1.524,0,0,1-1.522-1.522V17.766h1.522v2.282h6.086V9.4H21.772v2.282H20.25V9.4a1.523,1.523,0,0,1,1.522-1.522h6.086A1.523,1.523,0,0,1,29.38,9.4V20.048A1.524,1.524,0,0,1,27.858,21.57Z" transform="translate(6.92 4.13)" fill="url(#linear-gradient)"/>
    </g>
    <g transform="matrix(1, 0, 0, 1, -16829.55, 213.06)" filter="url(#Path_15234)">
      <path id="Path_15234-2" data-name="Path 15234" d="M9,16.875h3.043V18.4H9Z" transform="translate(10.56 1.21)" fill="url(#linear-gradient)"/>
    </g>
    <g transform="matrix(1, 0, 0, 1, -16829.55, 213.06)" filter="url(#Path_15235)">
      <path id="Path_15235-2" data-name="Path 15235" d="M22.5,16.875h3.043V18.4H22.5Z" transform="translate(6.2 1.21)" fill="url(#linear-gradient)"/>
    </g>
    <g transform="matrix(1, 0, 0, 1, -16829.55, 213.06)" filter="url(#Path_15236)">
      <path id="Path_15236-2" data-name="Path 15236" d="M15.75,16.875h3.043V18.4H15.75Z" transform="translate(8.38 1.21)" fill="url(#linear-gradient)"/>
    </g>
    <g transform="matrix(1, 0, 0, 1, -16829.55, 213.06)" filter="url(#Path_15237)">
      <path id="Path_15237-2" data-name="Path 15237" d="M9.858,21.57H3.772A1.523,1.523,0,0,1,2.25,20.048V9.4A1.523,1.523,0,0,1,3.772,7.875H9.858A1.523,1.523,0,0,1,11.38,9.4v2.282H9.858V9.4H3.772V20.048H9.858V17.766H11.38v2.282A1.523,1.523,0,0,1,9.858,21.57Z" transform="translate(12.75 4.13)" fill="url(#linear-gradient)"/>
    </g>
  </g>
</svg>
