<svg xmlns="http://www.w3.org/2000/svg" xmlns:xlink="http://www.w3.org/1999/xlink" width="63.426" height="63.426" viewBox="0 0 63.426 63.426">
  <defs>
    <linearGradient id="linear-gradient" x1="0.5" x2="0.5" y2="1" gradientUnits="objectBoundingBox">
      <stop offset="0" stop-color="#48dbe1"/>
      <stop offset="1" stop-color="#4166cd"/>
      <stop offset="1" stop-color="#236b73"/>
    </linearGradient>
    <filter id="Path_13841" x="9.551" y="0" width="44.324" height="44.326" filterUnits="userSpaceOnUse">
      <feOffset dy="3" input="SourceAlpha"/>
      <feGaussianBlur stdDeviation="5" result="blur"/>
      <feFlood flood-opacity="0.09"/>
      <feComposite operator="in" in2="blur"/>
      <feComposite in="SourceGraphic"/>
    </filter>
    <filter id="Path_13842" x="0" y="9.55" width="44.326" height="44.325" filterUnits="userSpaceOnUse">
      <feOffset dy="3" input="SourceAlpha"/>
      <feGaussianBlur stdDeviation="5" result="blur-2"/>
      <feFlood flood-opacity="0.09"/>
      <feComposite operator="in" in2="blur-2"/>
      <feComposite in="SourceGraphic"/>
    </filter>
    <filter id="Path_13843" x="19.101" y="9.55" width="44.325" height="44.325" filterUnits="userSpaceOnUse">
      <feOffset dy="3" input="SourceAlpha"/>
      <feGaussianBlur stdDeviation="5" result="blur-3"/>
      <feFlood flood-opacity="0.09"/>
      <feComposite operator="in" in2="blur-3"/>
      <feComposite in="SourceGraphic"/>
    </filter>
    <filter id="Path_13844" x="9.55" y="19.101" width="44.325" height="44.325" filterUnits="userSpaceOnUse">
      <feOffset dy="3" input="SourceAlpha"/>
      <feGaussianBlur stdDeviation="5" result="blur-4"/>
      <feFlood flood-opacity="0.09"/>
      <feComposite operator="in" in2="blur-4"/>
      <feComposite in="SourceGraphic"/>
    </filter>
  </defs>
  <g id="components" transform="translate(11.85 8.85)">
    <g transform="matrix(1, 0, 0, 1, -11.85, -8.85)" filter="url(#Path_13841)">
      <path id="Path_13841-2" data-name="Path 13841" d="M11.636,10.313,18.8,3.15l7.162,7.164L18.8,17.476Zm4.777,0L18.8,7.928l2.387,2.387L18.8,12.7l-2.387-2.387Z" transform="translate(12.91 8.85)" fill="url(#linear-gradient)"/>
    </g>
    <g transform="matrix(1, 0, 0, 1, -11.85, -8.85)" filter="url(#Path_13842)">
      <path id="Path_13842-2" data-name="Path 13842" d="M3.15,18.8l7.164-7.164L17.476,18.8,10.313,25.96Zm4.777,0,2.387-2.387L12.7,18.8l-2.387,2.387L7.928,18.8Z" transform="translate(11.85 9.91)" fill="url(#linear-gradient)"/>
    </g>
    <g transform="matrix(1, 0, 0, 1, -11.85, -8.85)" filter="url(#Path_13843)">
      <path id="Path_13843-2" data-name="Path 13843" d="M20.121,18.8l7.164,7.162L34.446,18.8l-7.162-7.164Zm7.164-2.387L24.9,18.8l2.387,2.387L29.67,18.8l-2.387-2.387Z" transform="translate(13.98 9.91)" fill="url(#linear-gradient)"/>
    </g>
    <g transform="matrix(1, 0, 0, 1, -11.85, -8.85)" filter="url(#Path_13844)">
      <path id="Path_13844-2" data-name="Path 13844" d="M11.636,27.285,18.8,20.121l7.162,7.164L18.8,34.446l-7.164-7.162Zm4.777,0L18.8,24.9l2.387,2.387L18.8,29.67l-2.387-2.387Z" transform="translate(12.91 10.98)" fill="url(#linear-gradient)"/>
    </g>
  </g>
</svg>
