<svg xmlns="http://www.w3.org/2000/svg" xmlns:xlink="http://www.w3.org/1999/xlink" width="45.992" height="48.659" viewBox="0 0 45.992 48.659">
  <defs>
    <linearGradient id="linear-gradient" x1="0.5" x2="0.5" y2="1" gradientUnits="objectBoundingBox">
      <stop offset="0" stop-color="#48dbe1"/>
      <stop offset="1" stop-color="#4166cd"/>
      <stop offset="1" stop-color="#236b73"/>
    </linearGradient>
    <filter id="Path_43053" x="3.998" y="5.331" width="37.996" height="36.27" filterUnits="userSpaceOnUse">
      <feOffset dy="3" input="SourceAlpha"/>
      <feGaussianBlur stdDeviation="5" result="blur"/>
      <feFlood flood-opacity="0.09"/>
      <feComposite operator="in" in2="blur"/>
      <feComposite in="SourceGraphic"/>
    </filter>
    <filter id="Path_43054" x="0" y="0" width="45.992" height="48.659" filterUnits="userSpaceOnUse">
      <feOffset dy="3" input="SourceAlpha"/>
      <feGaussianBlur stdDeviation="5" result="blur-2"/>
      <feFlood flood-opacity="0.09"/>
      <feComposite operator="in" in2="blur-2"/>
      <feComposite in="SourceGraphic"/>
    </filter>
  </defs>
  <g id="Group_17527" data-name="Group 17527" transform="translate(16825.346 64.284)">
    <g transform="matrix(1, 0, 0, 1, -16825.35, -64.28)" filter="url(#Path_43053)">
      <path id="Path_43053-2" data-name="Path 43053" d="M13.916,15.642l-1.726-1.726-.939.939,2.666,2.666,5.331-5.331-.939-.939Z" transform="translate(7.75 6.08)" fill="url(#linear-gradient)"/>
    </g>
    <g transform="matrix(1, 0, 0, 1, -16825.35, -64.28)" filter="url(#Path_43054)">
      <path id="Path_43054-2" data-name="Path 43054" d="M12.5,20.909,8.381,18.714A7.318,7.318,0,0,1,4.5,12.246V3.583A1.334,1.334,0,0,1,5.833,2.25H19.16a1.334,1.334,0,0,1,1.333,1.333v8.663a7.318,7.318,0,0,1-3.881,6.468ZM5.833,3.583v8.663a5.987,5.987,0,0,0,3.176,5.293L12.5,19.4l3.488-1.859a5.987,5.987,0,0,0,3.176-5.293V3.583Z" transform="translate(10.5 9.75)" fill="url(#linear-gradient)"/>
    </g>
  </g>
</svg>
