<svg xmlns="http://www.w3.org/2000/svg" xmlns:xlink="http://www.w3.org/1999/xlink" width="41" height="41" viewBox="0 0 41 41">
  <defs>
    <filter id="Ellipse_104" x="0" y="0" width="41" height="41" filterUnits="userSpaceOnUse">
      <feOffset dy="3" input="SourceAlpha"/>
      <feGaussianBlur stdDeviation="1.5" result="blur"/>
      <feFlood flood-opacity="0.22"/>
      <feComposite operator="in" in2="blur"/>
      <feComposite in="SourceGraphic"/>
    </filter>
    <linearGradient id="linear-gradient" x1="0.5" x2="0.5" y2="1" gradientUnits="objectBoundingBox">
      <stop offset="0" stop-color="#48dbe1"/>
      <stop offset="1" stop-color="#4166cd"/>
      <stop offset="1" stop-color="#236b73"/>
    </linearGradient>
  </defs>
  <g id="Group_17310" data-name="Group 17310" transform="translate(-18.5 -512.5)">
    <g transform="matrix(1, 0, 0, 1, 18.5, 512.5)" filter="url(#Ellipse_104)">
      <circle id="Ellipse_104-2" data-name="Ellipse 104" cx="16" cy="16" r="16" transform="translate(4.5 1.5)" fill="#fff"/>
    </g>
    <circle id="Ellipse_104-3" data-name="Ellipse 104" cx="14" cy="14" r="14" transform="translate(25 516)" fill="url(#linear-gradient)"/>
    <path id="Path_13948" data-name="Path 13948" d="M1.125,12.518H12.518V1.125H1.125Zm.76-10.633h9.874v9.874H1.885Z" transform="translate(32.18 523.232)" fill="#fff"/>
    <path id="Path_13949" data-name="Path 13949" d="M16.225,20.25H14.143l.9.611a.519.519,0,0,1,.227.384.49.49,0,0,1-.144.4.779.779,0,0,1-.52.243H12.141V23.17H14.61a2.027,2.027,0,0,0,1.42-.613,1.771,1.771,0,0,0,.52-1.429A1.8,1.8,0,0,0,16.225,20.25Z" transform="translate(24.883 510.563)" fill="#fff"/>
    <path id="Path_13950" data-name="Path 13950" d="M8.839,9.325a.508.508,0,0,1-.206-.579.476.476,0,0,1,.45-.362h2.807V7.1H9.048A1.751,1.751,0,0,0,7.4,8.391a1.778,1.778,0,0,0,.32,1.63h-2.1v.76H13.98v-.76H9.869Z" transform="translate(29.199 519.272)" fill="#fff"/>
  </g>
</svg>
