<svg xmlns="http://www.w3.org/2000/svg" width="28.911" height="29.083" viewBox="0 0 28.911 29.083">
  <path id="Icon_map-volume-control-telephone" data-name="Icon map-volume-control-telephone" d="M10.036,10.713h1.34c.4,0,.659-.591.659-.989V5.5c0-.4-.257-.288-.659-.288h-1.34Zm0,7.994h1.34c.4,0,.659.464.659.863v4.218c0,.4-.257.914-.659.914h-1.34Zm-1.769-4c-.011-3.856.713-4,1.127-4h.142v-5.5H9.366c-.736,0-4.326,1.21-4.326,9.742S8.63,24.7,9.366,24.7h.171v-6H9.394C8.981,18.707,8.279,18.563,8.268,14.71Zm4.864-8.3a1.633,1.633,0,0,1,0,2.078l.8.657a2.674,2.674,0,0,0,0-3.391l-.8.657ZM15.7,11.034A5.162,5.162,0,0,0,15.7,4.072l-.776.676a4.129,4.129,0,0,1-.011,5.609l.782.676Zm1.766,1.894A7.673,7.673,0,0,0,17.48,2.4l-.764.7a6.652,6.652,0,0,1-.011,9.139Zm1.773,1.895A10.2,10.2,0,0,0,19.252.72l-.746.713A9.16,9.16,0,0,1,18.488,14.1l.747.717Z" transform="matrix(0.719, -0.695, 0.695, 0.719, -4.126, 14.815)" fill="#438ed3"/>
</svg>
