<svg xmlns="http://www.w3.org/2000/svg" width="28.196" height="24.418" viewBox="0 0 28.196 24.418">
  <g id="trash-bin-outline" transform="translate(-1.375 -3.625)">
    <path id="Path_43247" data-name="Path 43247" d="M26.4,10.125,24.712,26.4a1.889,1.889,0,0,1-1.876,1.668H9.194A1.889,1.889,0,0,1,7.318,26.4L5.625,10.125" transform="translate(-0.541 -0.902)" fill="none" stroke="#459fd4" stroke-linecap="round" stroke-linejoin="round" stroke-width="1.75"/>
    <path id="Path_43248" data-name="Path 43248" d="M3.195,4.5H27.752a.945.945,0,0,1,.945.945V8.278a.945.945,0,0,1-.945.945H3.195a.945.945,0,0,1-.945-.945V5.445A.945.945,0,0,1,3.195,4.5Z" fill="none" stroke="#459fd4" stroke-linecap="round" stroke-linejoin="round" stroke-width="1.75"/>
    <path id="Path_43249" data-name="Path 43249" d="M20.675,16.875l-6.612,6.612" transform="translate(-1.895 -1.985)" fill="none" stroke="#459fd4" stroke-linecap="round" stroke-linejoin="round" stroke-width="1.75"/>
    <path id="Path_43250" data-name="Path 43250" d="M20.675,23.487l-6.612-6.612" transform="translate(-1.895 -1.985)" fill="none" stroke="#459fd4" stroke-linecap="round" stroke-linejoin="round" stroke-width="1.75"/>
  </g>
</svg>
