<svg xmlns="http://www.w3.org/2000/svg" xmlns:xlink="http://www.w3.org/1999/xlink" width="48.871" height="48.38" viewBox="0 0 48.871 48.38">
  <defs>
    <linearGradient id="linear-gradient" x1="0.5" x2="0.5" y2="1" gradientUnits="objectBoundingBox">
      <stop offset="0" stop-color="#48dbe1"/>
      <stop offset="1" stop-color="#4166cd"/>
      <stop offset="1" stop-color="#236b73"/>
    </linearGradient>
    <filter id="volume-up" x="0" y="0" width="48.871" height="48.38" filterUnits="userSpaceOnUse">
      <feOffset dy="3" input="SourceAlpha"/>
      <feGaussianBlur stdDeviation="5" result="blur"/>
      <feFlood flood-opacity="0.09"/>
      <feComposite operator="in" in2="blur"/>
      <feComposite in="SourceGraphic"/>
    </filter>
  </defs>
  <g transform="matrix(1, 0, 0, 1, 0, 0)" filter="url(#volume-up)">
    <path id="volume-up-2" data-name="volume-up" d="M18.871,6.514H14.694L9.436,1.255V18.063L14.694,12.8h4.177ZM4.718,9.659a4.6,4.6,0,0,0,.712,2.506,4.669,4.669,0,0,0,1.892,1.72V5.433a4.667,4.667,0,0,0-1.892,1.72,4.6,4.6,0,0,0-.712,2.506Zm2.6-9.19A9.357,9.357,0,0,0,2.089,3.762,9.053,9.053,0,0,0,0,9.659a9.046,9.046,0,0,0,2.088,5.9,9.359,9.359,0,0,0,5.234,3.293V16.686a7.245,7.245,0,0,1-3.735-2.629,7.088,7.088,0,0,1-1.475-4.4,7.079,7.079,0,0,1,1.475-4.4A7.245,7.245,0,0,1,7.323,2.631Z" transform="translate(15 11.53)" fill="url(#linear-gradient)"/>
  </g>
</svg>
