<svg id="phone" xmlns="http://www.w3.org/2000/svg" width="22.808" height="22.808" viewBox="0 0 22.808 22.808">
  <path id="Path_44" data-name="Path 44" d="M11.4,0a11.4,11.4,0,1,0,11.4,11.4A11.4,11.4,0,0,0,11.4,0Zm0,22.048A10.644,10.644,0,1,1,22.048,11.4,10.644,10.644,0,0,1,11.4,22.048Zm0,0" fill="#7acae4"/>
  <path id="Path_45" data-name="Path 45" d="M130.7,127.092l-3.226-.57a.38.38,0,0,0-.4.2l-.782,1.5a6.09,6.09,0,0,1-3.1-3.1l1.5-.782a.38.38,0,0,0,.2-.4l-.57-3.226a.38.38,0,0,0-.161-.249A2.661,2.661,0,0,0,120,122.66a8.753,8.753,0,0,0,8.743,8.743,2.661,2.661,0,0,0,2.2-4.15A.379.379,0,0,0,130.7,127.092Zm-1.957,3.551a7.992,7.992,0,0,1-7.983-7.983A1.9,1.9,0,0,1,123.593,121l.492,2.785-1.559.814a.38.38,0,0,0-.18.472,6.852,6.852,0,0,0,3.984,3.986.38.38,0,0,0,.472-.18l.814-1.559,2.785.492a1.9,1.9,0,0,1-1.657,2.831Zm0,0" transform="translate(-114.299 -114.297)" fill="#707070"/>
</svg>
