<svg xmlns="http://www.w3.org/2000/svg" width="18.564" height="17.406" viewBox="0 0 18.564 17.406">
  <g id="Group_18366" data-name="Group 18366" transform="translate(13746.282 -5700.297)">
    <path id="Path_14536" data-name="Path 14536" d="M9.128,16.785h9.515v1.787h.928V15.857H14.35V14h-.928v1.857H8.2v2.715h.928V16.785Z" transform="translate(-13750.886 5692.679)" fill="#fff"/>
    <path id="Path_14537" data-name="Path 14537" d="M8.962,23H3.16A1.16,1.16,0,0,0,2,24.16v3.481A1.16,1.16,0,0,0,3.16,28.8h5.8a1.16,1.16,0,0,0,1.16-1.16V24.16A1.16,1.16,0,0,0,8.962,23Zm-5.8,4.641V24.16h5.8v3.481Z" transform="translate(-13748.282 5688.901)" fill="#fff"/>
    <path id="Path_14538" data-name="Path 14538" d="M26.962,23h-5.8A1.16,1.16,0,0,0,20,24.16v3.481a1.16,1.16,0,0,0,1.16,1.16h5.8a1.16,1.16,0,0,0,1.16-1.16V24.16A1.16,1.16,0,0,0,26.962,23Zm-5.8,4.641V24.16h5.8v3.481Z" transform="translate(-13755.84 5688.901)" fill="#fff"/>
    <path id="Path_14539" data-name="Path 14539" d="M12.16,8.8h5.8a1.16,1.16,0,0,0,1.16-1.16V4.16A1.16,1.16,0,0,0,17.962,3h-5.8A1.16,1.16,0,0,0,11,4.16V7.641A1.16,1.16,0,0,0,12.16,8.8Zm0-4.641h5.8V7.641h-5.8Z" transform="translate(-13752.062 5697.297)" fill="#fff"/>
  </g>
</svg>
