<?xml version="1.0" encoding="UTF-8" standalone="no"?>
<svg
   width="50.95"
   height="54.22"
   viewBox="0 0 50.95 54.22"
   version="1.1"
   id="svg55"
   sodipodi:docname="active-notification.svg"
   inkscape:version="1.1.2 (b8e25be833, 2022-02-05)"
   xmlns:inkscape="http://www.inkscape.org/namespaces/inkscape"
   xmlns:sodipodi="http://sodipodi.sourceforge.net/DTD/sodipodi-0.dtd"
   xmlns:xlink="http://www.w3.org/1999/xlink"
   xmlns="http://www.w3.org/2000/svg"
   xmlns:svg="http://www.w3.org/2000/svg">
  <sodipodi:namedview
     id="namedview57"
     pagecolor="#ffffff"
     bordercolor="#666666"
     borderopacity="1.0"
     inkscape:pageshadow="2"
     inkscape:pageopacity="0.0"
     inkscape:pagecheckerboard="0"
     showgrid="false"
     inkscape:zoom="3.3151973"
     inkscape:cx="-19.606676"
     inkscape:cy="12.970571"
     inkscape:window-width="1280"
     inkscape:window-height="961"
     inkscape:window-x="-8"
     inkscape:window-y="-8"
     inkscape:window-maximized="1"
     inkscape:current-layer="svg55"
     showguides="true"
     inkscape:guide-bbox="true" />
  <defs
     id="defs42">
    <linearGradient
       id="linear-gradient"
       x1="0.5"
       x2="0.5"
       y2="1"
       gradientUnits="objectBoundingBox">
      <stop
         offset="0"
         stop-color="#48dbe1"
         id="stop2" />
      <stop
         offset="1"
         stop-color="#4166cd"
         id="stop4" />
      <stop
         offset="1"
         stop-color="#236b73"
         id="stop6" />
    </linearGradient>
    <filter
       id="Path_1018"
       x="0"
       y="0"
       width="50.95"
       height="50.916"
       filterUnits="userSpaceOnUse">
      <feOffset
         dy="3"
         input="SourceAlpha"
         id="feOffset9" />
      <feGaussianBlur
         stdDeviation="5"
         result="blur"
         id="feGaussianBlur11" />
      <feFlood
         flood-opacity="0.09"
         id="feFlood13" />
      <feComposite
         operator="in"
         in2="blur"
         id="feComposite15"
         result="result1" />
      <feComposite
         in="SourceGraphic"
         in2="result1"
         id="feComposite17" />
    </filter>
    <filter
       id="Path_1019"
       x="7.437"
       y="22.061"
       width="36.052"
       height="32.158"
       filterUnits="userSpaceOnUse">
      <feOffset
         dy="3"
         input="SourceAlpha"
         id="feOffset20" />
      <feGaussianBlur
         stdDeviation="5"
         result="blur-2"
         id="feGaussianBlur22" />
      <feFlood
         flood-opacity="0.09"
         id="feFlood24" />
      <feComposite
         operator="in"
         in2="blur-2"
         id="feComposite26"
         result="result1" />
      <feComposite
         in="SourceGraphic"
         in2="result1"
         id="feComposite28" />
    </filter>
    <filter
       id="Oval"
       x="12.045"
       y="0"
       width="38.604"
       height="38.604"
       filterUnits="userSpaceOnUse">
      <feOffset
         dy="3"
         input="SourceAlpha"
         id="feOffset31" />
      <feGaussianBlur
         stdDeviation="5"
         result="blur-3"
         id="feGaussianBlur33" />
      <feFlood
         flood-opacity="0.09"
         id="feFlood35" />
      <feComposite
         operator="in"
         in2="blur-3"
         id="feComposite37"
         result="result1" />
      <feComposite
         in="SourceGraphic"
         in2="result1"
         id="feComposite39" />
    </filter>
    <linearGradient
       inkscape:collect="always"
       xlink:href="#linear-gradient"
       id="linearGradient59"
       gradientUnits="userSpaceOnUse"
       x1="10.46912"
       x2="10.46912"
       y2="20.919959"
       gradientTransform="scale(1.0002741,0.99972597)"
       y1="-0.019146268" />
    <linearGradient
       inkscape:collect="always"
       xlink:href="#linear-gradient"
       id="linearGradient61"
       gradientUnits="userSpaceOnUse"
       x1="27.261113"
       x2="27.261113"
       y2="215.38786"
       gradientTransform="scale(1.6747665,0.59709816)"
       y1="211.77423" />
  </defs>
  <g
     id="Group_12102"
     data-name="Group 12102"
     transform="matrix(2.1518372,0,0,2.1518372,3.9888658,1.1628789)">
    <g
       id="Layer_1"
       data-name="Layer 1">
      <g
         transform="translate(-15,-12)"
         filter="url(#Path_1018)"
         id="g45">
        <path
           id="Path_1018-2"
           data-name="Path 1018"
           d="m 10.482,20.9 c -2.638,0 -5.274,-0.012 -7.91,0 A 2.3,2.3 0 0 1 0.289,19.7 2.128,2.128 0 0 1 0.6,17.147 7.067,7.067 0 0 0 2.255,11.61 23.453,23.453 0 0 1 2.355,6.916 8.138,8.138 0 0 1 8.786,0.15 a 8.3,8.3 0 0 1 8.731,3.773 8.171,8.171 0 0 1 1.211,4.283 c 0,1.961 -0.016,3.923 0.01,5.882 a 2.149,2.149 0 0 0 0.3,1.024 c 0.459,0.766 0.986,1.488 1.476,2.235 a 2.173,2.173 0 0 1 0.16,2.348 2.224,2.224 0 0 1 -2.092,1.205 z"
           transform="translate(15,12.01)"
           fill="url(#linear-gradient)"
           style="fill:url(#linearGradient59)" />
      </g>
      <g
         transform="translate(-15,-12)"
         filter="url(#Path_1019)"
         id="g48">
        <path
           id="Path_1019-2"
           data-name="Path 1019"
           d="m 42.63,126.45 h 6.052 a 3.038,3.038 0 0 1 -2.889,2.154 3.178,3.178 0 0 1 -3.163,-2.154 z"
           transform="translate(-20.19,-92.39)"
           fill="url(#linear-gradient)"
           style="fill:url(#linearGradient61)" />
      </g>
    </g>
    <g
       transform="translate(-15,-12)"
       filter="url(#Oval)"
       id="g52">
      <path
         id="Oval-2"
         data-name="Oval"
         d="M 4.3,0 A 4.3,4.3 0 1 1 0,4.3 4.3,4.3 0 0 1 4.3,0 Z"
         transform="translate(27.05,12)"
         fill="#ff00d5" />
    </g>
  </g>
</svg>
