<svg xmlns="http://www.w3.org/2000/svg" width="18.564" height="18.564" viewBox="0 0 18.564 18.564">
  <g id="Group_18362" data-name="Group 18362" transform="translate(0)">
    <path id="Path_3937" data-name="Path 3937" d="M433.3,1891.43a9.282,9.282,0,1,0,9.282,9.282A9.293,9.293,0,0,0,433.3,1891.43Zm0,17.082a7.968,7.968,0,0,1-7.665-7.8,7.691,7.691,0,1,1,15.383,0A8.016,8.016,0,0,1,433.3,1908.511Z" transform="translate(-424.016 -1891.43)" fill="#fff"/>
    <path id="Path_13175" data-name="Path 13175" d="M427.723,1891.43a3.707,3.707,0,1,0,3.707,3.707A3.711,3.711,0,0,0,427.723,1891.43Z" transform="translate(-418.44 -1885.855)" fill="#fff"/>
  </g>
</svg>
