<?xml version="1.0" encoding="UTF-8" standalone="no"?>
<svg
   width="48.564"
   height="47.238"
   viewBox="0 0 48.564 47.238"
   version="1.1"
   id="svg47"
   sodipodi:docname="chat-notification.svg"
   inkscape:version="1.1.2 (b8e25be833, 2022-02-05)"
   xmlns:inkscape="http://www.inkscape.org/namespaces/inkscape"
   xmlns:sodipodi="http://sodipodi.sourceforge.net/DTD/sodipodi-0.dtd"
   xmlns="http://www.w3.org/2000/svg"
   xmlns:svg="http://www.w3.org/2000/svg">
  <sodipodi:namedview
     id="namedview49"
     pagecolor="#ffffff"
     bordercolor="#666666"
     borderopacity="1.0"
     inkscape:pageshadow="2"
     inkscape:pageopacity="0.0"
     inkscape:pagecheckerboard="true"
     showgrid="false"
     inkscape:zoom="7.6103986"
     inkscape:cx="40.208144"
     inkscape:cy="12.351521"
     inkscape:window-width="1280"
     inkscape:window-height="961"
     inkscape:window-x="-8"
     inkscape:window-y="-8"
     inkscape:window-maximized="1"
     inkscape:current-layer="svg47" />
  <defs
     id="defs35">
    <filter
       id="Path_13645"
       x="0"
       y="0"
       width="48.564"
       height="47.238"
       filterUnits="userSpaceOnUse">
      <feOffset
         dy="3"
         input="SourceAlpha"
         id="feOffset2" />
      <feGaussianBlur
         stdDeviation="5"
         result="blur"
         id="feGaussianBlur4" />
      <feFlood
         flood-opacity="0.09"
         id="feFlood6" />
      <feComposite
         operator="in"
         in2="blur"
         id="feComposite8"
         result="result1" />
      <feComposite
         in="SourceGraphic"
         in2="result1"
         id="feComposite10" />
    </filter>
    <filter
       id="Path_13646"
       x="3.979"
       y="3.978"
       width="40.608"
       height="31.326"
       filterUnits="userSpaceOnUse">
      <feOffset
         dy="3"
         input="SourceAlpha"
         id="feOffset13" />
      <feGaussianBlur
         stdDeviation="5"
         result="blur-2"
         id="feGaussianBlur15" />
      <feFlood
         flood-opacity="0.09"
         id="feFlood17" />
      <feComposite
         operator="in"
         in2="blur-2"
         id="feComposite19"
         result="result1" />
      <feComposite
         in="SourceGraphic"
         in2="result1"
         id="feComposite21" />
    </filter>
    <filter
       id="Path_13647"
       x="3.979"
       y="7.956"
       width="36.63"
       height="31.326"
       filterUnits="userSpaceOnUse">
      <feOffset
         dy="3"
         input="SourceAlpha"
         id="feOffset24" />
      <feGaussianBlur
         stdDeviation="5"
         result="blur-3"
         id="feGaussianBlur26" />
      <feFlood
         flood-opacity="0.09"
         id="feFlood28" />
      <feComposite
         operator="in"
         in2="blur-3"
         id="feComposite30"
         result="result1" />
      <feComposite
         in="SourceGraphic"
         in2="result1"
         id="feComposite32" />
    </filter>
  </defs>
  <g
     id="Group_18360"
     data-name="Group 18360"
     transform="matrix(2.4615576,0,0,2.4615576,33839.101,-12477.642)">
    <g
       transform="translate(-13761.28,5058.38)"
       filter="url(#Path_13645)"
       id="g38">
      <path
         id="Path_13645-2"
         data-name="Path 13645"
         d="m 12.686,21.738 -1.153,-0.663 2.652,-4.641 h 3.978 a 1.326,1.326 0 0 0 1.326,-1.326 V 7.152 A 1.326,1.326 0 0 0 18.163,5.826 H 4.9 A 1.326,1.326 0 0 0 3.576,7.152 v 7.956 A 1.326,1.326 0 0 0 4.9,16.434 h 5.967 V 17.76 H 4.9 A 2.652,2.652 0 0 1 2.25,15.108 V 7.152 A 2.652,2.652 0 0 1 4.9,4.5 h 13.26 a 2.652,2.652 0 0 1 2.652,2.652 v 7.956 A 2.652,2.652 0 0 1 18.16,17.76 h -3.207 z"
         transform="translate(12.75,7.5)"
         fill="#ffffff" />
    </g>
    <g
       transform="translate(-13761.28,5058.38)"
       filter="url(#Path_13646)"
       id="g41">
      <path
         id="Path_13646-2"
         data-name="Path 13646"
         d="m 9,11.25 h 10.608 v 1.326 H 9 Z"
         transform="translate(9.98,4.73)"
         fill="#ffffff" />
    </g>
    <g
       transform="translate(-13761.28,5058.38)"
       filter="url(#Path_13647)"
       id="g44">
      <path
         id="Path_13647-2"
         data-name="Path 13647"
         d="m 9,18 h 6.63 v 1.326 H 9 Z"
         transform="translate(9.98,1.96)"
         fill="#ffffff" />
    </g>
  </g>
</svg>
