<svg xmlns="http://www.w3.org/2000/svg" width="19.564" height="15.588" viewBox="0 0 19.564 15.588">
  <path id="comments-o" d="M7.294,1.326a8.063,8.063,0,0,0-2.963.539A5.553,5.553,0,0,0,2.139,3.326,2.944,2.944,0,0,0,1.326,5.3a2.823,2.823,0,0,0,.549,1.637A4.768,4.768,0,0,0,3.419,8.309l1.005.58-.363.871q.352-.207.643-.4l.456-.321.549.1a8.971,8.971,0,0,0,1.585.145,8.063,8.063,0,0,0,2.963-.539,5.553,5.553,0,0,0,2.191-1.461A2.944,2.944,0,0,0,13.262,5.3a2.944,2.944,0,0,0-.813-1.979,5.552,5.552,0,0,0-2.192-1.461,8.069,8.069,0,0,0-2.963-.539ZM7.294,0a9.335,9.335,0,0,1,3.663.71,6.572,6.572,0,0,1,2.657,1.932,4.127,4.127,0,0,1,0,5.325A6.581,6.581,0,0,1,10.956,9.9a9.324,9.324,0,0,1-3.662.709,10.421,10.421,0,0,1-1.824-.166,8.707,8.707,0,0,1-2.88,1.326,8.63,8.63,0,0,1-.891.166H1.668a.324.324,0,0,1-.212-.083.342.342,0,0,1-.119-.218.212.212,0,0,1-.01-.068.412.412,0,0,1,.005-.068.225.225,0,0,1,.021-.062l.026-.052.036-.057.041-.052.046-.052.041-.046q.052-.062.238-.259a3.921,3.921,0,0,0,.269-.306q.083-.109.233-.3a2.563,2.563,0,0,0,.259-.4q.108-.207.212-.456A6.06,6.06,0,0,1,.735,7.625,4.064,4.064,0,0,1,0,5.3,4.185,4.185,0,0,1,.974,2.642,6.576,6.576,0,0,1,3.631.71,9.335,9.335,0,0,1,7.294,0Zm8.516,12.111q.1.249.212.456a2.614,2.614,0,0,0,.259.4q.15.191.233.3t.269.306q.186.2.238.259l.041.046q.031.036.046.052a.439.439,0,0,1,.041.052.465.465,0,0,1,.036.057l.026.052.021.062.005.068-.01.068a.384.384,0,0,1-.135.228.312.312,0,0,1-.228.073,8.854,8.854,0,0,1-.891-.166,8.721,8.721,0,0,1-2.88-1.326,10.421,10.421,0,0,1-1.824.166,8.7,8.7,0,0,1-4.89-1.368q.6.041.912.041a10.947,10.947,0,0,0,3.2-.466,9.163,9.163,0,0,0,2.735-1.337,6.931,6.931,0,0,0,1.989-2.2,5.332,5.332,0,0,0,.456-4.207,6.131,6.131,0,0,1,2.113,1.844,4.044,4.044,0,0,1,.042,4.709A6.085,6.085,0,0,1,15.809,12.111Z" transform="translate(0.5 0.5)" fill="#fff" stroke="rgba(0,0,0,0)" stroke-width="1"/>
</svg>
