<svg xmlns="http://www.w3.org/2000/svg" width="18.564" height="18.564" viewBox="0 0 18.564 18.564">
  <g id="Group_18363" data-name="Group 18363" transform="translate(13746.282 -5429.718)">
    <path id="Path_13933" data-name="Path 13933" d="M19.488,4.9H19.1l1.714-1.714-.938-.938L2.25,19.877l.938.938L5.84,18.162H19.488a1.328,1.328,0,0,0,1.326-1.326V13.521a.663.663,0,0,0-.663-.663,1.326,1.326,0,0,1,0-2.652.663.663,0,0,0,.663-.663V6.228A1.327,1.327,0,0,0,19.488,4.9Zm0,4.062a2.652,2.652,0,0,0,0,5.136v2.736H14.847V14.847H13.521v1.989H7.166l6.356-6.356v3.04h1.326V9.155l2.927-2.927h1.714Z" transform="translate(-13748.532 5427.468)" fill="#fff"/>
    <path id="Path_13934" data-name="Path 13934" d="M3.576,10.812V8.076h9.945V6.75H3.576A1.327,1.327,0,0,0,2.25,8.076v3.315a.663.663,0,0,0,.663.663,1.326,1.326,0,0,1,0,2.652.663.663,0,0,0-.663.663v3.315H3.576V15.948a2.652,2.652,0,0,0,0-5.136Z" transform="translate(-13748.532 5425.62)" fill="#fff"/>
  </g>
</svg>
