<svg xmlns="http://www.w3.org/2000/svg" width="18.564" height="17.695" viewBox="0 0 18.564 17.695">
  <g id="Group_18358" data-name="Group 18358" transform="translate(13746.282 -4637)">
    <g id="icon_68_" transform="translate(-13742.155 4637)">
      <path id="Path_3813" data-name="Path 3813" d="M609.067,399.652a5.034,5.034,0,1,1,5.035-5.034A5.04,5.04,0,0,1,609.067,399.652Zm0-8.055a3.021,3.021,0,1,0,3.021,3.021A3.024,3.024,0,0,0,609.067,391.6Z" transform="translate(-604.033 -389.583)" fill="#fff"/>
    </g>
    <g id="Group_2871" data-name="Group 2871" transform="translate(-13746.282 4648.646)">
      <path id="Path_3814" data-name="Path 3814" d="M613.464,418.522h0a1,1,0,0,1-.991-.793,4.02,4.02,0,0,0-3.935-3.22h-6.664a4.02,4.02,0,0,0-3.935,3.22,1,1,0,0,1-.991.793h0a1.012,1.012,0,0,1-1.005-1.191,6.059,6.059,0,0,1,5.931-4.858h6.664a6.06,6.06,0,0,1,5.931,4.858A1.012,1.012,0,0,1,613.464,418.522Z" transform="translate(-595.924 -412.473)" fill="#fff"/>
    </g>
  </g>
</svg>
