<?xml version="1.0" encoding="UTF-8" standalone="no"?>
<svg
   width="47.827"
   height="47.828"
   viewBox="0 0 47.827 47.828"
   version="1.1"
   id="svg34"
   sodipodi:docname="orders-notification.svg"
   inkscape:version="1.1.2 (b8e25be833, 2022-02-05)"
   xmlns:inkscape="http://www.inkscape.org/namespaces/inkscape"
   xmlns:sodipodi="http://sodipodi.sourceforge.net/DTD/sodipodi-0.dtd"
   xmlns="http://www.w3.org/2000/svg"
   xmlns:svg="http://www.w3.org/2000/svg">
  <sodipodi:namedview
     id="namedview36"
     pagecolor="#ffffff"
     bordercolor="#666666"
     borderopacity="1.0"
     inkscape:pageshadow="2"
     inkscape:pageopacity="0.0"
     inkscape:pagecheckerboard="true"
     showgrid="false"
     inkscape:zoom="2.6574903"
     inkscape:cx="115.71068"
     inkscape:cy="18.814744"
     inkscape:window-width="1280"
     inkscape:window-height="961"
     inkscape:window-x="-8"
     inkscape:window-y="-8"
     inkscape:window-maximized="1"
     inkscape:current-layer="svg34" />
  <defs
     id="defs24">
    <filter
       id="Path_3877"
       x="0"
       y="4.692"
       width="43.137"
       height="43.136"
       filterUnits="userSpaceOnUse">
      <feOffset
         dy="3"
         input="SourceAlpha"
         id="feOffset2" />
      <feGaussianBlur
         stdDeviation="5"
         result="blur"
         id="feGaussianBlur4" />
      <feFlood
         flood-opacity="0.09"
         id="feFlood6" />
      <feComposite
         operator="in"
         in2="blur"
         id="feComposite8"
         result="result1" />
      <feComposite
         in="SourceGraphic"
         in2="result1"
         id="feComposite10" />
    </filter>
    <filter
       id="Path_3878"
       x="4.69"
       y="0"
       width="43.137"
       height="43.137"
       filterUnits="userSpaceOnUse">
      <feOffset
         dy="3"
         input="SourceAlpha"
         id="feOffset13" />
      <feGaussianBlur
         stdDeviation="5"
         result="blur-2"
         id="feGaussianBlur15" />
      <feFlood
         flood-opacity="0.09"
         id="feFlood17" />
      <feComposite
         operator="in"
         in2="blur-2"
         id="feComposite19"
         result="result1" />
      <feComposite
         in="SourceGraphic"
         in2="result1"
         id="feComposite21" />
    </filter>
  </defs>
  <g
     id="Group_18357"
     data-name="Group 18357"
     transform="matrix(2.4532141,0,0,2.4532141,33723.23,-11157.683)">
    <g
       transform="translate(-13760.55,4537.01)"
       filter="url(#Path_3877)"
       id="g27">
      <path
         id="Path_3877-2"
         data-name="Path 3877"
         d="m 604.642,764.3 h -6.434 a 3.355,3.355 0 0 1 -3.351,-3.351 v -6.429 a 3.355,3.355 0 0 1 3.351,-3.351 h 6.434 a 3.355,3.355 0 0 1 3.351,3.351 v 6.434 a 3.355,3.355 0 0 1 -3.351,3.346 z m -6.434,-11.259 a 1.476,1.476 0 0 0 -1.474,1.474 v 6.434 a 1.476,1.476 0 0 0 1.474,1.474 h 6.434 a 1.476,1.476 0 0 0 1.474,-1.474 v -6.429 a 1.476,1.476 0 0 0 -1.474,-1.474 z"
         transform="translate(-579.86,-734.48)"
         fill="#ffffff" />
    </g>
    <g
       id="Group_14377"
       data-name="Group 14377"
       transform="translate(10258.074,8436.5)">
      <g
         transform="translate(-24018.62,-3899.49)"
         filter="url(#Path_3878)"
         id="g30">
        <path
           id="Path_3878-2"
           data-name="Path 3878"
           d="m 615.493,754.237 a 0.939,0.939 0 0 1 -0.316,-1.823 1.512,1.512 0 0 0 1.005,-1.414 v -6.514 a 1.506,1.506 0 0 0 -1.5,-1.5 h -6.514 a 1.51,1.51 0 0 0 -1.419,1 0.939,0.939 0 0 1 -1.768,-0.631 3.393,3.393 0 0 1 3.187,-2.251 h 6.514 a 3.385,3.385 0 0 1 3.381,3.381 V 751 a 3.394,3.394 0 0 1 -2.251,3.187 0.932,0.932 0 0 1 -0.319,0.05 z"
           transform="translate(-585.23,-729.1)"
           fill="#ffffff" />
      </g>
    </g>
  </g>
</svg>
