<svg xmlns="http://www.w3.org/2000/svg" width="18.564" height="18.564" viewBox="0 0 18.564 18.564">
  <path id="Path_3836" data-name="Path 3836" d="M604.956,228.349a1.859,1.859,0,0,1-1.856-1.856l.013-.154a.915.915,0,0,0-.457-.863,2.026,2.026,0,0,0-.6-.25.921.921,0,0,0-.939.287l-.1.117a1.9,1.9,0,0,1-2.626,0,1.86,1.86,0,0,1,0-2.625l.118-.1a.919.919,0,0,0,.288-.939,2.015,2.015,0,0,0-.25-.6.921.921,0,0,0-.881-.454l-.135.01a1.856,1.856,0,0,1,0-3.713l.153.013a.916.916,0,0,0,.863-.457,2.019,2.019,0,0,0,.251-.6.92.92,0,0,0-.3-.95l-.1-.088a1.859,1.859,0,0,1,0-2.625,1.9,1.9,0,0,1,2.626,0l.1.117a.917.917,0,0,0,.939.287,2.018,2.018,0,0,0,.6-.251.914.914,0,0,0,.452-.881l-.01-.134a1.856,1.856,0,1,1,3.713,0l-.013.154a.914.914,0,0,0,.457.863,2.027,2.027,0,0,0,.6.25.92.92,0,0,0,.939-.287l.1-.117a1.9,1.9,0,0,1,2.626,0,1.86,1.86,0,0,1,0,2.625l-.118.1a.919.919,0,0,0-.288.939,2.013,2.013,0,0,0,.25.6.92.92,0,0,0,.881.454l.135-.01a1.857,1.857,0,1,1,0,3.713l-.153-.013a.916.916,0,0,0-.863.457,2.021,2.021,0,0,0-.251.6.92.92,0,0,0,.3.95l.1.088a1.86,1.86,0,0,1,0,2.625,1.9,1.9,0,0,1-2.626,0l-.1-.117a.912.912,0,0,0-.939-.287,2.017,2.017,0,0,0-.6.251.914.914,0,0,0-.452.881l.01.134A1.859,1.859,0,0,1,604.956,228.349Zm-3.154-5.011a2.95,2.95,0,0,1,.673.079,3.86,3.86,0,0,1,1.16.482,1.46,1.46,0,1,0,2.638,0,3.857,3.857,0,0,1,1.162-.484,2.77,2.77,0,0,1,2.412.541,2.774,2.774,0,0,1-.542-2.412,3.846,3.846,0,0,1,.484-1.161,2.765,2.765,0,0,1,2.084-1.319,2.765,2.765,0,0,1-2.084-1.318,3.837,3.837,0,0,1-.483-1.161,2.772,2.772,0,0,1,.541-2.413,2.773,2.773,0,0,1-2.412.541,3.861,3.861,0,0,1-1.16-.482,1.459,1.459,0,1,0-2.638,0,3.857,3.857,0,0,1-1.162.484,2.771,2.771,0,0,1-2.412-.541,2.773,2.773,0,0,1,.542,2.412,3.839,3.839,0,0,1-.484,1.161,2.765,2.765,0,0,1-2.084,1.319,2.766,2.766,0,0,1,2.084,1.318,3.832,3.832,0,0,1,.483,1.161,2.772,2.772,0,0,1-.541,2.413A2.768,2.768,0,0,1,601.8,223.338Z" transform="translate(-595.674 -209.785)" fill="#fff"/>
</svg>
