<?xml version="1.0" encoding="UTF-8" standalone="no"?>
<svg
   width="38.069"
   height="38.065"
   viewBox="0 0 38.069 38.065"
   version="1.1"
   id="svg18"
   sodipodi:docname="payment-notification.svg"
   inkscape:version="1.1.2 (b8e25be833, 2022-02-05)"
   xmlns:inkscape="http://www.inkscape.org/namespaces/inkscape"
   xmlns:sodipodi="http://sodipodi.sourceforge.net/DTD/sodipodi-0.dtd"
   xmlns="http://www.w3.org/2000/svg"
   xmlns:svg="http://www.w3.org/2000/svg">
  <sodipodi:namedview
     id="namedview20"
     pagecolor="#ffffff"
     bordercolor="#666666"
     borderopacity="1.0"
     inkscape:pageshadow="2"
     inkscape:pageopacity="0.0"
     inkscape:pagecheckerboard="true"
     showgrid="false"
     inkscape:zoom="4.7221859"
     inkscape:cx="42.247384"
     inkscape:cy="10.164784"
     inkscape:window-width="1280"
     inkscape:window-height="961"
     inkscape:window-x="-8"
     inkscape:window-y="-8"
     inkscape:window-maximized="1"
     inkscape:current-layer="svg18" />
  <defs
     id="defs13">
    <filter
       id="Icon_feather-thumbs-down"
       x="0"
       y="0"
       width="38.069"
       height="38.065"
       filterUnits="userSpaceOnUse">
      <feOffset
         dy="3"
         input="SourceAlpha"
         id="feOffset2" />
      <feGaussianBlur
         stdDeviation="3"
         result="blur"
         id="feGaussianBlur4" />
      <feFlood
         flood-opacity="0.161"
         id="feFlood6" />
      <feComposite
         operator="in"
         in2="blur"
         id="feComposite8"
         result="result1" />
      <feComposite
         in="SourceGraphic"
         in2="result1"
         id="feComposite10" />
    </filter>
  </defs>
  <g
     filter="url(#Icon_feather-thumbs-down)"
     id="g16"
     transform="matrix(1.656403,0,0,1.656403,-11.859003,-8.2576626)">
    <path
       id="Icon_feather-thumbs-down-2"
       data-name="Icon feather-thumbs-down"
       d="M 14.794,9.5 V 5.784 A 2.807,2.807 0 0 0 11.965,3 l -3.773,8.353 v 10.21 h 10.639 a 1.878,1.878 0 0 0 1.886,-1.578 l 1.3,-8.354 A 1.836,1.836 0 0 0 21.575,10.131 1.9,1.9 0 0 0 20.133,9.5 Z m -6.6,12.067 h -2.52 a 2.168,2.168 0 0 1 -2.2,-1.856 v -6.5 a 2.168,2.168 0 0 1 2.2,-1.856 h 2.518"
       transform="translate(6.27,3.75)"
       fill="none"
       stroke="#ffffff"
       stroke-width="1.5" />
  </g>
</svg>
