<svg xmlns="http://www.w3.org/2000/svg" width="18.564" height="15.912" viewBox="0 0 18.564 15.912">
  <g id="Group_18365" data-name="Group 18365" transform="translate(13746.282 -5611.044)">
    <path id="Path_13908" data-name="Path 13908" d="M20.814,29.25H2.25v1.326H20.814Z" transform="translate(-13748.532 5596.38)" fill="#fff"/>
    <path id="Path_13909" data-name="Path 13909" d="M21.576,20.793h2.652a1.327,1.327,0,0,0,1.326-1.326V14.826A1.327,1.327,0,0,0,24.228,13.5H21.576a1.327,1.327,0,0,0-1.326,1.326v4.641a1.327,1.327,0,0,0,1.326,1.326Zm2.652-5.967v4.641H21.575V14.826Z" transform="translate(-13763.88 5602.848)" fill="#fff"/>
    <path id="Path_13910" data-name="Path 13910" d="M8.076,17.1h2.652a1.327,1.327,0,0,0,1.326-1.326V5.826A1.327,1.327,0,0,0,10.728,4.5H8.076A1.327,1.327,0,0,0,6.75,5.826v9.945A1.327,1.327,0,0,0,8.076,17.1ZM10.728,5.826v9.945H8.075V5.826Z" transform="translate(-13742.425 5606.544)" fill="#fff"/>
  </g>
</svg>
