<svg xmlns="http://www.w3.org/2000/svg" width="18.564" height="17.373" viewBox="0 0 18.564 17.373">
  <g id="Group_18367" data-name="Group 18367" transform="translate(13746.282 -5790.313)">
    <path id="Path_43875" data-name="Path 43875" d="M5.691,3.441V8.9l8.338,8.338,5.463-5.463L11.154,3.441Zm-1.191,0A1.191,1.191,0,0,1,5.691,2.25h5.463A1.191,1.191,0,0,1,12,2.6l8.338,8.338a1.191,1.191,0,0,1,0,1.684l-5.463,5.463a1.191,1.191,0,0,1-1.684,0L4.849,9.745A1.191,1.191,0,0,1,4.5,8.9Z" transform="translate(-13748.4 5788.063)" fill="#fff" fill-rule="evenodd"/>
    <path id="Path_43876" data-name="Path 43876" d="M10.787,9.132a.6.6,0,1,0-.6-.6A.6.6,0,0,0,10.787,9.132Zm0,1.191A1.787,1.787,0,1,0,9,8.537,1.787,1.787,0,0,0,10.787,10.323Z" transform="translate(-13750.518 5785.946)" fill="#fff" fill-rule="evenodd"/>
    <path id="Path_43877" data-name="Path 43877" d="M1.191,10.558a1.191,1.191,0,0,0,.349.842l8.882,8.882-.051.051a1.191,1.191,0,0,1-1.684,0L.349,12A1.191,1.191,0,0,1,0,11.154V5.691A1.191,1.191,0,0,1,1.191,4.5Z" transform="translate(-13746.282 5787.004)" fill="#fff"/>
  </g>
</svg>
