<svg xmlns="http://www.w3.org/2000/svg" width="18.563" height="21.65" viewBox="0 0 18.563 21.65">
  <g id="Group_18364" data-name="Group 18364" transform="translate(13746.282 -5518.175)">
    <path id="Path_13922" data-name="Path 13922" d="M12.375,27h7.732v1.546H12.375Z" transform="translate(-13754.784 5508.186)" fill="#fcfcfc"/>
    <path id="Path_13923" data-name="Path 13923" d="M14.625,31.5h4.639v1.546H14.625Z" transform="translate(-13755.487 5506.779)" fill="#fcfcfc"/>
    <path id="Path_13924" data-name="Path 13924" d="M10.47,14.73A5.556,5.556,0,0,1,8.293,9.982,6.193,6.193,0,0,1,14.479,3.8V2.25A7.741,7.741,0,0,0,6.746,9.982a7.1,7.1,0,0,0,2.676,5.889c.782.723,1.19,1.133,1.19,1.843h1.546A3.944,3.944,0,0,0,10.47,14.73Z" transform="translate(-13753.021 5515.925)" fill="#fcfcfc"/>
    <path id="Path_13925" data-name="Path 13925" d="M23.059,18.25a3.938,3.938,0,0,0-1.684,2.982h1.546c0-.711.407-1.121,1.187-1.845A7.108,7.108,0,0,0,26.788,13.5H25.241A5.569,5.569,0,0,1,23.059,18.25Z" transform="translate(-13757.599 5512.407)" fill="#fcfcfc"/>
    <path id="Path_13926" data-name="Path 13926" d="M21.445,7.923a1.16,1.16,0,1,1-1.16-1.132,1.16,1.16,0,0,1,1.16,1.132Z" transform="translate(-13756.893 5514.504)" fill="#fcfcfc"/>
    <path id="Path_13927" data-name="Path 13927" d="M32.695,7.923a1.16,1.16,0,1,1-1.16-1.132A1.16,1.16,0,0,1,32.695,7.923Z" transform="translate(-13760.413 5514.504)" fill="#fcfcfc"/>
    <path id="Path_13928" data-name="Path 13928" d="M27.07,7.923a1.16,1.16,0,1,1-1.16-1.132,1.16,1.16,0,0,1,1.16,1.132Z" transform="translate(-13758.653 5514.504)" fill="#fcfcfc"/>
  </g>
</svg>
