<?xml version="1.0" encoding="UTF-8" standalone="no"?>
<svg
   width="48.565"
   height="44.145"
   viewBox="0 0 48.565 44.145"
   version="1.1"
   id="svg47"
   sodipodi:docname="wallet-notification.svg"
   inkscape:version="1.1.2 (b8e25be833, 2022-02-05)"
   xmlns:inkscape="http://www.inkscape.org/namespaces/inkscape"
   xmlns:sodipodi="http://sodipodi.sourceforge.net/DTD/sodipodi-0.dtd"
   xmlns="http://www.w3.org/2000/svg"
   xmlns:svg="http://www.w3.org/2000/svg">
  <sodipodi:namedview
     id="namedview49"
     pagecolor="#ffffff"
     bordercolor="#666666"
     borderopacity="1.0"
     inkscape:pageshadow="2"
     inkscape:pageopacity="0.0"
     inkscape:pagecheckerboard="true"
     showgrid="false"
     inkscape:zoom="4.0718088"
     inkscape:cx="54.398429"
     inkscape:cy="14.489875"
     inkscape:window-width="1280"
     inkscape:window-height="961"
     inkscape:window-x="-8"
     inkscape:window-y="-8"
     inkscape:window-maximized="1"
     inkscape:current-layer="svg47" />
  <defs
     id="defs35">
    <filter
       id="Path_3854"
       x="12.275"
       y="8.84"
       width="33.536"
       height="31.768"
       filterUnits="userSpaceOnUse">
      <feOffset
         dy="3"
         input="SourceAlpha"
         id="feOffset2" />
      <feGaussianBlur
         stdDeviation="5"
         result="blur"
         id="feGaussianBlur4" />
      <feFlood
         flood-opacity="0.09"
         id="feFlood6" />
      <feComposite
         operator="in"
         in2="blur"
         id="feComposite8"
         result="result1" />
      <feComposite
         in="SourceGraphic"
         in2="result1"
         id="feComposite10" />
    </filter>
    <filter
       id="Path_3855"
       x="0.884"
       y="4.42"
       width="46.797"
       height="31.769"
       filterUnits="userSpaceOnUse">
      <feOffset
         dy="3"
         input="SourceAlpha"
         id="feOffset13" />
      <feGaussianBlur
         stdDeviation="5"
         result="blur-2"
         id="feGaussianBlur15" />
      <feFlood
         flood-opacity="0.09"
         id="feFlood17" />
      <feComposite
         operator="in"
         in2="blur-2"
         id="feComposite19"
         result="result1" />
      <feComposite
         in="SourceGraphic"
         in2="result1"
         id="feComposite21" />
    </filter>
    <filter
       id="Path_3856"
       x="0"
       y="0"
       width="48.565"
       height="44.145"
       filterUnits="userSpaceOnUse">
      <feOffset
         dy="3"
         input="SourceAlpha"
         id="feOffset24" />
      <feGaussianBlur
         stdDeviation="5"
         result="blur-3"
         id="feGaussianBlur26" />
      <feFlood
         flood-opacity="0.09"
         id="feFlood28" />
      <feComposite
         operator="in"
         in2="blur-3"
         id="feComposite30"
         result="result1" />
      <feComposite
         in="SourceGraphic"
         in2="result1"
         id="feComposite32" />
    </filter>
  </defs>
  <g
     id="Group_18359"
     data-name="Group 18359"
     transform="matrix(2.5020862,0,0,2.5020862,34395.436,-12107.693)">
    <g
       transform="translate(-13761.28,4828.93)"
       filter="url(#Path_3854)"
       id="g38">
      <path
         id="Path_3854-2"
         data-name="Path 3854"
         d="m 284.736,944.112 h -1.768 a 0.884,0.884 0 1 1 0,-1.768 h 1.768 a 0.884,0.884 0 1 1 0,1.768 z"
         transform="translate(-254.81,-921.5)"
         fill="#ffffff" />
    </g>
    <g
       transform="translate(-13761.28,4828.93)"
       filter="url(#Path_3855)"
       id="g41">
      <path
         id="Path_3855-2"
         data-name="Path 3855"
         d="m 272.252,934.123 h -15.029 a 0.884,0.884 0 1 1 0,-1.768 h 15.029 a 0.884,0.884 0 1 1 0,1.768 z"
         transform="translate(-240.46,-915.94)"
         fill="#ffffff" />
    </g>
    <g
       transform="translate(-13761.28,4828.93)"
       filter="url(#Path_3856)"
       id="g44">
      <path
         id="Path_3856-2"
         data-name="Path 3856"
         d="m 269.371,936.511 h -11.493 a 3.539,3.539 0 0 1 -3.536,-3.536 V 925.9 a 3.54,3.54 0 0 1 3.536,-3.536 h 11.493 a 3.54,3.54 0 0 1 3.536,3.536 v 7.073 a 3.54,3.54 0 0 1 -3.536,3.538 z m -11.493,-12.377 a 1.771,1.771 0 0 0 -1.768,1.768 v 7.073 a 1.77,1.77 0 0 0 1.768,1.768 h 11.493 a 1.77,1.77 0 0 0 1.768,-1.768 V 925.9 a 1.771,1.771 0 0 0 -1.768,-1.768 z"
         transform="translate(-239.34,-910.37)"
         fill="#ffffff" />
    </g>
  </g>
</svg>
